<?xml version="1.0" encoding="utf-8"?>
<!-- Generator: Adobe Illustrator 16.0.0, SVG Export Plug-In . SVG Version: 6.00 Build 0)  -->
<!DOCTYPE svg PUBLIC "-//W3C//DTD SVG 1.1//EN" "http://www.w3.org/Graphics/SVG/1.1/DTD/svg11.dtd">
<svg version="1.1" id="Layer_1" xmlns="http://www.w3.org/2000/svg" xmlns:xlink="http://www.w3.org/1999/xlink" x="0px" y="0px"
	 width="981.679px" height="633px" viewBox="0 0 981.679 633" style="enable-background:new 0 0 981.679 633;" xml:space="preserve"
	>
<g>
	<path d="M969.59,370.506c-7.571-3.752-12.841-7.789-4.604-16.385c6.154-6.424,5.635-15.538,6.479-23.546
		c0.44-4.188,1.132-7.379,3.183-11.04c7.034-12.556,5.359-26.941,6.673-40.506c0.697-7.193-8.841-9.755-13.554-14.595
		c-11.042-11.338-17.964-10.104-26.011,4.212c-1.715,3.049-2.362,8.321-6.763,7.677c-9.78-1.434-9.918,5.136-11.72,11.559
		c-3.03,10.803-19.188,16-27.53,8.643c-9.699-8.552-20.269-14.721-33.002-17.353c-9.269-1.917-14.718-6.506-11.22-17.318
		c1.548-4.784,0.78-11.973-3.79-13.024c-8.813-2.028-15.082-9.189-24.578-9.726c-14.99-0.846-29.899-3.102-44.843-4.766
		c-1.988-0.22-5.138-0.11-5.034-2.359c0.584-12.701-8.494-24.937-4.167-37.105c7.58-21.315,15.92-42.708,34.333-57.81
		c2.311-1.894,4.747-3.95,2.861-7.125c-5.25-8.841,0.889-24.31-15.475-26.744c-0.592-0.088-1.247-1.124-1.512-1.851
		c-7.157-19.603-25.567-26.755-41.386-36.116c-15.581-9.22-29.022-25.806-50.846-18.639c-0.973,0.32-2.377-0.445-3.511-0.882
		c-16.366-6.309-32.556-9.15-49.316-0.547c-5.989,3.073-12.297-1.367-10.603-7.106c3.303-11.194-4.02-10.267-10.314-12.862
		c-9.271-3.822-14.54,2.89-22.681,8.356c3.541-10.684,3.126-16.017-5.245-23.205C587.725,3.739,578.029,6,571.74,0
		c-3.271,0-6.542,0-9.813,0c-1.641,6-6.981,7.381-11.694,9.666c-9.681,4.69-15.94,12.524-20.38,21.888
		c-3.224,6.798-4.46,13.273,5.669,16.11c4.777,1.338,10.854,6.65,8.233,10.047c-4.334,5.622-3.062,15.728-13.141,17.133
		c-7.48,1.042-12.18-2.079-16.623-7.599c-11.656-14.477-22.543-16.079-38.349-5.982c-12.598,8.047-24.607,17.116-40.831,16.646
		c-4.222-0.123-7.099,0.729-9.989-3.963c-5.391-8.754-19.286-9.471-25.912-1.137c-7.08,8.906-16.217,9.075-25.879,9.719
		c-1.545-4.43,2.25-6.541,2.533-9.717c0.754-8.462-5.441-14.712-12.299-11.002c-13.184,7.132-29.902,11.012-32.728,29.751
		c-0.247,1.634-0.715,3.947-2.508,3.646c-10.937-1.834-12.789,3.961-12.696,13.172c0.032,3.28-4.009,5.651-8.312,5.836
		c-4.024,0.172-8.043,1.03-12.01,1.849c-20.066,4.144-19.979,4.141-27.489-14.913c-2.616-6.635-8.897-7.17-14.474-6.375
		c-10.715,1.53-24.423-6.335-31.437,5.645c-3.553,6.068-6.925,10.614-12.143,15.249c-7.227,6.421-14.538,16.625-11.865,25.342
		c2.815,9.186,13.485,0.945,20.653,1.522c1.619,0.131,3.278-0.223,4.895-0.09c2.987,0.248,6.917-2.1,8.534,2.277
		c1.096,2.966-0.903,7.259-2.527,7.641c-16.615,3.899-16.944,20.543-25.264,30.834c-11.162,13.806-22.779,27.45-37.198,38.258
		c-4.805,3.603-9.806,7.206-12.124,13.193c-5.154,13.312-12.483,24.038-28.265,26.149c-8.668,1.159-15.783,6.161-22.642,11.387
		c-4.413,3.363-6.925,7.217-3.437,12.448c5.919,8.878,5.037,17.522,0.202,26.493c-1.285,2.383-2.679,6.338-1.604,8.075
		c4.62,7.473-0.785,9.946-5.443,13.229c-20.693,14.579-39.837,31.006-57.671,48.947c-2.984,3.001-8.409,6.158-5.066,11.12
		c6.857,10.181,1.043,17.299-4.185,25.245c-9.742,14.809-9.263,21.266,3.988,33.563c6.961,6.461,7.812,11.855,3.172,19.979
		c-5.84,10.227-14.292,19.439-25.762,26.179C4.831,499.246,2,502.422,0,504.959c0,7.359,0,14.721,0,22.08
		c5,3.299,10.854,5.797,17.258,4.906c20.904-2.91,37.258-14.924,53.144-27.439c7.979-6.287,6.758-14.083-2.165-17.563
		c-8.123-3.168-8.657-10.752-6.17-15.961c3.565-7.472,8.466-15.715,16.698-18.968c24.995-9.876,48.443-25.699,77.681-20.249
		c6.574,1.226,12.335,2.758,18.117,6.224c6.413,3.845,6.814,9.357,2.688,12.957c-9.825,8.573-3.748,13.743,2.3,19.875
		c3.867,3.92,10.811,7.679,7.971,13.917c-4.771,10.481-4.57,22.387-10.166,32.34c-4.272,7.596-2.258,12.143,5.813,12.648
		c12.133,0.76,16.483,6.594,15.175,18.203c-0.383,3.4-0.332,9.125,4.643,8.174c9.121-1.744,11.433,4.945,14.455,10.16
		c5.777,9.967,10.793,20.381,15.929,30.707c10.621,21.355,23.955,24.805,44.351,12.973c5.767-3.346,13.058-7.465,20.819-3.598
		c7.238,3.607,13.206,1.787,18.81-3.688c3.18-3.105,7.108-5.439,10.664-8.166c19.974-15.313,28.646-15.191,47.581,0.82
		c2.327,1.969,4.689,3.598,7.678,1.912c5.211-2.939,9.811-1.115,15.095,0.406c10.037,2.889,19.698,3.107,22.222-10.84
		c0.758-4.193,3.527-6.76,8.382-7.598c13.356-2.307,21.387-10.434,22.951-23.791c0.74-6.314,2.993-10.326,8.484-13.664
		c23.629-14.361,26.236-25.477,10.525-48.521c-4.449-6.528-1.308-12.75,2.473-12.733c15.399,0.066,20.538-14.771,32.07-19.837
		c5.711-2.51,8.13-6.685,7.582-13.664c-0.888-11.319,10.075-9.935,16.314-11.81c7.436-2.234,9.373,4.382,9.722,10.616
		c0.504,9.023-0.475,17.748-3.122,26.55c-3.192,10.617-3.053,22.096,7.691,28.202c11.106,6.309,17.479,15.512,22.324,26.438
		c2.809,6.33,6.583,11.848,13.793,12.473c12.239,1.061,23.158,7.959,35.697,7.447c5.539-0.227,5.975,3.346,4.328,7.422
		c-1.368,3.393-3.149,6.633-4.919,9.844c-6.362,11.547-5.597,13.865,6.465,18.994c14.559,6.193,22.406,21.881,18.424,36.961
		c-0.787,2.98-3.179,7.924,2.463,6.844c6.962-1.334,10.461,3.037,15.375,6.037c1.636,0,3.271,0,4.907,0
		c5.589-6,9.384-12.502,13.997-18.699c5.294-7.111,2.999-11.637-3.223-16.385c-11.714-8.939-12.728-29.927-2.108-40.577
		c3.899-3.912,7.021-7.849,6.8-13.753c-0.211-5.605,3.212-8.817,7.818-11.409c3.507-1.973,7.914-3.954,9.68-7.161
		c15.316-27.814,40.536-53.132,23.071-89.632c-2.955-6.176,1.717-12.198,6.184-16.108c4.656-4.075,9.897-1.798,14.174,2.305
		c1.743,1.674,4.267,4.578,5.707,4.194c10.04-2.682,8.105,4.449,8.069,9.552c-0.121,16.825,10.945,28.555,19.809,40.622
		c6.726,9.156,18.949,7.599,29.671,7.717c7.638,0.082,12.467-2.435,14.535-9.938c0.268-0.965,1.796-2.349,2.63-2.275
		c13.034,1.143,21.574-10.595,34.323-11.398c11.786-0.743,16.087,0.61,16.476,12.883c0.383,12.091,14.844,17.711,12.808,30.495
		c-0.084,0.523,1.756,1.633,2.858,2.025c8.574,3.053,15.804-1.531,22.198-5.602c5.339-3.396,6.931-9.825,3.307-16.351
		c-2.372-4.274-4.058-8.939-6.53-13.146c-3.054-5.198-2.718-9.625,0.69-14.672c8.738-12.938,6.266-17.908-9.769-20.059
		c-4.914-0.658-8.774-1.396-8.422-7.795c0.778-14.15,4.453-27.108,13.723-38.225c4.973-5.965,20.099-8.631,23.268-3.742
		c9.323,14.382,30.931,24.266,46.221,21.032c1.516-0.321,3.477-0.956,4.222-2.102c4.78-7.346,6.656-15.765,6.966-24.295
		C981.952,372.755,974.431,372.905,969.59,370.506z M880.184,424.291c-0.429,2.483-0.667,4.649-0.667,6.56
		c0,1.933,0.244,3.61,0.813,5.069c0.426,1.093,1.04,2.057,1.843,2.87c1.206,1.225,2.808,2.1,4.791,2.73
		c1.986,0.632,4.369,1.031,7.224,1.29c2.446,0.217,4.68,0.386,6.168,0.789c0.743,0.196,1.279,0.454,1.559,0.703
		c0.143,0.125,0.227,0.239,0.285,0.363c0.057,0.124,0.093,0.267,0.094,0.475c0.006,0.441-0.206,1.201-0.819,2.246
		c-0.608,1.045-1.593,2.366-3.015,3.979c-2.915,3.311-4.714,7.472-4.714,11.916c-0.002,3.587,1.182,7.337,3.813,10.889
		c2.546,3.443,4.467,7.559,6.026,11.677c0.527,1.388,0.783,2.674,0.783,3.806c-0.006,1.541-0.451,2.779-1.355,3.775
		c-0.907,0.992-2.336,1.773-4.428,2.17c-1.618,0.311-3.301,0.646-4.715,0.645c-0.648,0-1.234-0.07-1.729-0.221
		c-0.744-0.236-1.277-0.602-1.713-1.313c-0.431-0.713-0.742-1.849-0.741-3.577c0-0.157,0.003-0.318,0.008-0.484l0.005-0.263
		c0.005-1.729-0.562-3.218-1.449-4.433c-0.888-1.22-2.069-2.19-3.345-3.06c-2.808-1.917-4.541-4.18-5.684-6.847
		c-1.139-2.666-1.661-5.756-1.919-9.225c-0.217-2.899-0.709-5.316-1.522-7.333c-1.209-3.026-3.212-5.134-5.893-6.374
		c-2.678-1.246-5.968-1.688-9.931-1.689c-0.692,0-1.405,0.014-2.141,0.04c-7.516,0.271-14.21,3.015-20.773,5.621
		c-6.569,2.617-13.003,5.096-20.006,5.092c-0.328,0-0.658-0.005-0.989-0.016l-0.144-0.003c-0.683-0.002-1.316,0.172-1.853,0.461
		c-0.808,0.434-1.396,1.082-1.897,1.752c-0.499,0.673-0.917,1.387-1.331,2.023c-4.412,6.78-10.582,9.895-16.951,9.905
		c-7.154,0.002-14.628-3.998-19.94-11.649c-8.94-12.89-14.461-25.922-14.464-41.026c0-1.556,0.059-3.135,0.179-4.737
		c0.015-0.2,0.022-0.407,0.022-0.622c-0.004-1.265-0.237-2.784-0.734-4.099c-0.253-0.656-0.568-1.266-1.021-1.77
		c-0.227-0.25-0.493-0.476-0.813-0.643c-0.317-0.168-0.692-0.271-1.079-0.27c-0.615-0.001-1.207,0.247-1.733,0.647
		c-2.402,1.804-4.48,2.391-6.496,2.397c-2.236,0.003-4.448-0.774-6.751-1.696c-2.301-0.915-4.678-1.969-7.287-2.337
		c-2.229-0.31-4.786-0.813-7.331-0.814c-1.915,0-3.849,0.289-5.6,1.233c-1.752,0.939-3.262,2.544-4.304,4.947
		c-1.207,2.773-3.078,5.465-4.69,8.33c-1.605,2.861-2.964,5.939-2.966,9.487c-0.002,2.374,0.619,4.925,2.104,7.67
		c3.755,6.948,6.221,13.931,6.219,20.936c-0.005,5.937-1.748,11.918-6.067,18.065c-4.385,6.24-7.066,13.394-10.181,20.177
		c-2.979,6.5-6.342,12.639-11.844,17.439c-8.708-10.172-14.074-20.949-14.075-33.035c0-4.94,0.895-10.115,2.846-15.585
		c1.527-4.279,2.313-8.621,2.688-12.98c0.226-2.616,0.303-5.237,0.303-7.855l0,0c0-0.001,0-0.001,0-0.001
		c0-3.687-0.152-7.368-0.266-11.024c-0.038-1.219-0.072-2.435-0.094-3.646c-0.043-2.291-0.487-4.528-1.516-6.459
		c-1.022-1.929-2.662-3.536-4.948-4.453c-1.841-0.742-3.245-1.637-4.332-2.652c-1.627-1.523-2.571-3.329-3.135-5.446
		c-0.561-2.114-0.713-4.531-0.712-7.146c0-0.245,0.001-0.491,0.004-0.739c0.002-0.208,0.003-0.416,0.003-0.624
		c0-5.119-0.606-10.309-1.664-15.299c-0.5-2.361-1.404-4.348-2.599-6.012c-1.792-2.499-4.214-4.257-6.845-5.61
		c-2.633-1.354-5.487-2.315-8.224-3.217c-1.15-0.378-2.169-0.562-3.092-0.563c-1.484-0.01-2.723,0.518-3.608,1.346
		c-0.668,0.617-1.154,1.37-1.552,2.161c-0.595,1.19-1.002,2.488-1.436,3.689c-0.428,1.201-0.885,2.296-1.466,3.057
		c-2.179,2.877-4.728,4.723-7.549,5.877c-2.114,0.864-4.39,1.334-6.761,1.514c-0.791,0.061-1.592,0.088-2.401,0.088
		c-1.448,0.001-2.922-0.09-4.404-0.244c-8.182-0.854-16.313-2.804-24.547-4.331c-1.73-6.206-2.788-11.185-3.027-15.336
		c-0.035-0.612-0.053-1.207-0.053-1.785c0.011-4.893,1.237-8.603,4.047-12.286c2.815-3.679,7.29-7.297,13.738-11.658
		c2.371-1.61,5.425-2.972,8.098-4.764c1.337-0.898,2.584-1.914,3.588-3.159c1.003-1.243,1.754-2.727,2.063-4.48
		c0.832-4.639,2.779-7.701,5.451-10.108c2.569-2.309,5.857-3.978,9.436-5.598c5.524,2.857,10.066,4.44,14.156,4.447
		c3.559,0.01,6.73-1.249,9.608-3.758c2.887-2.507,5.539-6.223,8.345-11.255c1.168-2.103,2.257-4.395,3.519-6.083
		c0.157-0.211,0.316-0.413,0.478-0.603c0.484-0.571,0.99-1.043,1.516-1.386c0.527-0.343,1.066-0.568,1.672-0.661
		c0.202-0.031,0.411-0.047,0.63-0.047c0.846,0,1.858,0.245,3.092,0.885c3.099,1.608,5.817,2.345,8.281,2.345
		c3.051,0.005,5.641-1.151,7.905-2.924c2.273-1.775,4.276-4.158,6.34-6.755c1.368-1.727,3.166-3.193,5.123-4.599
		c1.736-1.249,3.59-2.456,5.358-3.775c4.802,4.23,10.321,5.981,15.918,6.881c5.848,0.939,11.823,1,17.396,1.978
		c2.96,0.517,5.464,0.812,7.638,0.813c2.048,0,3.813-0.264,5.361-0.883c2.331-0.925,4.074-2.672,5.428-5.172
		c1.364-2.505,2.415-5.786,3.513-10.052c0.257-1.004,0.479-2.146,0.787-3.086c0.151-0.468,0.324-0.881,0.505-1.183
		c0.181-0.306,0.362-0.486,0.504-0.566c3.313-1.943,5.613-4.012,7.09-6.217c1.479-2.203,2.104-4.541,2.1-6.875
		c-0.002-2.713-0.813-5.413-1.976-8.093c-1.104-2.538-2.534-5.067-3.963-7.579c0.639-1.488,1.499-2.341,2.563-2.9
		c1.163-0.604,2.638-0.827,4.289-0.825c0.313,0,0.632,0.007,0.956,0.021c22.628,0.971,44.782,3.196,64.648,15.068
		c0.852,0.51,1.317,0.994,1.583,1.443c0.263,0.451,0.36,0.9,0.363,1.468c0.007,0.893-0.298,2.035-0.552,3.361
		c-0.374,1.986-0.564,3.852-0.564,5.604c-0.008,4.579,1.328,8.414,4.048,11.37c2.715,2.959,6.721,5.018,11.958,6.354
		c11.299,2.885,21.45,7.715,30.442,16.103c4.204,3.922,9.758,5.654,15.407,5.652c5.278-0.001,10.667-1.498,15.265-4.175
		c4.594-2.678,8.411-6.549,10.454-11.338c0.588-1.397,0.923-2.979,1.479-4.146c0.272-0.583,0.585-1.044,0.945-1.354
		c0.364-0.308,0.768-0.501,1.407-0.557c2.467-0.192,4.485-0.866,6.14-1.883c2.488-1.527,4.113-3.777,5.443-6.151
		c1.331-2.38,2.391-4.915,3.694-7.148c1.112-1.915,2.183-3.581,3.242-4.705c0.529-0.563,1.051-0.988,1.554-1.262
		c0.507-0.274,0.986-0.406,1.505-0.407c0.716,0,1.565,0.262,2.624,0.995c1.054,0.73,2.285,1.926,3.683,3.68
		c2.503,3.128,5.461,5.594,7.719,8.271c1.132,1.337,2.089,2.718,2.764,4.25c0.675,1.534,1.074,3.22,1.076,5.222
		c0,1.314-0.176,2.766-0.573,4.391c-1.116,4.571-1.427,9.218-2.164,13.687c-0.735,4.474-1.88,8.749-4.582,12.679
		c-2.842,4.147-3.407,8.868-3.932,13.43c-0.516,4.579-0.994,9.012-3.313,12.804c-0.365,0.608-0.43,1.245-0.432,1.815
		c0.005,0.844,0.146,1.641,0.143,2.264c0,0.326-0.037,0.591-0.104,0.773c-1.276,3.583-2.318,6.488-3.049,8.945
		c-0.729,2.458-1.156,4.471-1.158,6.287c-0.002,1.417,0.274,2.72,0.875,3.915c0.905,1.799,2.465,3.306,4.706,4.923
		c2.247,1.618,5.211,3.363,9.051,5.597c1.679,0.976,2.729,1.956,3.355,2.909c0.624,0.957,0.862,1.897,0.866,2.95
		c0.005,1.495-0.537,3.218-1.292,5.103c-0.425,1.068-0.696,2.174-0.973,3.213c-0.409,1.564-0.852,2.956-1.626,3.866
		c-0.389,0.46-0.849,0.822-1.492,1.092c-0.643,0.269-1.482,0.439-2.603,0.439c-0.573,0-1.218-0.045-1.94-0.144
		c-7.701-1.041-15.346-1.604-21.23-4.34c-2.945-1.365-5.453-3.243-7.411-6.003c-1.955-2.761-3.372-6.433-4.014-11.431
		c-0.194-1.537-1.089-2.785-2.266-3.608c-1.182-0.829-2.649-1.289-4.176-1.375c-0.394-0.022-0.788-0.033-1.186-0.033
		c-4.503,0.002-9.247,1.371-13.861,3.669c-6.92,3.452-13.559,9.004-18.597,15.388c-5.031,6.386-8.482,13.605-8.874,20.482
		C881.417,415.513,880.934,419.939,880.184,424.291z M670.558,541.695c0.024,0.293,0.038,0.639,0.038,1.004
		c0.001,0.898-0.084,1.932-0.253,2.713c-0.082,0.391-0.189,0.717-0.283,0.902c-0.037,0.076-0.067,0.121-0.085,0.145
		c-3.7,1.471-6.313,3.553-8.134,6.002c-2.755,3.707-3.71,8.146-4.387,12.551c-0.67,4.41-1.071,8.824-2.494,12.543
		c-0.683,1.791-0.992,3.533-0.991,5.213c0.001,3.66,1.453,6.957,3.454,9.947c2.005,2.994,4.575,5.721,6.946,8.287
		c1.778,1.908,2.684,4.947,2.679,8.158c0.003,2.729-0.646,5.557-1.826,7.83c-1.182,2.281-2.864,3.971-4.884,4.635
		c-0.746,0.244-1.433,0.354-2.065,0.354c-1.403-0.004-2.577-0.518-3.612-1.441c-1.028-0.924-1.882-2.273-2.477-3.859
		c-2.437-6.479-4.959-12.936-6.54-19.543c-1.202-5.018-3.057-9.439-5.96-12.99c-2.899-3.551-6.854-6.191-12.086-7.633
		c-2.41-0.664-4.005-1.504-4.944-2.418c-0.934-0.922-1.304-1.879-1.316-3.168c-0.01-1.67,0.756-3.887,2.133-6.535
		c1.025-1.986,2.46-4.084,3.665-6.301c1.198-2.217,2.189-4.58,2.193-7.145c0.002-1.381-0.299-2.809-0.99-4.23
		c-0.691-1.424-1.765-2.84-3.289-4.254c-1.55-1.434-2.964-2.787-4.629-3.813c-1.662-1.027-3.595-1.686-5.984-1.68
		c-1.135,0-2.371,0.143-3.744,0.443c-1.649,0.359-3.385,0.533-5.175,0.533c-6.896,0.006-14.607-2.59-21.27-6.73
		c-6.667-4.133-12.274-9.807-15.062-15.797c-4.066-8.73-10.204-15.031-18.173-19.887c-3.063-1.869-5.355-3.983-6.875-6.279
		c-1.52-2.3-2.282-4.776-2.285-7.475c0-2.708,0.781-5.655,2.439-8.816c2.657-5.063,3.554-10.157,3.552-15.165
		c-0.005-7.207-1.821-14.261-2.909-21.108c-0.442-2.755-1.507-5.528-3.343-7.672c-0.919-1.069-2.035-1.979-3.353-2.615
		c-1.316-0.638-2.831-0.998-4.511-0.997c-1.269,0-2.631,0.203-4.084,0.635c-0.907,0.27-1.646,0.382-2.225,0.381
		c-0.67-0.002-1.118-0.139-1.464-0.347c-0.26-0.159-0.475-0.366-0.671-0.648c-0.293-0.42-0.53-1.019-0.703-1.751
		c-0.141-0.59-0.235-1.276-0.315-1.997c4.512-3.813,9.023-7.627,13.535-11.44c3.15-0.313,6.216-0.891,8.86-2.308
		c2.735-1.456,4.973-3.872,6.164-7.579c0.248-0.765,0.519-1.467,0.81-2.109c0.871-1.929,1.925-3.326,3.108-4.291
		c1.58-1.285,3.415-1.863,5.604-1.868c1.964-0.001,4.198,0.489,6.631,1.404c2.741,1.032,5.416,1.563,8.022,1.563
		c4.29,0.005,8.36-1.468,12.154-4.342c8.23,1.519,16.474,3.508,24.896,4.391c1.54,0.162,3.082,0.256,4.613,0.257
		c3.42-0.001,6.789-0.473,9.919-1.751c3.129-1.274,6.005-3.367,8.388-6.521c0.718-0.954,1.188-2.063,1.602-3.172
		c0.611-1.663,1.112-3.35,1.835-4.503c0.358-0.579,0.754-1.016,1.22-1.31c0.468-0.293,1.019-0.473,1.81-0.476
		c0.653,0,1.467,0.133,2.467,0.463c3.634,1.191,7.324,2.467,10.271,4.472c1.475,1.002,2.764,2.179,3.798,3.621
		c1.033,1.442,1.818,3.152,2.267,5.261c1.032,4.866,1.621,9.923,1.621,14.884c0,0.201-0.001,0.403-0.003,0.604
		c-0.003,0.254-0.004,0.507-0.004,0.759c0.003,3.582,0.258,6.98,1.586,9.974c0.499,1.12,1.152,2.178,1.992,3.145
		c0.28,0.322,0.581,0.635,0.903,0.936c1.289,1.205,2.92,2.228,4.949,3.046c1.849,0.751,3.09,1.971,3.932,3.539
		c0.838,1.566,1.244,3.497,1.28,5.555c0.022,1.225,0.129,2.448,0.166,3.672c0.114,3.669,0.338,7.331,0.338,10.963
		c0,0.036,0,0.072,0,0.109c0,6.842-0.629,13.566-2.945,20.055c-2.021,5.663-3,11.073-2.999,16.257
		c-0.001,12.859,5.778,24.226,14.854,34.707c-0.425,1.611-1.275,2.707-2.416,3.621c-1.248,0.988-2.872,1.709-4.541,2.383
		c-3.277,1.332-5.907,3.102-7.717,5.473c-1.813,2.369-2.757,5.318-2.751,8.814C670.485,540.504,670.509,541.092,670.558,541.695z
		 M504.44,436.667c-0.914,1.037-1.405,2.404-1.401,3.887c0,0.985,0.21,2.023,0.632,3.08c0.679,1.698,0.964,3.139,0.964,4.375
		c-0.001,1.095-0.22,2.033-0.613,2.895c-0.59,1.287-1.6,2.416-2.939,3.465c-1.338,1.048-2.993,2.004-4.794,2.946
		c-4.819,2.528-8.571,6.202-12.623,9.4c-4.057,3.205-8.362,5.945-14.344,6.855c-3.202,0.478-5.677,2.202-7.27,4.565
		c-1.6,2.362-2.365,5.334-2.366,8.429c0.003,4.507,1.624,9.317,4.896,12.983c2.901,3.242,5.071,6.189,6.501,8.889
		c1.431,2.701,2.12,5.139,2.12,7.41c-0.004,2.686-0.944,5.201-2.972,7.797c-2.026,2.59-5.154,5.215-9.421,7.949
		c-4.362,2.801-8.383,5.428-11.469,9.039c-3.089,3.609-5.167,8.213-5.624,14.693c-0.268,3.781-1.714,8.047-4.42,11.297
		c-1.353,1.629-3.014,3.01-5.009,3.986c-1.996,0.977-4.329,1.557-7.06,1.557c-0.639,0-1.3-0.031-1.984-0.098
		c-0.476-0.047-0.933-0.07-1.374-0.07c-1.831-0.002-3.375,0.4-4.645,1.113c-1.911,1.07-3.14,2.783-4.042,4.617
		c-0.903,1.842-1.507,3.844-2.138,5.654c-0.959,2.771-2.12,4.799-3.441,6.088c-1.329,1.285-2.773,1.891-4.604,1.9
		c-1.738,0.002-3.848-0.596-6.34-1.896c-2.62-1.359-5.5-2.617-8.586-2.625c-1.318,0-2.669,0.238-4.005,0.801
		c-1.182,0.494-2.183,0.697-3.043,0.697c-1.24-0.006-2.225-0.4-3.183-1.135c-0.952-0.734-1.839-1.832-2.693-3.15
		c-1.531-2.365-3.504-3.826-5.633-4.867c-2.131-1.047-4.419-1.715-6.75-2.57c-4.253-1.561-8.2-2.244-11.895-2.244
		c-7.798,0-14.404,3.043-20.479,7.039c-6.081,4-11.683,8.963-17.536,12.973c-1.899,1.303-3.697,2.637-5.468,3.619
		c-1.774,0.986-3.493,1.613-5.276,1.611c-1.148,0-2.342-0.252-3.659-0.879c-3.228-1.541-6.378-2.172-9.403-2.17
		c-7.189,0.012-13.601,3.479-19.418,6.34c-5.176,2.557-9.803,3.83-13.849,3.828c-3.83-0.006-7.145-1.115-10.083-3.412
		c-2.935-2.297-5.491-5.826-7.613-10.689c-5.733-13.141-11.753-26.291-20.188-38.148c-1.231-1.717-2.266-3.846-3.83-5.633
		c-0.784-0.891-1.717-1.695-2.877-2.268c-1.16-0.574-2.536-0.904-4.151-0.904c-0.274,0-0.556,0.01-0.845,0.029
		c-0.141,0.01-0.274,0.014-0.401,0.014c-0.62,0-1.058-0.105-1.37-0.252c-0.46-0.223-0.708-0.52-0.912-1.004
		c-0.196-0.48-0.286-1.143-0.284-1.867c-0.001-1.037,0.171-2.178,0.288-3.141c0.117-0.975,0.175-1.904,0.175-2.791
		c0-1.973-0.289-3.74-0.87-5.295c-0.868-2.334-2.417-4.172-4.493-5.434c-2.076-1.268-4.653-1.984-7.65-2.24
		c-1.288-0.109-2.322-0.281-3.125-0.512c-0.602-0.17-1.071-0.373-1.429-0.596c-0.537-0.336-0.835-0.689-1.054-1.174
		c-0.215-0.482-0.33-1.133-0.329-1.986c-0.002-1.191,0.222-2.748,0.557-4.666c1.483-8.535,3.605-16.701,7.408-24.031
		c1.82-3.51,2.729-6.772,2.73-9.804c0.003-2.761-0.767-5.315-2.229-7.59c-1.461-2.277-3.596-4.278-6.315-6.042
		c-2.397-1.553-4.024-3.007-5.023-4.331c-1-1.329-1.379-2.492-1.383-3.604c0-0.741,0.174-1.479,0.517-2.245
		c0.512-1.148,1.416-2.348,2.614-3.567c1.079-1.101,2.397-2.22,3.843-3.355c11.547,5.001,18.965,15.451,21.758,25.943
		c1.715,6.44,4.612,11.876,7.783,16.991c3.172,5.115,6.616,9.918,9.488,15.107c1.186,2.141,2.541,3.723,4.085,4.773
		c1.542,1.053,3.27,1.545,5.06,1.541c2.453-0.004,5.011-0.877,7.701-2.309c8.09-4.316,14.532-10.018,19.835-16.635
		c5.254-6.554,9.395-14.004,12.957-21.918c11.965-9.896,25.279-14.375,39.731-14.381c4.209,0,8.514,0.382,12.908,1.126
		c1.409,0.237,2.728,0.38,3.974,0.381c2.127,0.003,4.075-0.428,5.757-1.542c1.684-1.111,3.045-2.855,4.158-5.309
		c1.719-3.786,3.859-6.672,6.382-8.599c2.526-1.926,5.431-2.929,8.844-2.933c2.245,0,4.71,0.442,7.401,1.381
		c3.616,1.261,7.06,1.935,10.335,1.936c3.593,0.002,6.982-0.819,10.107-2.544c3.126-1.722,5.979-4.333,8.569-7.869
		c5.394-7.346,12.964-11.341,22.098-12.339c4.485-0.484,8.291-1.918,11.275-4.357c2.986-2.437,5.113-5.856,6.322-10.168
		c0.738-2.624,1.763-4.273,2.943-5.264c1.182-0.987,2.564-1.4,4.284-1.406c0.992-0.001,2.095,0.162,3.269,0.43
		c0.782,0.179,1.591,0.395,2.439,0.669c5.221,1.682,10.458,3.413,15.766,4.919c1.769,0.501,3.546,0.979,5.334,1.42
		c3.809,0.941,7.692,1.392,11.542,1.392c9.584-0.002,18.966-2.782,26.519-7.742c7.077-4.647,12.557-11.236,14.994-19.247
		c0.162-0.534,0.312-1.074,0.446-1.621c0.471-1.901,1.361-3.526,2.57-4.963c0.996-1.182,2.219-2.224,3.58-3.158
		c0.714,1.386,1.162,2.823,1.426,4.324c0.32,1.83,0.382,3.746,0.382,5.706c0,0.817-0.011,1.642-0.016,2.472
		c-0.01,1.54-0.039,3.095-0.039,4.653c0.001,3.24,0.124,6.498,0.832,9.683c0.644,2.896,1.793,5.73,3.757,8.378
		c-4.484,3.79-8.969,7.581-13.453,11.371l-0.399,0.338l0.014,0.14c-2.087,2.775-3.626,5.88-5.581,8.408
		c-1.013,1.315-2.128,2.475-3.474,3.387c-1.347,0.911-2.927,1.586-4.929,1.918C506.661,434.936,505.352,435.627,504.44,436.667z
		 M15.487,524.035c-0.558,0.086-1.155,0.137-1.747,0.137c-1.245,0.006-2.45-0.24-3.235-0.754c-0.396-0.256-0.813-0.563-1.031-0.965
		C9.258,522.051,9,521.537,9,520.838v-0.041v-0.174c0-2.703-0.382-5.957-0.378-8.828c-0.006-1.977,0.304-3.738,0.966-4.928
		c0.331-0.598,0.776-1.063,1.342-1.422c0.566-0.355,1.316-0.611,2.313-0.703c4.783-0.436,8.682-1.58,11.87-3.307
		c4.789-2.59,7.946-6.48,10.194-11.011c2.252-4.535,3.643-9.724,4.976-15.08c0.117-0.488,0.471-1.048,0.965-1.652
		c0.272-0.337,0.581-0.689,0.894-1.059c1.091,1.108,2.181,2.216,3.271,3.323l0.47,0.477l0.183-0.075
		c1.77,0.895,3.178,2.149,4.425,3.662c2.001,2.423,3.571,5.464,5.598,8.272c2.021,2.803,4.574,5.397,8.515,6.68
		c0.558,0.182,0.854,0.393,0.984,0.541c0.128,0.152,0.152,0.232,0.159,0.412c0.002,0.178-0.066,0.461-0.236,0.797
		c-0.25,0.504-0.706,1.1-1.219,1.648c-0.513,0.551-1.079,1.063-1.543,1.453C48.791,511.59,33.786,521.199,15.487,524.035
		L15.487,524.035z M53.35,451.951c-1.146,0.095-2.485,0.102-3.792,0.521c-0.652,0.212-1.301,0.542-1.863,1.057
		c-0.563,0.513-1.02,1.203-1.324,2.056c-0.231,0.643-0.346,1.26-0.346,1.848c-0.005,1.238,0.528,2.271,1.205,3.075
		c0.68,0.813,1.505,1.473,2.29,2.145c1.497,1.276,2.514,2.402,3.134,3.361c0.623,0.963,0.845,1.734,0.845,2.363
		c-0.003,0.564-0.168,1.058-0.517,1.578c-0.519,0.775-1.494,1.561-2.77,2.291c-1.11,0.639-2.44,1.24-3.845,1.826
		c-1.033-1.048-2.066-2.098-3.1-3.147c1.363-2.912,2.019-5.644,2.018-8.23c0.002-3.001-0.874-5.782-2.392-8.381
		c-1.519-2.603-3.671-5.038-6.268-7.443c-3.059-2.832-5.283-5.152-6.705-7.218c-1.424-2.074-2.048-3.838-2.052-5.729
		c-0.001-1.683,0.514-3.53,1.601-5.778c1.084-2.244,2.732-4.865,4.912-8.051c1.897-2.774,3.974-5.504,5.601-8.378
		c1.624-2.871,2.809-5.917,2.81-9.282c0.003-3.005-0.959-6.21-3.245-9.644v0.001c-0.416-0.633-0.551-1.141-0.554-1.616
		c0-0.382,0.093-0.762,0.283-1.173c0.282-0.613,0.792-1.276,1.432-1.945c0.638-0.671,1.396-1.349,2.144-2.039
		c19.43-17.941,38.22-36.438,60.769-50.421c1.971-1.225,3.91-2.633,5.397-4.365c1.485-1.724,2.519-3.828,2.515-6.291
		c0-2.101-0.742-4.395-2.386-6.894c-0.964-1.463-1.333-2.659-1.33-3.561c0.001-0.554,0.127-1.008,0.361-1.426
		c0.35-0.622,0.982-1.182,1.914-1.632c0.927-0.45,2.137-0.777,3.532-0.943c2.172-0.264,4.29-0.63,6.178-1.566
		c1.791-0.883,3.333-2.342,4.334-4.546c2.748-1.359,5.585-2.642,8.33-4.175c5.954-3.324,10.621-5.928,14.381-7.681
		c3.761-1.759,6.605-2.641,8.863-2.634c1.502,0.004,2.76,0.361,4.021,1.138c1.886,1.162,3.769,3.362,5.931,6.769
		c2.148,3.375,4.576,7.912,7.66,13.685c0.816,4.21,1.614,7.558,2.642,10.253c0.781,2.044,1.701,3.722,2.881,5.079
		c1.771,2.045,4.115,3.291,7.143,3.992c3.036,0.707,6.791,1.035,11.643,1.073c1.074,0.008,2.146,0.13,3.218,0.13
		c1.621,0,3.24,0,4.856,0c0.017,0,0.033,0,0.05,0c0.663,1,1.325,1.205,1.987,1.867c1.022,2.963,1.514,5.662,1.514,8.232
		c-0.002,3.558-0.918,6.741-2.673,9.724c-1.756,2.98-4.366,5.711-7.764,8.245c-2.986,2.229-5.694,4.74-8.458,7.097
		c-5.051,4.303-7.645,9.854-7.642,15.384c0,0.73,0.044,1.458,0.134,2.182c0.63,5.073,3.477,9.935,8.441,13.553
		c0.979,0.712,1.878,1.329,2.468,1.876c0.295,0.272,0.509,0.523,0.631,0.728c0.123,0.209,0.16,0.354,0.161,0.502
		c-0.001,0.177-0.059,0.429-0.344,0.831c-0.282,0.396-0.788,0.906-1.564,1.5c-1.193,0.925-3.032,1.726-4.65,2.78
		c-0.809,0.533-1.576,1.142-2.167,1.933c-0.591,0.786-0.98,1.782-0.976,2.912c0,1.004,0.287,2.087,0.874,3.28
		c0.969,1.978,2.208,3.356,3.651,4.207c1.442,0.854,3.042,1.159,4.663,1.158c2.48-0.005,5.066-0.683,7.665-1.324
		c1.681-0.418,3.397-0.637,5.059-0.637c2.811-0.001,5.454,0.627,7.549,1.932c2.095,1.311,3.673,3.264,4.442,6.11
		c0.953,3.546,2.049,6.017,3.384,7.683c0.668,0.831,1.406,1.458,2.211,1.873c0.804,0.416,1.668,0.608,2.531,0.607
		c1.725-0.007,3.415-0.713,5.141-1.737c1.727-1.029,3.504-2.406,5.354-3.891c6.636-5.329,13.602-10.358,20.037-16.065
		c3.219-2.855,6.543-5.197,10.081-6.822c3.539-1.624,7.29-2.538,11.416-2.54c0.811,0,1.642,0.047,2.484,0.12
		c0.235,1.207,0.349,2.378,0.349,3.519c0.002,4.367-1.568,8.375-3.551,12.37c-1.977,3.993-4.36,7.942-5.821,12.209
		c-1.802,5.276-2.614,10.287-2.613,15.125c0,8.544,2.527,16.522,6.453,24.551c-3.496,7.739-7.533,14.971-12.602,21.292
		c-5.162,6.438-11.385,11.939-19.216,16.121c-2.521,1.348-4.798,2.076-6.76,2.072c-1.438-0.004-2.715-0.369-3.936-1.195
		c-1.217-0.826-2.383-2.143-3.46-4.088c-2.948-5.322-6.415-10.152-9.538-15.192c-3.125-5.042-5.907-10.286-7.55-16.452
		c-2.937-11.025-10.725-22.019-22.981-27.302c-1.528-6.6-4.613-12.187-9.06-16.229c-4.558-4.146-10.529-6.648-17.545-7.006
		c-6.5-0.333-13.013-0.465-19.525-0.465c-7.79,0-15.579,0.188-23.347,0.446c-4.964,0.165-9.105,2.239-12.962,4.638
		c-3.861,2.405-7.487,5.146-11.424,6.857c-4.992,2.18-10.469,3.509-15.812,5.44c-5.337,1.932-10.561,4.495-14.909,9.2
		c-0.286,0.313-0.762,0.566-1.461,0.732c-0.693,0.165-1.579,0.232-2.56,0.23c-2.037,0.003-4.466-0.276-6.707-0.278
		C54.347,451.897,53.841,451.913,53.35,451.951z M218.572,168.011l-0.012-0.22c0.001-0.23,0.041-0.391,0.101-0.528
		c0.104-0.232,0.297-0.44,0.662-0.653c0.54-0.318,1.421-0.56,2.385-0.746c0.967-0.192,2.008-0.341,2.951-0.595
		c3.774-1.024,6.885-2.989,9.462-5.433c2.58-2.445,4.639-5.366,6.367-8.35c0.782-1.349,1.133-2.834,1.131-4.32
		c-0.01-3.339-1.702-6.68-4.207-9.236c-2.511-2.547-5.885-4.346-9.443-4.354c-0.281,0-0.563,0.012-0.846,0.035
		c-3.728,0.314-7.301,1.231-10.826,1.655c-2.78,0.336-5.632,0.461-9.275,0.703c1.027-3.89,2.413-7.281,4.412-10.077
		c2.226-3.11,5.192-5.52,9.395-7.155c1.437-0.563,3.161-1.063,4.677-1.98c0.756-0.46,1.466-1.038,2.022-1.801
		c0.558-0.761,0.943-1.705,1.072-2.806c0.037-0.308,0.051-0.616,0.051-0.925c-0.001-1.021-0.16-2.048-0.306-3.036
		c-0.149-0.985-0.286-1.931-0.284-2.73c0-0.469,0.046-0.884,0.144-1.228c0.155-0.519,0.38-0.873,0.841-1.197
		c0.464-0.32,1.231-0.598,2.448-0.697c4.736-0.387,9.495-0.995,14.166-0.994c4.438,0,8.784,0.544,12.994,2.307
		c0.065,0.023,0.237,0.141,0.416,0.355c0.272,0.317,0.493,0.824,0.689,1.345c0.2,0.52,0.24,1.064,0.24,1.411v0.022
		c0,1.114-0.248,2.404-0.577,3.751c-0.324,1.351-0.641,2.759-0.644,4.197c-0.002,1.108,0.241,2.257,0.895,3.3
		c0.652,1.045,1.708,1.941,3.193,2.655c2.432,1.171,5.044,2.585,7.745,3.72c2.702,1.131,5.511,1.994,8.369,1.996
		c1.454,0,2.92-0.228,4.36-0.761c3.004-1.113,5.667-1.627,8.061-1.627c3.025,0.003,5.63,0.809,8.049,2.345
		c2.416,1.537,4.639,3.829,6.77,6.804l-0.004-0.007c1.546,2.195,3.226,4.287,5.26,6c2.015,1.699,4.395,3.016,7.274,3.646
		l0.006,0.001c3.5,0.994,7.017,1.732,10.261,2.969c3.203,1.218,6.075,3.042,8.113,5.307c2.04,2.271,3.252,4.942,3.255,7.994
		c0,0.212-0.006,0.427-0.018,0.644c-0.066,1.157-0.331,2.122-0.752,2.952c-0.141,0.277-0.298,0.539-0.472,0.787
		c-1.039,1.486-2.714,2.536-4.776,3.228c-2.056,0.691-4.466,1.009-6.837,1.082c-1.109,0.034-2.232,0.042-3.363,0.061
		c-0.514-0.269-1.03-0.534-1.549-0.787c-4.192-2.042-8.561-3.515-13.125-3.518c-2.68-0.001-5.418,0.516-8.173,1.713
		c-4.769,2.072-9.709,2.95-14.735,3.486c-5.024,0.538-10.127,0.729-15.186,1.476c-7.024,1.04-13.676,4.136-20.156,7.832
		c-6.479,3.7-12.795,8.011-19.11,11.551c-0.7,0.394-1.223,0.977-1.641,1.617c-0.626,0.965-1.05,2.088-1.452,3.199
		c-0.343,0.958-0.668,1.897-1.026,2.697c-4.834,1.578-9.715,2.086-14.875,2.086c-3.951,0-8.077-0.296-12.429-0.616
		c3.181-4.386,7.314-8.049,10.864-12.042c1.96-2.21,3.738-4.532,5.033-7.165c1.294-2.63,2.093-5.576,2.091-8.956
		C218.699,169.627,218.658,168.832,218.572,168.011z M341.115,85.117c0.472-0.395,0.927-0.583,1.514-0.588
		c0.589-0.001,1.365,0.218,2.352,0.853c0.984,0.631,2.156,1.669,3.496,3.206c0.432,0.491,1.018,0.969,1.626,1.372
		c0.305,0.2,0.611,0.376,0.919,0.516c0.314,0.135,0.604,0.253,1.027,0.263c0.199-0.001,0.457-0.034,0.724-0.202
		c3.306-2.104,6.402-2.859,9.472-2.863c4.383-0.005,8.742,1.6,13.202,3.274c4.437,1.655,8.975,3.375,13.803,3.397l-0.042,0.216
		l1.438-0.263c1.957-0.358,3.813-0.524,5.584-0.524c1.721,0.001,3.364,0.157,4.942,0.449c0.07,0.013,0.138,0.03,0.208,0.043
		c0.323,0.063,0.645,0.127,0.962,0.2c2.685,0.622,5.181,1.636,7.557,2.935c0.018,0.01,0.037,0.019,0.055,0.029
		c0.166,0.091,0.331,0.188,0.496,0.283c1.192,0.679,2.357,1.426,3.499,2.234c3.246,2.299,6.302,5.063,9.335,7.945
		c1.658,1.575,3.309,3.183,4.979,4.771c-1.142,2.845-1.984,5.732-3.076,8.44c-1.175,2.917-2.631,5.61-5.057,7.908
		c-4.09,3.875-8.732,7.084-13.411,10.349c-4.678,3.266-9.393,6.587-13.592,10.717c-0.165,0.163-0.427,0.318-0.825,0.431
		c-0.395,0.113-0.916,0.178-1.531,0.177c-1.905,0.005-4.67-0.621-7.675-1.676c-4.515-1.578-9.614-4.098-13.607-6.704
		c-1.996-1.301-3.717-2.626-4.94-3.837c-0.611-0.604-1.097-1.179-1.431-1.688c-0.335-0.509-0.509-0.949-0.551-1.258
		c-0.057-0.389-0.083-0.762-0.083-1.124c0.001-1.502,0.447-2.83,1.159-4.147c0.71-1.314,1.689-2.595,2.686-3.926
		c3.306-4.425,5.822-9.413,6.097-15.124c0.008-0.169,0.012-0.336,0.012-0.501c0.006-2.205-0.746-4.105-2.08-5.489
		c-1.331-1.387-3.186-2.25-5.325-2.617c-0.416-0.071-0.825-0.107-1.226-0.107c-1.244,0-2.42,0.347-3.313,1.105
		c-0.898,0.752-1.435,1.927-1.425,3.26c0,0.282,0.022,0.573,0.066,0.871c0.13,0.876,0.191,1.688,0.191,2.44
		c0,0.534-0.031,1.038-0.088,1.517c-0.172,1.435-0.588,2.635-1.184,3.702c-0.445,0.798-1,1.525-1.642,2.204
		c-1.07,1.131-2.381,2.129-3.824,3.099c-2.303,1.552-4.918,3.015-7.268,4.916c-1.955,1.585-4.21,2.688-6.62,3.605
		c-3.612,1.38-7.556,2.324-11.216,3.954c-3.443,1.53-6.647,3.753-8.913,7.516c-2.25-0.599-4.136-1.646-5.806-3.048
		c-1.785-1.5-3.329-3.393-4.79-5.454c-0.288-1.438-0.451-2.67-0.45-3.727c0.011-1.81,0.418-3.099,1.489-4.449
		c1.077-1.346,2.91-2.725,5.74-4.337c4.72-2.696,10.107-5.725,14.586-9.937c4.478-4.205,8.044-9.654,8.978-17.029
		c0.253-2.016,0.74-4.198,1.505-5.771C340.204,86.137,340.649,85.512,341.115,85.117z M418.829,79.792
		c1.065,1.476,2.068,3.203,3.388,4.633c0.662,0.713,1.413,1.355,2.307,1.821c0.892,0.467,1.927,0.745,3.081,0.743
		c0.804,0,1.663-0.131,2.584-0.403c6.081-1.802,12.713-1.94,19.298-2.817c6.575-0.879,13.156-2.54,18.922-7.545
		c5.35-4.646,11.814-8.21,18.111-11.923c2.329-1.375,4.891-2.01,7.316-2.01c1.973,0,3.851,0.422,5.424,1.189
		c1.574,0.768,2.838,1.871,3.64,3.236c3.459,5.892,7.814,9.851,12.777,12.56c4.521,2.47,9.532,3.912,14.857,4.946
		c-6.184,8.561-8.938,17.206-9.543,25.812c-0.091,1.292-0.134,2.582-0.133,3.872c0.01,15.105,5.873,30.038,10.276,44.8
		c0.341,1.128,0.915,2.137,1.367,3.058c0.173,0.343,0.314,0.664,0.436,0.972c0.203,0.517,0.333,0.982,0.326,1.35
		c-0.003,0.324-0.067,0.586-0.253,0.891c-0.187,0.302-0.522,0.652-1.109,1.027c-2.69,1.715-4.524,3.653-5.664,5.759
		c-1.143,2.104-1.577,4.351-1.576,6.621c0.001,1.275,0.135,2.562,0.354,3.854c0.343,2.022,0.897,4.061,1.486,6.1
		c-1.389,2.481-1.952,4.924-1.949,7.271c0.002,2.754,0.738,5.362,1.661,7.881c0.817,2.223,1.771,4.384,2.558,6.521
		c-2.095,0.899-3.898,1.309-5.418,1.307c-1.081,0-2.022-0.201-2.871-0.58c-1.268-0.569-2.354-1.553-3.301-3.006
		c-0.943-1.449-1.726-3.36-2.339-5.684c-1.77-6.698-3.646-13.413-6.01-19.958c-0.863-2.356-1.197-5.403-2.324-8.113
		c-0.568-1.353-1.362-2.64-2.573-3.648c-1.208-1.011-2.811-1.707-4.86-1.963c-0.549-0.069-1.075-0.103-1.581-0.103
		c-1.68-0.002-3.135,0.38-4.369,1.039c-1.857,0.99-3.188,2.553-4.307,4.241c-1.119,1.692-2.042,3.535-3.038,5.196
		c-0.485,0.814-1.187,1.835-1.911,2.604c-0.36,0.384-0.727,0.703-1.045,0.903c-0.319,0.205-0.573,0.273-0.708,0.27l-0.184-0.04
		c-0.091-0.042-0.234-0.142-0.415-0.408c-0.179-0.263-0.379-0.684-0.559-1.282c-0.859-2.85-2.038-4.858-3.487-6.205
		c-0.207-0.192-0.42-0.371-0.638-0.537c-1.743-1.33-3.754-1.75-5.726-1.746c-3.127,0.01-6.304,0.98-9.023,1.259
		c-3.531,0.382-6.75,1.304-9.715,1.295c-1.463-0.001-2.858-0.211-4.251-0.789c-1.393-0.579-2.798-1.531-4.255-3.083
		c-1.597-1.707-3.709-2.45-5.74-2.445c-1.871,0.002-3.695,0.604-5.154,1.653c-1.454,1.046-2.561,2.575-2.838,4.419
		c-0.447,2.991-1.213,5.276-2.198,7.018c-1.485,2.608-3.43,4.042-5.806,4.904c-2.374,0.854-5.193,1.076-8.215,1.073
		c-1.929,0-3.941-0.084-5.968-0.131c-0.885-1.493-1.4-3.047-1.681-4.684c-0.231-1.346-0.313-2.744-0.338-4.175
		c-0.008-0.477-0.011-0.958-0.011-1.442c0-0.604,0.004-1.213,0.004-1.825c0-0.453-0.004-0.909-0.012-1.365
		c2.559-5.008,5.809-8.874,9.808-11.832c4.055-2.997,8.891-5.07,14.576-6.399c4.512-1.064,8.61-4.261,11.631-8.082
		c1.51-1.914,2.749-3.992,3.618-6.071c0.868-2.08,1.371-4.161,1.373-6.104c0.004-2.024-0.567-3.938-1.917-5.371
		c-5.224-5.535-8.917-12.309-14.382-17.934l0.017-0.041l-0.496-0.469l-1.041-1.035l-0.013,0.031
		c-0.258-0.246-0.516-0.49-0.773-0.737c-4.239-4.071-8.474-8.273-13.201-11.626c-0.819-0.582-1.657-1.133-2.511-1.658
		c-1.957-1.202-4.007-2.244-6.18-3.05c-0.342-0.127-0.689-0.246-1.038-0.361c-0.048-0.016-0.095-0.034-0.144-0.05
		c-2.787-0.905-5.772-1.424-9.005-1.423c-1.554,0-3.167,0.127-4.837,0.378c-0.06-0.26-0.14-0.512-0.229-0.76
		c-0.278-0.759-0.658-1.497-0.952-2.147c-0.147-0.324-0.272-0.624-0.353-0.872c-0.083-0.247-0.114-0.442-0.112-0.53
		c0.088-0.032,0.302-0.085,0.661-0.082c0.133,0,0.285,0.006,0.455,0.02c0.245,0.019,0.485,0.028,0.723,0.028
		c2.355,0.004,4.344-0.942,6.019-2.256c2.518-1.977,4.483-4.782,6.513-7.017c1.01-1.119,2.027-2.09,3.077-2.76
		c1.055-0.671,2.116-1.047,3.328-1.05c1.596-0.001,3.563,0.678,6.078,2.605C417.395,77.94,418.122,78.807,418.829,79.792z
		 M762.233,188.348c-1.465,3.749-2.3,7.302-2.3,11c0,2.354,0.338,4.759,1.047,7.296c1.729,6.188,3.525,12.361,3.522,18.579
		c-0.001,3.164-0.459,6.34-1.622,9.571c-0.378,1.046-0.559,2.067-0.559,3.047c-0.002,1.789,0.607,3.414,1.579,4.811
		c0.929,1.338,2.185,2.485,3.599,3.492c0.343,0.602,0.686,1.203,1.021,1.801c1.108,1.975,2.156,3.925,2.983,5.831
		c0.759,1.742,1.322,3.44,1.604,5.08c0.13,0.751,0.207,1.492,0.206,2.216c-0.004,1.989-0.504,3.876-1.762,5.763
		c-1.26,1.883-3.308,3.769-6.439,5.604c-0.539,0.318-0.918,0.779-1.211,1.269c-0.437,0.74-0.707,1.584-0.935,2.426
		c-0.225,0.84-0.398,1.681-0.576,2.368c-1.433,5.611-2.804,9.339-4.612,11.529c-0.905,1.1-1.897,1.839-3.134,2.336
		c-1.236,0.496-2.738,0.74-4.618,0.74c-1.991,0-4.396-0.276-7.294-0.783c-3.619-0.63-7.313-0.89-10.954-1.219
		c-2.185-0.198-4.349-0.42-6.467-0.763c-5.507-0.892-10.65-2.563-15.133-6.603c0.101-1.042,0.214-2.112,0.336-3.212
		c0.423-3.824,0.901-7.936,0.903-11.857c0,0,0,0,0,0l0,0c-0.001-2.051-0.131-4.054-0.48-5.945c-0.209-1.134-0.498-2.229-0.885-3.269
		c-1.026-2.77-2.803-5.162-5.586-6.708c-3.501-1.954-5.742-3.844-7.087-5.688c-0.168-0.231-0.322-0.461-0.465-0.691
		c-0.994-1.609-1.376-3.2-1.382-4.94c-0.009-2.949,1.194-6.34,2.665-10.3c0.814-2.206,1.266-4.232,1.268-6.083
		c0-1.193-0.191-2.315-0.608-3.336c-0.622-1.536-1.764-2.812-3.347-3.726c-1.586-0.919-3.602-1.508-6.086-1.8
		c-5.498-0.645-10.44-2.518-15.144-5.026c-4.701-2.507-9.155-5.649-13.645-8.795l-0.654-0.458l-0.021,0.019
		c-0.758-0.461-1.56-0.86-2.229-1.263c-0.437-0.26-0.812-0.52-1.062-0.754c-0.254-0.236-0.363-0.428-0.393-0.548
		c-1.041-3.995-2.738-6.646-4.95-8.254c-0.276-0.201-0.56-0.385-0.848-0.553c-2.019-1.175-4.318-1.561-6.683-1.559
		c-2.801,0.002-5.746,0.526-8.674,1.011c-4.771,0.796-9.506,2.006-14,2.001c-3.999-0.01-7.768-0.934-11.425-3.901
		c1.171-3.816,3.11-6.272,5.723-8.042c2.757-1.86,6.319-2.934,10.445-3.747c1.011-0.2,1.985-0.409,2.925-0.626
		c6.579-1.526,11.443-3.515,14.831-6.402c1.932-1.648,3.36-3.601,4.284-5.866c0.925-2.266,1.35-4.829,1.35-7.725
		c-0.001-3.715-0.694-7.986-1.96-12.967c-0.434-1.698-0.614-3.538-0.892-5.419c7.437-6.934,13.949-15.458,16.791-24.61
		c0.119-0.386,0.239-0.753,0.359-1.1c0.844-2.428,1.723-3.909,2.662-4.752c0.54-0.487,1.103-0.794,1.777-1
		c0.674-0.204,1.467-0.295,2.413-0.295c0.938,0,2.022,0.089,3.264,0.227c10.497,1.154,21.062,2.248,31.653,2.536
		c0.854,0.023,1.725,0.043,2.601,0.043c1.235-0.003,2.482-0.041,3.704-0.172c2.034-0.219,3.996-0.7,5.71-1.717
		c1.024-0.61,1.944-1.426,2.691-2.47c0.249-0.348,0.479-0.721,0.687-1.121c0.834-1.598,1.324-3.593,1.42-6.066
		c0.021-0.549,0.122-0.956,0.258-1.254c0.209-0.444,0.471-0.686,0.894-0.887c0.421-0.195,1.021-0.302,1.745-0.3l0.146,0.001
		c0.896,0.018,1.654,0.21,2.298,0.544c0.215,0.111,0.417,0.238,0.606,0.38c0.757,0.568,1.337,1.387,1.7,2.46
		c1.072,3.175,2.242,5.387,3.578,6.87c0.668,0.74,1.385,1.294,2.146,1.661c0.76,0.368,1.561,0.539,2.351,0.538
		c1.016,0,2.004-0.273,2.957-0.705c1.431-0.651,2.803-1.663,4.157-2.82c1.353-1.158,2.683-2.467,3.979-3.728
		c0.561-0.545,1.106-0.895,1.639-1.465c3.56-3.82,6.43-8.105,8.191-13.105c0.017,0,0.034,0,0.052,0c4.463,0,8.011,0.969,10.944,3.11
		c2.931,2.144,5.26,5.194,7.112,9.228c3.122,6.815,7.424,12.131,14.158,16.665c1.815,1.225,2.997,2.501,3.736,3.843
		c0.738,1.343,1.047,2.728,1.048,4.202c0.003,2.159-0.688,4.474-1.725,6.775c-1.032,2.301-2.397,4.569-3.68,6.653
		C779.961,152.499,769.589,169.524,762.233,188.348z M676.991,299.368c-1.442-0.749-2.774-1.11-4.014-1.11
		c-1.279-0.003-2.431,0.396-3.399,1.036c-1.459,0.963-2.55,2.415-3.517,3.981c-0.964,1.569-1.8,3.274-2.646,4.791
		c-2.743,4.931-5.305,8.464-7.907,10.717c-2.611,2.25-5.203,3.259-8.298,3.269c-3.582,0.007-7.911-1.447-13.364-4.287
		c-0.822-1.744-1.229-3.328-1.228-4.709c0.004-1.441,0.407-2.675,1.249-3.799c0.845-1.12,2.161-2.132,4.023-2.972
		c0.438-0.198,0.86-0.401,1.269-0.611c2.858-1.468,4.993-3.236,6.455-5.294c1.672-2.349,2.427-5.056,2.423-7.954
		c-0.001-2.368-0.49-4.87-1.359-7.493c-0.055-0.165-0.116-0.333-0.174-0.498c1.382-1.266,2.416-2.528,3.104-3.803
		c0.772-1.43,1.124-2.878,1.122-4.287c-0.002-2.155-0.794-4.172-1.918-6.08c-1.128-1.91-2.604-3.736-4.088-5.533
		c-1.973-2.386-3.784-4.729-5.081-7.019c-1.3-2.292-2.074-4.512-2.072-6.676c0.003-1.652,0.436-3.297,1.495-5.03
		c1.061-1.73,2.765-3.542,5.302-5.417c0.88-0.651,1.654-1.398,2.33-2.216c1.127-1.363,1.622-2.925,2.245-4.57
		c0.997-2.636,1.057-5.499,1.057-8.218v-0.041v-0.005v-0.006v-0.003v-0.004v-0.001v-0.056c0-4.489,1.269-8.404,2.966-11.938
		c1.594-3.315,4.079-6.296,7.015-9.066c4.267,2.989,8.662,5.996,13.271,8.455c4.849,2.587,10.088,4.568,15.898,5.248
		c3.068,0.357,5.174,1.201,6.441,2.337c0.638,0.57,1.1,1.212,1.405,1.957c0.303,0.745,0.464,1.6,0.465,2.581
		c0.001,1.519-0.38,3.334-1.141,5.389c-1.459,3.967-2.778,7.513-2.788,10.993c-0.006,2.339,0.643,4.645,2.233,6.812
		c1.589,2.171,4.07,4.212,7.728,6.255c0.873,0.49,1.622,1.066,2.266,1.724c1.071,1.095,1.849,2.416,2.421,3.938
		c0.909,2.431,1.241,5.37,1.239,8.515c0.002,3.762-0.468,7.804-0.892,11.638c-0.124,1.124-0.241,2.225-0.345,3.3
		c-1.778,1.351-3.733,2.615-5.632,3.979c-2.017,1.451-3.966,3.02-5.522,4.98c-2.037,2.569-3.968,4.837-6.003,6.421
		c-2.043,1.585-4.134,2.496-6.676,2.501C682.292,301.489,679.893,300.874,676.991,299.368z M587.768,389.244
		c-3.458,2.563-6.998,3.8-10.767,3.805c-0.583,0-1.173-0.029-1.769-0.089c-1.788-0.179-3.635-0.626-5.55-1.346
		c-2.587-0.973-5.041-1.532-7.335-1.533c-2.546-0.006-4.913,0.715-6.869,2.318c-1.959,1.602-3.481,4.027-4.555,7.333
		c-1.072,3.265-2.87,5.167-5.208,6.435c-2.202,1.188-4.93,1.749-7.871,2.054c-1.911-2.48-3.007-5.119-3.63-7.909
		c-0.657-2.946-0.785-6.06-0.784-9.248c0-1.533,0.029-3.084,0.039-4.641c0.005-0.821,0.016-1.65,0.016-2.484
		c0-0.5-0.004-1.002-0.016-1.506c-0.033-1.51-0.132-3.03-0.396-4.545c-0.265-1.513-0.698-3.022-1.398-4.49
		c-0.202-0.425-0.438-0.843-0.688-1.26c-0.474-2.557-0.896-4.989-0.894-7.276c0.001-1.828,0.262-3.558,0.958-5.234
		c0.697-1.676,1.832-3.315,3.654-4.952c1.623-1.451,2.608-3.181,3.158-4.996c0.553-1.817,0.692-3.719,0.693-5.616
		c-0.001-2.314-0.209-4.635-0.208-6.803c0-0.382,0.015-0.753,0.029-1.124c1.073-0.904,2.015-2.079,2.832-3.474
		c2.73-4.688,4.218-11.743,4.227-18.678c-0.002-4.59-0.665-9.114-2.145-12.858c-0.018-0.316-0.029-0.629-0.029-0.934
		c0.002-2.635,0.626-4.84,1.795-6.819c1.17-1.978,2.906-3.735,5.17-5.371c7.485-5.4,12.265-12.835,14.697-21.605
		c4.383,4.084,8.867,7.969,13.751,10.931c5.337,3.237,11.179,5.367,17.812,5.365c3.362,0,6.921-0.546,10.707-1.75
		c1.249-0.397,2.528-0.621,3.734-0.62c1.423,0,2.732,0.306,3.833,0.971c1.099,0.668,2.021,1.69,2.671,3.276
		c1.138,2.789,2.42,4.83,3.919,6.215c1.492,1.387,3.246,2.074,5.067,2.065c1.503-0.001,3.028-0.438,4.581-1.185
		c1.554-0.748,3.145-1.811,4.795-3.118c2.542-2.013,5.556-3.047,8.848-3.339c0.896,2.606,1.396,5.032,1.395,7.217
		c-0.004,2.563-0.642,4.801-2.054,6.796c-1.415,1.992-3.644,3.762-6.915,5.239c-2.084,0.94-3.697,2.133-4.798,3.591
		c-1.102,1.454-1.657,3.172-1.652,5.003c0.001,1.569,0.412,3.223,1.146,4.938c-3.456,1.583-6.757,3.277-9.482,5.719
		c-2.964,2.647-5.198,6.212-6.084,11.248c-0.251,1.403-0.827,2.547-1.652,3.575c-1.235,1.539-3.066,2.79-5.091,3.957
		c-2.021,1.17-4.219,2.254-6.158,3.564c-6.51,4.41-11.146,8.114-14.204,12.098c-3.063,3.979-4.471,8.27-4.46,13.503
		C584.637,376.461,585.777,382.085,587.768,389.244z M518.756,388.784c-2.727,4.974-6.814,9.186-11.768,12.441
		c-4.207,2.765-9.037,4.823-14.158,6.063c-1.454,0.352-2.929,0.644-4.423,0.859c-0.074,0.011-0.149,0.018-0.224,0.028
		c-2.18,0.304-4.392,0.464-6.615,0.464c-3.694,0-7.417-0.432-11.063-1.333c-7.046-1.741-13.991-4.054-20.965-6.302
		c-2.23-0.718-4.341-1.192-6.321-1.194c-2.044-0.006-3.985,0.535-5.571,1.875c-1.588,1.337-2.776,3.387-3.582,6.254
		c-1.126,3.997-3.031,7.008-5.662,9.16c-2.633,2.15-6.03,3.462-10.224,3.918c-9.59,1.027-17.781,5.332-23.496,13.146
		c-2.456,3.352-5.096,5.742-7.921,7.3c-2.828,1.556-5.849,2.293-9.142,2.295c-2.999,0-6.223-0.62-9.677-1.824
		c-2.863-0.998-5.551-1.492-8.059-1.492c-3.812-0.005-7.207,1.157-10.058,3.344c-2.856,2.184-5.171,5.358-6.989,9.361
		c-1.014,2.229-2.153,3.616-3.438,4.466c-1.288,0.848-2.779,1.208-4.655,1.211c-1.093,0-2.306-0.127-3.64-0.354
		c-3.371-0.57-6.698-0.934-9.978-1.08c-1.093-0.049-2.181-0.073-3.264-0.073c-14.002-0.007-27.099,4.126-38.848,13.115
		c-0.449,0.344-0.893,0.711-1.338,1.068c-3.649-7.626-5.912-15.076-5.913-22.978c0-4.615,0.77-9.394,2.506-14.479
		c1.359-3.991,3.689-7.88,5.72-11.967c2.024-4.085,3.757-8.399,3.759-13.259c0-1.365-0.146-2.771-0.451-4.216
		c4.302-5.622,7.392-11.903,10.559-18.055c3.235-6.291,6.556-12.438,11.285-17.659c2.012-2.215,2.937-4.408,2.934-6.508
		c0-1.904-0.749-3.633-1.845-5.167c-1.1-1.538-2.558-2.918-4.106-4.202c-2.894-2.396-5.092-4.932-6.565-7.649
		c-1.472-2.72-2.232-5.622-2.233-8.825c0-2.28,0.389-4.714,1.203-7.33c0.575-1.844,0.832-3.707,0.832-5.56
		c0-0.668-0.041-1.334-0.104-1.999c-0.013-0.134-0.02-0.27-0.035-0.403c-0.021-0.187-0.052-0.371-0.079-0.557
		c-0.029-0.213-0.054-0.425-0.089-0.637c-0.021-0.125-0.049-0.249-0.072-0.373c-0.341-1.856-0.893-3.688-1.602-5.48
		c-0.375-0.942-0.853-1.926-1.225-2.874c-0.376-0.945-0.631-1.853-0.626-2.545c0-0.324,0.049-0.597,0.146-0.836
		c0.098-0.24,0.241-0.454,0.483-0.673c1.51-1.357,2.578-2.538,3.294-3.618c0.711-1.076,1.087-2.077,1.09-3.049
		c0.001-0.532-0.121-1.042-0.338-1.489c-0.383-0.788-1.016-1.364-1.723-1.826c-1.067-0.69-2.352-1.16-3.63-1.592
		c-1.275-0.427-2.546-0.809-3.513-1.225c-5.368-2.297-9.014-4.004-11.189-5.769c-1.091-0.881-1.814-1.754-2.284-2.735
		c-0.468-0.982-0.697-2.102-0.698-3.525c-0.006-2.601,0.806-6.172,2.226-11.191c0.637-2.264,0.95-4.13,0.952-5.695
		c0-0.978-0.124-1.841-0.389-2.602c-0.389-1.141-1.145-2.038-2.121-2.565c-0.975-0.533-2.114-0.73-3.362-0.731
		c-1.782,0.002-3.826,0.404-6.107,1.032c-7.349,2.028-14.779,2.906-22.335,2.906c-1.213,0-2.429-0.027-3.648-0.071
		c-2.08-1.387-4.159-2.773-6.238-4.16c3.692-4.924,7.417-9.834,11.064-14.81c0.69-0.944,1.563-2.035,2.286-3.204
		c0.716-1.17,1.319-2.43,1.329-3.82c0.002-0.704-0.176-1.436-0.576-2.099c-0.398-0.666-0.997-1.254-1.789-1.766
		c-2.385-1.539-4.951-3.757-7.655-5.622c-1.354-0.933-2.748-1.778-4.196-2.4c-1.447-0.621-2.958-1.02-4.523-1.02
		c-0.913,0-1.84,0.137-2.765,0.438c-4.027,1.312-7.522,1.937-10.525,1.936c-4.877-0.014-8.433-1.593-11.208-4.659
		c-2.714-3.01-4.639-7.567-5.882-13.549c1.007-1.72,2.119-2.71,3.326-3.311c1.281-0.634,2.723-0.84,4.307-0.84
		c2.233-0.004,4.695,0.421,7.164,0.426c0.911,0,1.826-0.061,2.733-0.235c0.721-0.139,1.521-0.184,2.368-0.183
		c1.121,0,2.317,0.077,3.522,0.078c1.748-0.004,3.558-0.155,5.163-1.118c0.797-0.48,1.518-1.166,2.098-2.073
		c0.565-0.882,1.001-1.971,1.308-3.295c0.653-1.366,1.104-2.908,1.627-4.215c0.265-0.669,0.548-1.271,0.852-1.736
		c0.305-0.468,0.622-0.786,0.945-0.966c6.418-3.601,12.737-7.915,19.124-11.558c6.385-3.647,12.828-6.614,19.456-7.591
		c4.914-0.727,9.991-0.92,15.106-1.465c5.113-0.546,10.273-1.449,15.32-3.641c2.506-1.087,4.951-1.546,7.376-1.547
		c4.38-0.003,8.726,1.532,13.015,3.705c-2.196,3.426-5.145,6.118-8.345,8.666c-3.472,2.769-7.22,5.365-10.465,8.617
		c-1.242,1.247-2.27,2.539-2.997,3.914c-0.727,1.373-1.148,2.84-1.147,4.374c-0.002,1.977,0.701,4.018,2.151,6.086
		c1.018,1.45,2.044,3.167,3.34,4.586c0.65,0.709,1.375,1.347,2.223,1.817c0.635,0.352,1.343,0.604,2.11,0.707
		c0.255,0.034,0.517,0.052,0.785,0.052c1.009,0,2.087-0.251,3.234-0.775c1.436-0.655,2.849-1.393,4.175-1.951
		c1.325-0.562,2.557-0.929,3.568-0.924c0.817,0.006,1.48,0.202,2.141,0.728c0.658,0.529,1.325,1.451,1.91,2.971
		c0.472,1.223,0.659,2.203,0.658,2.972c-0.01,1.069-0.321,1.739-0.866,2.345c-0.815,0.905-2.333,1.569-4.054,2.144
		c-1.718,0.588-3.602,1.098-5.172,2.007c-1.204,0.713-2.892,1.209-4.396,2.096c-0.75,0.448-1.731,1.019-2.262,1.816
		c-0.534,0.795-1.101,1.804-1.101,2.979v0.094v-0.004c0,0.796,0.415,1.536,0.663,2.208c0.083,0.225,0.308,0.441,0.413,0.65
		c0.628,1.257,1.664,2.225,2.705,3.04c1.044,0.815,2.208,1.487,3.225,2.126c2.313,1.448,4.402,2.245,6.409,2.249
		c1.698,0.005,3.295-0.604,4.72-1.717c1.433-1.112,2.749-2.707,4.09-4.771c0.974-1.504,1.711-3.231,2.43-4.968
		c1.07-2.604,2.113-5.228,3.624-7.11c0.755-0.944,1.613-1.704,2.657-2.238c1.045-0.532,2.289-0.851,3.869-0.852
		c0.337,0,0.689,0.015,1.057,0.046c0.414,0.035,0.826,0.058,1.24,0.089c1.754,0.133,3.503,0.24,5.22,0.24
		c2.137-0.001,4.231-0.148,6.231-0.571c1.2-0.253,2.365-0.605,3.485-1.084c2.986-1.271,5.614-3.477,7.554-6.951
		c1.104-1.968,1.601-3.815,1.6-5.537c0.001-1.688-0.476-3.229-1.214-4.617c-1.111-2.085-2.789-3.863-4.468-5.555
		c-1.682-1.688-3.373-3.293-4.545-4.914c-1.093-1.505-1.926-2.867-2.474-4.065c-0.55-1.198-0.807-2.226-0.805-3.061
		c0.001-0.594,0.121-1.092,0.36-1.555c0.359-0.689,1.024-1.34,2.152-1.934c1.124-0.591,2.692-1.099,4.72-1.489
		c3.399-0.667,6.701-1.851,9.792-1.84c0.347,0,0.69,0.015,1.031,0.045c1.024,0.091,2.027,0.327,3.03,0.77
		c4.564,2.018,9.211,2.917,13.872,3.309c0.466,0.039,0.932,0.073,1.398,0.103c0.933,0.059,1.865,0.1,2.797,0.128
		c1.399,0.042,2.796,0.056,4.192,0.056c1.631,0,3.258-0.018,4.882-0.029c0.001,0.202,0.005,0.402,0.005,0.605
		c0,0.604-0.003,1.213-0.003,1.825c0,1.962,0.037,3.96,0.377,5.955c0.334,1.956,0.979,3.911,2.167,5.771l0.008,0.016
		c5.371,10.484,6.944,21.546,7.344,32.874c0.092,2.614,0.122,5.242,0.122,7.881c0,3.668-0.058,7.354-0.083,11.045
		c-0.001,0.138-0.001,0.276-0.001,0.415c0,2.85,0.212,5.745,0.953,8.521c0.74,2.774,2.02,5.434,4.136,7.742
		c2.669,2.915,4.677,5.105,5.974,6.876c0.649,0.884,1.118,1.66,1.416,2.354c0.298,0.695,0.43,1.3,0.431,1.899
		c0,0.625-0.145,1.266-0.478,2.013c-0.497,1.119-1.435,2.454-2.84,4.112c-1.403,1.659-3.263,3.644-5.575,6.108
		c-1.612,1.736-2.725,4.446-3.509,7.583c-0.774,3.137-1.18,6.7-1.18,10.095c0.001,2.653,0.247,5.201,0.782,7.374
		c0.544,2.169,1.345,3.992,2.659,5.166c4.621,4.065,9.324,8.128,14.532,11.195c5.204,3.066,10.94,5.132,17.531,5.13
		c1.627,0,3.307-0.132,5.039-0.396c11.354,8.364,24.345,12.648,36.909,12.648c9.689,0.001,19.125-2.553,27.328-7.73
		c3.94,0.788,7.883,1.575,11.823,2.364c2.198,0.734,4.397,1.466,6.597,2.198c-0.008,0.293-0.023,0.584-0.023,0.878
		c0.001,2.29,0.209,4.609,0.208,6.803c0.001,1.798-0.14,3.504-0.606,5.033c-0.47,1.531-1.245,2.889-2.581,4.091
		c-0.503,0.45-0.964,0.907-1.385,1.37c-1.264,1.388-2.169,2.827-2.781,4.303c-0.613,1.476-0.932,2.979-1.052,4.489
		c-0.041,0.504-0.059,1.009-0.059,1.513c0.001,2.365,0.398,4.742,0.837,7.143c-1.63,1.075-3.128,2.31-4.362,3.774
		c-1.379,1.634-2.435,3.55-2.982,5.771C520.954,384.105,519.996,386.523,518.756,388.784z M231.003,432.78
		c-1.572,0.941-2.976,1.462-4.117,1.455c-0.577-0.002-1.096-0.119-1.615-0.385c-0.772-0.397-1.573-1.165-2.36-2.51
		c-0.785-1.341-1.54-3.239-2.221-5.786c-0.88-3.311-2.824-5.749-5.317-7.291c-2.493-1.548-5.503-2.232-8.605-2.233
		c-1.837,0-3.71,0.24-5.541,0.695c-0.651,0.163-1.294,0.323-1.925,0.473c-1.893,0.448-3.679,0.796-5.258,0.792
		c-1.037-0.001-1.972-0.143-2.822-0.478c-0.284-0.111-0.558-0.245-0.823-0.401c-1.06-0.629-2.028-1.653-2.874-3.368
		c-0.491-0.998-0.669-1.782-0.669-2.397c0.005-0.692,0.205-1.204,0.581-1.718c0.561-0.766,1.596-1.467,2.789-2.137
		c1.19-0.677,2.515-1.325,3.639-2.183c0.875-0.672,1.52-1.291,1.974-1.924c0.452-0.627,0.718-1.305,0.717-1.995
		c0.001-0.564-0.18-1.09-0.445-1.528c-0.401-0.662-0.966-1.18-1.593-1.687c-0.63-0.504-1.333-0.99-2.042-1.508
		c-5.222-3.822-7.75-8.948-7.755-14.122c0.002-4.897,2.277-9.884,6.939-13.866c2.805-2.394,5.484-4.881,8.355-7.022
		c3.557-2.653,6.366-5.582,8.291-8.848c1.926-3.262,2.952-6.862,2.95-10.769c0-2.668-0.498-5.482-1.465-8.434
		c2.175-1.505,3.914-3.317,5.349-5.299c2.365-3.268,3.993-6.947,5.752-10.435c1.758-3.492,3.638-6.78,6.413-9.35
		c0.442-0.419,0.67-0.902,0.866-1.37c0.283-0.7,0.478-1.419,0.69-1.873c0.095-0.214,0.19-0.347,0.235-0.392l0.086,0.024
		c0.086,0.033,0.218,0.103,0.387,0.221c2.33,1.626,4.345,2.555,6.228,2.569c0.732,0.001,1.442-0.156,2.076-0.484
		c0.957-0.492,1.699-1.34,2.239-2.423c0.543-1.087,0.912-2.426,1.148-4.04c0.228-1.589,0.972-3.267,1.708-5.034
		c0.728-1.768,1.454-3.641,1.459-5.706c0.006-1.611-0.478-3.315-1.681-4.981c-0.212-0.295-0.411-0.592-0.6-0.891
		c-1.316-2.093-2.071-4.278-2.508-6.562c-0.361-1.885-0.497-3.837-0.545-5.828c-0.019-0.763-0.028-1.53-0.028-2.304
		c0-1.06,0.01-2.127,0.01-3.201c0-0.237-0.004-0.475-0.005-0.713c0.985,0.028,1.971,0.058,2.954,0.058
		c7.71,0,15.328-0.897,22.867-2.979c2.189-0.606,4.101-0.962,5.575-0.959c0.69,0,1.28,0.076,1.759,0.221
		c0.722,0.224,1.181,0.556,1.531,1.095c0.086,0.136,0.166,0.289,0.237,0.461c0.212,0.518,0.345,1.21,0.344,2.122
		c0.001,0.97-0.151,2.175-0.483,3.623c-0.111,0.482-0.241,0.992-0.393,1.529c-1.424,5.066-2.295,8.734-2.301,11.734
		c-0.001,1.637,0.272,3.089,0.894,4.387c0.464,0.974,1.118,1.848,1.946,2.649c0.933,0.901,2.081,1.717,3.468,2.524
		c0.462,0.27,0.951,0.538,1.467,0.809c2.065,1.082,4.576,2.196,7.609,3.497c1.714,0.73,3.854,1.258,5.498,1.963
		c0.819,0.347,1.499,0.737,1.912,1.133c0.208,0.197,0.352,0.389,0.443,0.579c0.09,0.19,0.138,0.379,0.139,0.619
		c0.002,0.429-0.178,1.071-0.758,1.946c-0.576,0.872-1.534,1.952-2.962,3.233c-0.456,0.408-0.793,0.895-1.001,1.412
		c-0.209,0.518-0.292,1.058-0.291,1.585c0.005,1.136,0.357,2.232,0.765,3.277c0.412,1.043,0.895,2.038,1.227,2.879
		c1.001,2.526,1.66,5.088,1.809,7.626c0.021,0.362,0.032,0.725,0.032,1.086c0,1.251-0.13,2.495-0.41,3.731
		c-0.093,0.412-0.204,0.823-0.331,1.233c-0.866,2.779-1.293,5.416-1.293,7.925c-0.002,3.522,0.851,6.786,2.475,9.778
		c1.624,2.994,4.005,5.718,7.048,8.237c1.479,1.224,2.816,2.508,3.753,3.823c0.941,1.321,1.473,2.638,1.473,4.005
		c-0.003,1.502-0.629,3.184-2.417,5.166c-4.939,5.457-8.333,11.776-11.581,18.086c-3.163,6.151-6.199,12.292-10.32,17.69
		c-0.962-0.089-1.913-0.144-2.842-0.144c-4.425-0.001-8.483,0.991-12.251,2.723c-3.769,1.731-7.25,4.196-10.573,7.144
		c-6.333,5.619-13.271,10.631-19.961,16.001C234.299,430.517,232.574,431.844,231.003,432.78z M197.647,329.756
		c-2.666-0.019-4.975-0.097-6.974-0.273c-1.2-0.105-2.288-0.247-3.274-0.434c-1.976-0.371-3.536-0.914-4.81-1.681
		c-1.902-1.152-3.239-2.808-4.385-5.444c-1.101-2.54-1.969-5.982-2.854-10.509c3.56-4.08,6.879-8.346,10.569-12.108
		c3.604-3.675,7.562-6.849,12.445-8.969c4.779,8.594,7.418,18.053,10.48,27.54c0.31,0.958,0.434,1.8,0.434,2.57
		c0,1.805-0.684,3.291-1.576,4.866c-0.767,1.365-1.671,2.779-2.247,4.446c-1.538,0.001-3.073,0.005-4.606,0.005
		C199.781,329.766,198.713,329.764,197.647,329.756z M207.537,329.837c0.484-1.16,1.202-2.299,1.907-3.537
		c0.582-1.027,1.153-2.144,1.5-3.406c0.208-0.758,0.335-1.568,0.335-2.445c0-0.989-0.162-2.049-0.53-3.186
		c-3.068-9.482-5.727-19.145-10.711-28.059c9.546-10.252,19.474-20.038,30.707-28.367c2.108,1.406,4.217,2.812,6.326,4.219
		c0.004,0.397,0.008,0.794,0.008,1.194c0,1.06-0.01,2.128-0.01,3.201l0,0c0,0,0,0,0,0c0,2.119,0.04,4.256,0.286,6.383
		c0.082,0.709,0.188,1.417,0.322,2.124c0.539,2.822,1.559,5.616,3.448,8.244c0.978,1.372,1.3,2.583,1.306,3.814
		c0.005,1.57-0.587,3.211-1.307,4.94c-0.712,1.73-1.545,3.533-1.839,5.51c-0.283,1.966-0.789,3.343-1.385,4.139
		c-0.298,0.401-0.607,0.663-0.94,0.835c-0.334,0.171-0.703,0.261-1.16,0.262c-1.163,0.014-2.919-0.678-5.079-2.206
		c-0.531-0.37-1.058-0.613-1.656-0.618c-0.352-0.002-0.706,0.103-0.982,0.275c-0.491,0.307-0.752,0.727-0.955,1.122
		c-0.298,0.599-0.476,1.23-0.67,1.764c-0.095,0.265-0.19,0.502-0.283,0.681c-0.091,0.18-0.181,0.294-0.227,0.335
		c-4.09,3.802-6.257,8.787-8.591,13.453c-1.165,2.337-2.367,4.6-3.834,6.624c-1.319,1.82-2.869,3.431-4.79,4.776
		c-0.473-0.473-0.945-0.945-1.418-1.418C207.388,330.274,207.447,330.053,207.537,329.837z M340.782,164.604
		c0.914-1.3,1.481-2.904,1.584-4.776c0.014-0.253,0.021-0.505,0.021-0.755c0-0.45-0.022-0.894-0.067-1.331
		c-0.311-3.057-1.687-5.77-3.703-8.002c-1.729-1.917-3.925-3.503-6.369-4.73c-0.814-0.409-1.657-0.778-2.519-1.107
		c-3.021-1.148-6.138-1.868-9.16-2.681c1.249-1.917,2.761-3.34,4.48-4.481c3.046-2.022,6.764-3.135,10.563-4.357
		c3.793-1.228,7.677-2.571,10.964-5.231c2.892-2.352,6.478-4.113,9.447-6.506c1.482-1.2,2.813-2.575,3.773-4.29
		c0.961-1.713,1.529-3.757,1.526-6.195c0-0.86-0.069-1.769-0.212-2.734c-0.031-0.207-0.045-0.399-0.045-0.577
		c0.01-0.843,0.28-1.351,0.721-1.737c0.444-0.381,1.138-0.628,2.018-0.628c0.281,0,0.579,0.025,0.888,0.079
		c1.821,0.313,3.253,1.021,4.219,2.029c0.963,1.013,1.517,2.333,1.524,4.104c0,0.133-0.003,0.268-0.01,0.405
		c-0.154,3.227-1.104,6.238-2.568,9.08c-0.879,1.705-1.943,3.349-3.133,4.942c-0.983,1.318-2.025,2.665-2.842,4.17
		c-0.815,1.502-1.402,3.186-1.4,5.1c0,0.459,0.033,0.93,0.104,1.412c0.146,0.958,0.645,1.842,1.342,2.736
		c1.228,1.557,3.139,3.162,5.453,4.756c0.867,0.596,1.791,1.188,2.754,1.769c2.891,1.742,6.142,3.377,9.314,4.687
		c1.587,0.654,3.154,1.227,4.649,1.689c0.499,0.154,0.989,0.295,1.469,0.424c1.924,0.512,3.685,0.814,5.202,0.816
		c0.75,0,1.444-0.074,2.078-0.254c0.632-0.18,1.216-0.472,1.68-0.929c4.046-3.981,8.661-7.242,13.334-10.503
		c4.672-3.262,9.402-6.523,13.642-10.537c2.711-2.566,4.312-5.566,5.538-8.613c1.024-2.551,1.811-5.136,2.751-7.61
		c4.9,5.244,8.52,11.691,13.744,17.258c0.922,0.981,1.37,2.328,1.374,4c0.002,1.591-0.426,3.441-1.218,5.333
		c-0.148,0.355-0.309,0.711-0.481,1.068c-1.209,2.495-3.004,4.994-5.141,7.064c-2.44,2.369-5.323,4.167-8.237,4.845
		c-5.887,1.375-10.996,3.549-15.31,6.738c-4.164,3.077-7.566,7.107-10.221,12.197c-1.765,0.01-3.525,0.031-5.274,0.031
		c-7.384,0.001-14.577-0.383-21.45-3.426c-1.624-0.719-3.268-0.987-4.871-0.986c-3.578,0.011-6.982,1.271-10.17,1.876
		c-1.076,0.209-2.049,0.449-2.926,0.727c-1.461,0.463-2.652,1.032-3.599,1.74c-0.565,0.425-1.041,0.907-1.41,1.443
		c-0.123,0.179-0.234,0.363-0.333,0.554c-0.397,0.761-0.587,1.606-0.586,2.479c0.002,1.236,0.361,2.523,0.986,3.893
		c0.627,1.37,1.529,2.83,2.673,4.407c0.668,0.917,1.442,1.79,2.255,2.64c1.355,1.418,2.819,2.775,4.087,4.174
		c0.762,0.836,1.451,1.683,2.01,2.547c0.187,0.288,0.358,0.578,0.513,0.871c0.621,1.172,0.98,2.368,0.981,3.679
		c-0.001,1.337-0.375,2.825-1.345,4.56c-1.756,3.121-3.98,4.963-6.596,6.09c-2.616,1.122-5.656,1.495-8.93,1.493
		c-2.029,0-4.145-0.141-6.292-0.322c-0.421-0.035-0.829-0.053-1.224-0.053c-2.468-0.005-4.469,0.694-6.035,1.847
		c-2.354,1.733-3.717,4.349-4.866,6.972c-1.142,2.63-2.083,5.315-3.352,7.262c-1.269,1.958-2.471,3.38-3.633,4.278
		c-1.169,0.898-2.256,1.292-3.487,1.298c-1.45,0.003-3.188-0.598-5.33-1.943c-1.39-0.868-2.832-1.729-3.872-2.74
		c-0.521-0.504-1.203-1.039-1.495-1.624c-0.291-0.586-0.734-1.224-0.734-1.99v-0.004v-0.061c0-0.847,0.459-1.404,0.766-1.871
		c0.455-0.694,1.411-1.227,2.464-1.714c1.046-0.492,2.338-0.922,3.471-1.578c0.818-0.479,1.922-0.875,3.073-1.257
		c1.729-0.58,3.643-1.116,5.223-2.094c0.788-0.492,1.513-1.11,2.032-1.926c0.521-0.813,0.821-1.814,0.817-2.947
		c-0.001-1.09-0.256-2.303-0.791-3.69c-0.668-1.733-1.496-2.981-2.519-3.809c-1.02-0.831-2.223-1.178-3.396-1.171
		c-1.469,0.004-2.912,0.48-4.345,1.081c-1.431,0.604-2.857,1.35-4.228,1.975c-0.941,0.429-1.728,0.594-2.404,0.594
		c-0.719-0.002-1.331-0.181-1.927-0.509c-0.891-0.489-1.729-1.349-2.53-2.396c-0.802-1.044-1.561-2.258-2.362-3.404
		c-1.274-1.826-1.788-3.439-1.79-4.939c0.001-1.167,0.313-2.295,0.916-3.439c0.603-1.142,1.501-2.29,2.645-3.436
		c3.072-3.084,6.751-5.644,10.295-8.464c3.398-2.708,6.671-5.682,9.085-9.636c1.025-0.016,2.054-0.024,3.096-0.057
		c3.34-0.107,6.821-0.646,9.634-2.126C338.63,166.896,339.87,165.906,340.782,164.604z M429.673,182.614
		c1.136-2.01,1.96-4.536,2.436-7.707c0.18-1.212,0.922-2.292,2.03-3.093c1.103-0.797,2.551-1.278,3.984-1.275
		c1.565,0.004,3.086,0.544,4.282,1.813c1.615,1.724,3.269,2.866,4.946,3.562c1.677,0.697,3.363,0.943,5.019,0.942
		c3.362-0.009,6.62-0.964,9.926-1.306c2.984-0.326,6.104-1.258,8.813-1.248c1.714,0.004,3.204,0.343,4.515,1.337
		c1.31,0.997,2.514,2.726,3.421,5.729c0.298,0.977,0.664,1.72,1.173,2.276c0.254,0.276,0.55,0.5,0.878,0.651
		c0.327,0.152,0.682,0.225,1.022,0.224c0.168-0.001,0.331-0.017,0.488-0.046c0.473-0.087,0.901-0.289,1.29-0.534
		c0.779-0.498,1.456-1.203,2.065-1.952c0.605-0.749,1.132-1.543,1.537-2.22c1.388-2.33,2.563-4.785,4.059-6.572
		c0.746-0.895,1.56-1.621,2.509-2.126c0.951-0.504,2.045-0.803,3.43-0.805c0.417,0,0.859,0.028,1.33,0.087
		c1.312,0.168,2.307,0.518,3.101,0.996c0.265,0.159,0.507,0.333,0.73,0.519c0.672,0.56,1.188,1.247,1.615,2.05
		c0.639,1.201,1.056,2.662,1.429,4.199c0.375,1.537,0.709,3.145,1.253,4.655c2.331,6.451,4.193,13.11,5.957,19.789
		c0.87,3.283,2.074,5.932,3.789,7.819c0.214,0.235,0.438,0.458,0.668,0.668c0.693,0.63,1.46,1.142,2.299,1.517
		c1.118,0.501,2.357,0.755,3.688,0.754c1.326-0.001,2.74-0.247,4.259-0.734c0.622-0.2,1.262-0.442,1.92-0.723
		c2.025,4.482,5.259,7.942,8.841,11.004c-2.637,2.637-5.272,5.273-7.909,7.91l-0.101-0.299l-1.227,1.491L529,231.968v0.002
		l-0.248,0.382l0.092,0.076c-0.608,0.762-1.326,1.55-2.037,2.395c-0.828,0.995-1.604,2.084-1.891,3.436
		c-1.436,6.938-4.185,12.208-8.272,15.95c-4.091,3.739-9.557,5.996-16.576,6.745c-1.989,0.212-3.878,0.703-5.594,1.579
		c-1.578,0.804-2.989,1.956-4.185,3.458c-3.834,0.118-6.972,1.228-9.597,2.936c-4.105,2.672-6.996,6.689-9.936,10.55
		c-2.938,3.872-5.911,7.583-9.995,9.846c-0.466,0.258-0.912,0.528-1.337,0.808c-2.978,1.96-4.969,4.437-6.199,7.204
		c-1.411,3.164-1.856,6.673-1.857,10.285c0.004,5.79,1.134,11.884,1.539,17.38c-1.454,0.199-2.862,0.299-4.228,0.299
		c-6.167-0.002-11.516-1.912-16.516-4.854c-4.996-2.939-9.616-6.915-14.225-10.974c-0.813-0.698-1.563-2.181-2.039-4.143
		c-0.484-1.958-0.725-4.369-0.724-6.895c-0.001-3.234,0.392-6.664,1.122-9.615c0.72-2.951,1.816-5.423,3.026-6.695
		c3.083-3.289,5.386-5.739,6.963-7.826c0.788-1.045,1.397-2.002,1.819-2.947c0.422-0.942,0.652-1.881,0.651-2.829
		c0.001-0.906-0.21-1.801-0.593-2.69c-0.145-0.334-0.312-0.668-0.502-1.007c-0.57-1.015-1.345-2.065-2.313-3.241
		c-0.969-1.175-2.136-2.475-3.503-3.974c-0.456-0.5-0.934-1.022-1.434-1.568c-1.868-2.042-3-4.375-3.678-6.908
		c-0.677-2.53-0.886-5.254-0.886-8.004c0-0.133,0-0.267,0.001-0.4c0.026-3.68,0.083-7.37,0.083-11.059
		c0-1.817-0.015-3.635-0.054-5.452c-0.252-11.786-1.564-23.51-6.907-34.714c1.65,0.047,3.306,0.103,4.941,0.103
		c4.144-0.005,8.179-0.366,11.513-2.457C427.085,186.105,428.54,184.623,429.673,182.614z M528.092,202.801
		c-0.891-2.423-1.54-4.803-1.539-7.192c0.003-1.687,0.322-3.387,1.125-5.167c0.752,1.011,1.571,1.793,2.457,2.337
		c0.963,0.593,1.983,0.911,3.004,1.031c0.341,0.041,0.681,0.059,1.019,0.058c1.577-0.002,3.121-0.386,4.603-0.847
		c1.479-0.463,2.903-1.008,4.2-1.381c4.332-1.25,8.438-2.044,12.215-2.043c3.663,0.002,7.004,0.736,10.03,2.508
		c3.026,1.773,5.77,4.603,8.166,8.913c1.416,2.556,3.599,4.065,5.874,5.158c2.131,1.023,4.367,1.736,6.359,2.63
		c0.521,2.066,0.782,3.994,0.782,5.759c-0.002,1.022-0.085,1.991-0.247,2.907c-0.487,2.748-1.688,5.021-3.553,6.854
		c-1.866,1.83-4.44,3.224-7.705,4.089c-1.089,0.289-2.254,0.518-3.495,0.685c-1.679,0.226-3.324,0.331-4.943,0.331
		c-7.829,0.002-15.08-2.467-22.271-5.705c-1.26-0.567-2.519-1.156-3.778-1.762c-4.03-3.349-7.514-6.978-9.434-11.791
		c-0.181-0.523-0.375-1.042-0.573-1.558C529.632,206.639,528.791,204.709,528.092,202.801z M608.29,189.548
		c4.077,3.385,8.483,4.463,12.837,4.454c4.845-0.005,9.672-1.26,14.328-2.028c2.937-0.489,5.797-0.986,8.346-0.984
		c2.474,0.001,4.604,0.455,6.353,1.729c1.746,1.274,3.218,3.433,4.193,7.145c0.168,0.631,0.547,1.114,0.963,1.503
		c0.633,0.585,1.398,1.019,2.151,1.438c0.334,0.184,0.662,0.363,0.975,0.539c-2.916,2.813-5.621,5.885-7.272,9.32
		c-1.831,3.805-3.163,8.045-3.163,12.805v0.054v0.011v0.003v0.005v0.043c0,2.514-0.033,5.153-0.927,7.509
		c-0.896,2.36-2.099,4.426-4.074,5.886c-2.685,1.985-4.492,3.966-5.728,5.979c-1.236,2.01-1.748,4.061-1.744,6.075
		c0,0.331,0.036,0.66,0.064,0.988c0.199,2.295,1.077,4.514,2.301,6.674c1.402,2.472,3.287,4.889,5.285,7.307
		c1.474,1.782,2.889,3.543,3.909,5.275c1.024,1.735,1.644,3.416,1.642,5.064c-0.002,1.083-0.255,2.172-0.881,3.338
		c-0.593,1.101-1.545,2.27-2.929,3.496c-3.771,0.258-7.356,1.416-10.365,3.802c-1.571,1.246-3.054,2.227-4.42,2.883
		c-1.367,0.659-2.608,0.988-3.714,0.987c-1.34-0.008-2.515-0.446-3.712-1.537c-1.19-1.092-2.357-2.879-3.423-5.499
		c-0.784-1.935-2.014-3.347-3.488-4.233c-1.475-0.891-3.162-1.259-4.867-1.259c-1.451,0-2.923,0.264-4.34,0.714
		c-0.451,0.144-0.898,0.277-1.342,0.4c-3.102,0.866-6.008,1.256-8.76,1.256c-6.198-0.002-11.647-1.971-16.775-5.076
		c-4.971-3.012-9.614-7.101-14.225-11.43l0.09-0.373l-0.693-0.193l-1.074-1.013l-0.16,0.667c-3.168-0.897-6.086-1.854-8.311-3.46
		c-1.232-0.888-2.265-1.962-3.07-3.364c-0.805-1.402-1.387-3.145-1.654-5.379c-0.175-1.5-0.835-2.726-1.728-3.667
		c-1.344-1.416-3.139-2.277-4.872-3.116c-1.737-0.83-3.42-1.634-4.568-2.692c-1.677-1.53-3.479-2.831-5.006-4.269
		c-1.385-1.303-2.511-2.71-3.228-4.474c2.946-2.946,5.893-5.892,8.839-8.839c8.342,3.982,16.881,7.412,26.391,7.415
		c1.706,0,3.441-0.111,5.209-0.348c5.259-0.707,9.445-2.5,12.334-5.327c2.894-2.824,4.408-6.671,4.4-11.189
		c0-2.033-0.306-4.209-0.906-6.512c0.406-3.057,1.251-5.572,2.445-7.667c1.825-3.196,4.461-5.461,7.695-7.182
		C600.727,191.552,604.387,190.436,608.29,189.548z M543.337,292.354c-1.351,2.277-2.076,4.882-2.073,7.838
		c0,0.155,0.011,0.316,0.015,0.474c-2.848,1.202-5.746,2.063-8.583,2.06c-1.392,0-2.771-0.202-4.146-0.668
		c-1.633-0.552-2.984-0.824-4.156-0.826c-0.276,0-0.544,0.015-0.803,0.048c-0.773,0.098-1.461,0.346-2.033,0.75
		c-0.183,0.128-0.328,0.29-0.483,0.444c-0.33,0.326-0.622,0.684-0.835,1.089c-0.47,0.897-0.812,1.923-0.945,3.038
		c-0.132,1.116-0.293,2.328-0.293,3.601v-0.003v0.193c0,0.605,0.146,1.196,0.209,1.773c0.188,1.731,0.692,3.341,1.297,4.854
		c0.005,0.012,0.04,0.023,0.045,0.035c0.298,0.739,0.645,1.456,1.002,2.156c0.006,0.012,0.02,0.023,0.026,0.036
		c0.362,0.706,0.752,1.396,1.152,2.072c0.004,0.006,0.01,0.012,0.013,0.018c0.403,0.68,0.82,1.347,1.238,2.008
		c0.423,0.669,0.848,1.33,1.262,1.99c1.356,2.158,2.594,4.295,3.366,6.578c-3.429-0.686-6.857-1.371-10.286-2.057
		c-3.835-4.866-6.18-9.911-6.181-15.492c0-2.193,0.361-4.481,1.154-6.898c0.882-2.688,1.236-5.322,1.235-7.894
		c-0.002-4.714-1.174-9.217-2.426-13.634c-1.256-4.417-2.592-8.755-3.021-13.118c-0.087-0.911-0.398-1.698-0.886-2.301
		c-0.736-0.911-1.764-1.347-2.761-1.588c-1.006-0.24-2.034-0.3-2.938-0.362c-2.039-0.134-4.033-0.2-5.911-0.509
		c-1.512-0.249-2.938-0.664-4.288-1.367c0.913-1.013,1.939-1.793,3.082-2.377c1.454-0.742,3.097-1.179,4.897-1.371
		c7.324-0.776,13.259-3.177,17.718-7.258c4.461-4.078,7.399-9.788,8.892-17.021c0.155-0.787,0.714-1.65,1.479-2.556
		c0.427-0.51,0.907-1.032,1.385-1.576c0.856,1.688,2.04,3.056,3.314,4.251c1.657,1.554,3.467,2.859,5.026,4.288
		c1.975,1.786,4.605,2.71,6.712,3.847c1.055,0.561,1.97,1.16,2.621,1.855c0.652,0.701,1.064,1.465,1.198,2.534
		c0.293,2.451,0.949,4.471,1.905,6.137c1.435,2.504,3.535,4.164,5.897,5.349c2.086,1.048,4.389,1.754,6.733,2.418
		c-2.28,8.693-6.83,15.905-14.107,21.168C546.64,288.127,544.687,290.074,543.337,292.354z M541.608,326.68
		c-0.44,1.411-0.954,2.715-1.529,3.869c-0.191,0.385-0.39,0.753-0.595,1.103c-0.707,1.211-1.493,2.18-2.312,2.889
		c-2.108-0.703-4.217-1.405-6.325-2.107c-1.099-4.083-3.497-7.453-5.584-10.813c-1.096-1.756-2.225-3.508-2.957-5.346
		c-0.734-1.838-1.307-3.756-1.307-5.885v-0.164v-0.002c0-1.668,0.193-3.169,0.423-4.311c0.076-0.381,0.229-0.721,0.345-1.015
		c0.23-0.591,0.542-0.974,0.909-1.233c0.369-0.257,0.89-0.432,1.702-0.435c0.85-0.001,2.021,0.211,3.521,0.721
		c1.596,0.541,3.205,0.773,4.791,0.773c3.119-0.002,6.15-0.89,9.029-2.077c1.156,3.28,1.718,7.271,1.716,11.336
		c0,1.106-0.04,2.218-0.12,3.322C543.078,320.618,542.492,323.859,541.608,326.68z M454.934,325.313
		c-0.391-5.782-1.572-12.015-1.567-17.695c0-1.293,0.061-2.556,0.203-3.775c0.237-2.033,0.7-3.947,1.481-5.693
		c1.254-2.794,3.295-5.192,6.681-7.08c3.023-1.68,5.422-4.016,7.559-6.527c3.201-3.772,5.849-7.953,9.063-11.13
		c1.605-1.591,3.341-2.932,5.353-3.886c1.946-0.92,4.164-1.478,6.815-1.54c1.844,1.142,3.798,1.726,5.746,2.045
		c2.054,0.336,4.11,0.398,6.103,0.532c1.204,0.074,2.459,0.177,3.307,0.533c0.426,0.175,0.739,0.393,0.965,0.674
		c0.225,0.283,0.394,0.648,0.455,1.244c0.459,4.635,1.844,9.081,3.087,13.468c1.247,4.388,2.352,8.712,2.35,13.088
		c0,1.793-0.183,3.596-0.616,5.428c-0.145,0.611-0.317,1.225-0.52,1.842c-0.854,2.601-1.254,5.108-1.254,7.522
		c-0.001,5.926,2.406,11.23,6.145,16.135c-7.225,4.409-15.413,6.739-23.891,7.023c-0.59,0.02-1.181,0.029-1.772,0.029
		C478.527,337.55,465.956,333.424,454.934,325.313z M751.988,93.121c-1.327,1.777-2.813,3.446-4.427,5.016
		c-1.733,1.687-3.479,3.405-5.152,4.667c-0.835,0.631-1.649,1.146-2.416,1.494c-0.768,0.348-1.479,0.526-2.131,0.526
		c-0.51-0.001-0.989-0.103-1.482-0.34c-0.737-0.354-1.525-1.038-2.329-2.229c-0.802-1.188-1.605-2.872-2.369-5.138
		c-0.47-1.399-1.281-2.588-2.396-3.422c-1.112-0.836-2.511-1.298-4.066-1.324l-0.183-0.001c-1.201,0.003-2.374,0.209-3.33,0.93
		c-0.474,0.358-0.867,0.847-1.13,1.43c-0.265,0.583-0.405,1.253-0.435,2.004c-0.088,2.254-0.53,3.945-1.195,5.218
		c-1.001,1.9-2.487,2.95-4.402,3.6c-1.91,0.641-4.229,0.807-6.616,0.805c-0.845,0-1.698-0.02-2.546-0.042
		c-10.49-0.285-21-1.371-31.489-2.525c-1.271-0.14-2.418-0.238-3.482-0.238c-1.07,0-2.062,0.1-2.991,0.38
		c-1.397,0.414-2.621,1.275-3.6,2.614c-0.985,1.339-1.777,3.132-2.531,5.561c-2.657,8.593-8.883,16.846-16.082,23.587
		c-3.602-2.24-7.422-6.663-10.316-11.551c-1.537-2.585-2.825-5.298-3.723-7.873c-0.225-0.644-0.425-1.279-0.598-1.901
		c-0.521-1.866-0.803-3.613-0.801-5.115c-0.001-0.401,0.021-0.782,0.061-1.146c0.001-0.009,0.001-0.021,0.002-0.03
		c0.165-1.531,0.9-3.455,1.627-5.378c0.719-1.936,1.445-3.863,1.458-5.697c0-0.691-0.113-1.382-0.414-2.024
		c-0.298-0.642-0.79-1.214-1.442-1.644c-3.624-2.398-5.789-6.119-8.16-9.865c-1.188-1.867-2.429-3.732-3.967-5.395
		c-1.537-1.662-3.381-3.119-5.727-4.125c-2.41-1.033-4.712-2.114-6.339-3.229c-0.813-0.555-1.453-1.118-1.855-1.643
		c-0.407-0.531-0.572-0.984-0.573-1.422c0.001-0.307,0.079-0.638,0.301-1.042c0.33-0.604,1.009-1.351,2.146-2.174
		c1.135-0.825,2.718-1.727,4.807-2.689c1.07-0.493,1.986-1.234,2.644-2.161c0.655-0.925,1.047-2.046,1.046-3.245
		c0.001-1.089-0.322-2.228-0.994-3.322c-0.633-1.031-1.344-1.812-2.142-2.343c-0.796-0.532-1.683-0.794-2.557-0.792
		c-0.932,0-1.83,0.282-2.664,0.736c-0.836,0.456-1.618,1.085-2.351,1.833c-0.943,0.964-1.816,1.601-2.615,1.992
		c-0.802,0.392-1.526,0.547-2.236,0.549c-1.185,0.002-2.381-0.458-3.639-1.235c-1.143-0.705-2.312-1.663-3.512-2.659
		c-0.013-0.384-0.026-0.769-0.026-1.132c-0.005-3.197,0.514-5.588,1.467-7.059c0.477-0.74,1.044-1.265,1.751-1.629
		c0.707-0.361,1.573-0.564,2.657-0.565c1.707-0.003,3.938,0.522,6.686,1.677c4.355,1.826,8.906,2.926,13.277,4.302
		c4.375,1.374,8.558,3.016,12.247,5.86c2.157,1.671,4.507,2.311,6.822,2.304c2.731-0.004,5.428-0.835,8.064-1.762
		c8.076-2.848,16.027-5.043,24.043-5.042c5.771,0.001,11.581,1.128,17.569,3.982c3.926,1.871,8.379,3.232,13.029,3.234
		c3.013,0.001,6.105-0.577,9.147-1.956c0.512-0.236,1.369-0.412,2.141-0.408c0.727-0.01,1.38,0.17,1.601,0.347
		c7.425,5.324,15.597,9.458,23.337,14.075c7.588,4.524,14.743,9.514,20.456,16.472C755.779,87.203,754.092,90.302,751.988,93.121z
		 M593.528,26.904c-0.785,1.009-2.181,1.974-3.686,2.95c-1.503,0.986-3.109,1.987-4.325,3.3c-0.475,0.522-1.214,0.871-2.163,1.139
		c-1.415,0.415-3.19,0.584-4.778,1.375c-0.791,0.398-1.543,0.994-2.062,1.864c-0.498,0.83-0.759,1.872-0.782,3.126
		c-3.525,1.014-7.189,1.499-10.92,2.271c-3.901,0.81-7.883,1.958-11.758,4.454c-0.675,0.432-1.248,0.584-1.817,0.587
		c-0.795,0.003-1.659-0.335-2.612-0.975c-1.429-0.952-2.964-2.538-4.604-4.091c-1.648-1.549-3.409-3.086-5.492-3.889
		c-0.624-0.24-0.944-0.515-1.132-0.779c-0.184-0.267-0.271-0.567-0.273-0.988c-0.007-0.668,0.274-1.591,0.698-2.542
		c0.42-0.955,0.96-1.936,1.396-2.833c3.078-6.35,8.032-11.601,13.891-15.259c5.857-3.659,12.612-5.718,19.258-5.717
		c3.994,0,7.948,0.741,11.664,2.318c2.082,0.881,4.337,2.482,6.196,4.387c1.864,1.9,3.329,4.11,3.928,6.119
		c0.122,0.405,0.173,0.764,0.173,1.091C594.323,25.586,594.055,26.227,593.528,26.904z M549.34,73.052
		c0.696-1.699,0.871-3.725,0.871-6.162c0-0.128-0.211-0.257-0.211-0.386v-0.003v-0.065c0-0.975,0.525-1.523,1.018-1.938
		c0.496-0.41,1.389-0.666,2.373-0.665c1.734-0.007,4.031,0.813,5.822,2.424c1.837,1.643,3.537,2.933,5.1,3.833
		c1.563,0.896,3.039,1.419,4.466,1.423c0.967,0.003,1.91-0.259,2.732-0.781c1.236-0.786,2.195-2.085,2.986-3.841
		c0.79-1.762,1.426-4.011,1.951-6.815c0.357-1.936,1.329-3.89,2.264-5.907c0.925-2.017,1.828-4.115,1.835-6.433
		c0.001-1.129-0.227-2.299-0.764-3.468c-0.394-0.861-0.953-1.719-1.693-2.579c1.659-0.761,2.963-1.063,3.961-1.061
		c1.247,0.011,2.058,0.411,2.814,1.122c1.129,1.065,1.969,2.97,2.813,4.979c0.427,1.004,0.864,2.03,1.389,2.993
		c0.455,0.831,0.982,1.611,1.636,2.283l0.003,0.062l0.322,0.268l0.002,0.001l0.017,0.014c0.33,0.273,0.661,0.549,0.994,0.823
		c1,0.821,2.021,1.624,3.093,2.288c1.249,0.771,2.593,1.366,4.056,1.504c0.209,0.02,0.421,0.03,0.635,0.03
		c1.016,0.001,2.068-0.237,3.117-0.753c1.05-0.516,2.098-1.3,3.164-2.389c0.624-0.638,1.266-1.143,1.877-1.475
		c0.614-0.334,1.188-0.494,1.708-0.493c0.491,0.003,0.951,0.13,1.45,0.458c0.495,0.329,1.024,0.876,1.543,1.722
		c0.5,0.818,0.698,1.58,0.699,2.277c-0.001,0.766-0.242,1.47-0.68,2.09c-0.437,0.618-1.073,1.144-1.846,1.5
		c-2.896,1.336-4.931,2.581-6.302,3.819c-0.685,0.621-1.206,1.244-1.566,1.895c-0.359,0.648-0.551,1.333-0.55,2.009
		c0,0.246,0.024,0.486,0.071,0.721c0.139,0.704,0.474,1.352,0.918,1.924c0.895,1.149,2.226,2.095,3.788,2.989
		c1.172,0.667,2.479,1.295,3.833,1.901c0.452,0.202,0.909,0.401,1.368,0.598c2.052,0.882,3.65,2.138,5.048,3.646
		c2.094,2.257,3.7,5.094,5.522,7.908c1.822,2.808,3.881,5.607,6.966,7.659c0.376,0.253,0.589,0.514,0.738,0.827
		c0.146,0.313,0.225,0.698,0.225,1.175c0.012,1.268-0.606,3.09-1.33,4.994c-0.715,1.917-1.52,3.924-1.743,5.858
		c-0.051,0.453-0.074,0.92-0.075,1.399c0.003,2.327,0.563,4.949,1.511,7.674c1.069,3.063,2.634,6.253,4.503,9.239
		c0.623,0.995,1.28,1.967,1.964,2.904c2.615,3.578,5.605,6.631,8.676,8.472c0.272,1.831,0.453,3.754,0.94,5.678
		c1.242,4.884,1.898,9.01,1.897,12.474c0,2.703-0.396,4.997-1.201,6.968c-1.212,2.952-3.333,5.24-6.688,7.147
		c-3.353,1.9-7.938,3.368-13.888,4.542c-4.229,0.838-8.047,1.949-11.175,4.05c-2.992,2.003-5.278,4.965-6.548,9.215
		c-5.35,1.224-10.381,2.894-14.372,5.909c-2.064,1.561-3.842,3.487-5.199,5.87c-1.177,2.063-2.013,4.485-2.498,7.269
		c-1.907-0.801-3.849-1.455-5.577-2.291c-2.098-1.014-3.84-2.255-4.994-4.327c-2.525-4.55-5.521-7.688-8.902-9.667
		c-3.38-1.981-7.114-2.784-11.042-2.782c-4.056,0.001-8.332,0.843-12.77,2.121c-1.412,0.408-2.842,0.958-4.242,1.394
		c-1.398,0.438-2.764,0.758-4.006,0.756c-1.071-0.002-2.04-0.222-2.976-0.793c-0.116-0.072-0.233-0.149-0.35-0.233
		c-0.795-0.575-1.581-1.454-2.328-2.779c-0.24-0.822-0.473-1.637-0.686-2.442c-0.67-2.531-1.159-4.969-1.156-7.236
		c0.001-2.023,0.377-3.9,1.333-5.668c0.959-1.767,2.515-3.45,4.982-5.027c0.769-0.49,1.346-1.036,1.731-1.656
		c0.388-0.617,0.559-1.302,0.556-1.947c-0.011-1.193-0.493-2.229-0.971-3.209c-0.486-0.978-0.998-1.912-1.243-2.743
		c-4.451-14.865-10.202-29.649-10.192-44.228c0.007-9.912,2.616-19.728,10.106-29.617c1.552-0.989,3.353-1.763,5.215-2.531
		c2.871-1.191,5.894-2.363,8.271-4.554C547.637,76.109,548.646,74.75,549.34,73.052z M195.909,209.949
		c0.777,3.497,1.788,6.577,3.115,9.175c0.882,1.727,1.9,3.248,3.072,4.554c3.121,3.49,7.379,5.335,12.695,5.321
		c2.87-0.001,6.056-0.519,9.602-1.558c0.506-0.148,1.021-0.307,1.542-0.477c0.722-0.234,1.432-0.34,2.146-0.34
		c1.22,0,2.463,0.312,3.734,0.857c1.906,0.816,3.854,2.157,5.785,3.61c1.934,1.453,3.851,3.013,5.769,4.254
		c0.595,0.385,0.949,0.763,1.158,1.112c0.208,0.352,0.29,0.685,0.292,1.073c0.009,0.753-0.39,1.742-1.031,2.77
		c-0.634,1.028-1.471,2.083-2.197,3.072c-3.815,5.204-7.725,10.348-11.602,15.526c-11.707,8.615-21.956,18.76-31.771,29.321
		c-5.505,2.251-9.866,5.749-13.726,9.687c-3.572,3.645-6.74,7.655-10.024,11.465c-3.798-7.103-6.606-12.289-9.295-15.81
		c-1.428-1.866-2.837-3.281-4.386-4.243c-1.546-0.963-3.239-1.442-5.074-1.438c-2.772,0.006-5.838,1.021-9.708,2.822
		c-3.87,1.806-8.555,4.423-14.511,7.748c-2.624,1.466-5.407,2.729-8.174,4.096c-0.504-0.15-1.024-0.207-1.541-0.207
		c-1.341,0.004-2.709,0.358-3.99,0.683c-1.272,0.331-2.469,0.627-3.255,0.62c-0.265,0-0.476-0.031-0.624-0.079
		c-0.224-0.08-0.307-0.143-0.423-0.325c-0.111-0.186-0.228-0.562-0.226-1.206c0-0.108,0.003-0.224,0.01-0.346
		c0.011-0.208,0.017-0.415,0.017-0.622c-0.008-3.198-1.266-6.236-2.445-9.173c-1.193-2.935-2.309-5.768-2.3-8.394
		c0.002-1.329,0.268-2.607,0.945-3.908c0.679-1.299,1.785-2.63,3.518-3.988c4.758-3.734,10.502-5.481,16.303-6.871
		c8.812-2.11,15.375-6.295,20.791-11.772c5.42-5.477,9.718-12.223,14.151-19.54C171.105,226.089,181.822,214.925,195.909,209.949z"
		/>
	<path d="M789.738,117.635c-1.055-1.021-2.409-1.401-3.687-1.704c-1.283-0.292-2.542-0.503-3.439-0.898
		c-3.724-1.616-7.413-2.353-10.951-2.352c-5.036,0-9.746,1.486-13.861,3.982c-2.469,1.498-4.724,3.359-6.706,5.482
		c-4.387,4.691-8.906,7.556-13.768,9.278c-4.862,1.72-10.09,2.289-15.854,2.289c-0.809,0-1.627-0.011-2.457-0.032
		c-0.454-0.012-0.898-0.018-1.335-0.018c-2.886,0-5.379,0.249-7.52,0.789c-3.204,0.802-5.651,2.302-7.23,4.577
		c-1.582,2.271-2.264,5.206-2.264,8.784c0,2.27,0.273,4.813,0.785,7.658c0.306,1.694,0.658,3.542,0.656,5.154
		c0.001,0.911-0.12,1.729-0.376,2.406c-0.025,0.068-0.046,0.143-0.074,0.208c-0.72,1.645-1.157,3.132-1.331,4.493
		c-0.058,0.454-0.087,0.893-0.087,1.319c-0.002,1.364,0.301,2.592,0.859,3.654c0.838,1.598,2.212,2.79,3.842,3.716
		c1.634,0.929,3.545,1.612,5.581,2.194c5.158,1.468,10.428,2.339,15.571,3.459c0.791,0.224,1.579,0.421,2.361,0.589
		c2.406,0.514,4.771,0.762,7.072,0.762c0,0,0,0,0.001,0l0,0c6.011,0.002,11.58-1.698,16.289-4.748
		c2.141-1.386,4.103-3.05,5.848-4.96c5.589-6.111,8.96-14.721,8.959-24.719c0-0.72-0.021-1.447-0.056-2.181
		c0.314-2.531,1.063-4.565,2.121-6.287c1.599-2.597,3.937-4.511,6.652-6.188c2.712-1.676,5.783-3.097,8.749-4.731
		c1.487-0.823,3.182-1.78,4.563-3.084c0.689-0.653,1.302-1.398,1.746-2.267c0.444-0.867,0.711-1.86,0.71-2.946
		c0-0.275-0.017-0.557-0.051-0.844C790.923,119.285,790.438,118.314,789.738,117.635z M756.188,172.368
		c-3.269,3.571-7.321,6.215-11.902,7.697c-2.748,0.889-5.686,1.359-8.758,1.361c-2.158,0-4.383-0.232-6.655-0.718
		c-0.522-0.112-1.052-0.255-1.579-0.394c-0.09-3.496-0.707-6.884-1.315-10.225c-0.656-3.591-1.294-7.127-1.293-10.686
		c0-0.874,0.054-1.75,0.14-2.63c0.057-0.586,0.117-1.172,0.219-1.762c0.812-4.755,2.172-8.134,4.096-10.261
		c0.963-1.068,2.063-1.841,3.362-2.364c1.3-0.521,2.808-0.789,4.568-0.789c2.016,0,4.357,0.354,7.042,1.069
		c6.799,1.812,13.665,3.283,20.474,4.881c0.017,0.485,0.037,0.972,0.037,1.45c-0.001,6.566-1.518,12.448-4.163,17.34
		C759.257,168.563,757.82,170.582,756.188,172.368z M771.536,134.536c-1.755,1.365-3.331,2.966-4.551,4.946
		c-1.056,1.712-1.813,3.725-2.225,6.055c-6.741-1.579-13.492-3.032-20.135-4.802c-2.805-0.746-5.308-1.136-7.557-1.137
		c-1.962,0-3.734,0.3-5.313,0.933c-2.372,0.947-4.268,2.657-5.674,5.028c-1.412,2.374-2.373,5.399-3.011,9.114
		c-0.275,1.6-0.388,3.177-0.388,4.73c0.001,3.797,0.671,7.454,1.325,11.044c0.58,3.172,1.146,6.294,1.272,9.416
		c-4.799-1.009-9.598-1.855-14.212-3.172c-0.326-0.092-0.646-0.188-0.961-0.285c-2.203-0.686-4.119-1.516-5.47-2.58
		c-0.774-0.607-1.365-1.28-1.77-2.05c-0.403-0.772-0.63-1.65-0.631-2.726c-0.001-1.005,0.206-2.187,0.682-3.565
		c0.159-0.459,0.348-0.94,0.568-1.444c0.351-0.805,0.522-1.664,0.587-2.539c0.021-0.292,0.031-0.585,0.031-0.879
		c-0.002-1.888-0.389-3.829-0.688-5.508c-0.497-2.763-0.754-5.196-0.754-7.304c-0.001-2.221,0.285-4.078,0.849-5.596
		c0.855-2.275,2.277-3.828,4.555-4.919c2.278-1.083,5.452-1.635,9.61-1.633c0.419,0,0.847,0.005,1.285,0.016
		c0.845,0.021,1.68,0.033,2.507,0.033c5.892,0,11.36-0.578,16.521-2.403c5.16-1.822,9.989-4.899,14.563-9.798
		c4.984-5.332,11.696-8.83,19.106-8.829c3.262,0,6.669,0.675,10.155,2.187c0.83,0.358,1.705,0.56,2.551,0.743
		c1.267,0.269,2.473,0.513,3.282,0.957c0.407,0.22,0.713,0.472,0.944,0.794c0.23,0.324,0.403,0.734,0.478,1.346
		c0.025,0.21,0.037,0.413,0.037,0.607c-0.001,0.764-0.178,1.419-0.491,2.036c-0.469,0.921-1.274,1.753-2.261,2.5
		c-0.983,0.748-2.134,1.404-3.232,2.01C779.283,129.984,775.052,131.809,771.536,134.536z"/>
</g>
</svg>
