<?xml version="1.0" encoding="utf-8"?>
<!-- Generator: Adobe Illustrator 16.0.0, SVG Export Plug-In . SVG Version: 6.00 Build 0)  -->
<!DOCTYPE svg PUBLIC "-//W3C//DTD SVG 1.1//EN" "http://www.w3.org/Graphics/SVG/1.1/DTD/svg11.dtd">
<svg version="1.1" id="Layer_2" xmlns="http://www.w3.org/2000/svg" xmlns:xlink="http://www.w3.org/1999/xlink" x="0px" y="0px"
	 width="1000px" height="1000px" viewBox="0 0 1000 1000" enable-background="new 0 0 1000 1000" xml:space="preserve">
<g>
	<path d="M163.219,749.294c6.607-0.635,12.784,2.031,13.697,9.291c0.451,3.588-0.892,6.375-3.416,8.828
		c-3.146,3.064-12.59,5.607-14.743-0.016c-2.744-7.164-14.375-4.057-11.596,3.197c4.077,10.65,15.44,13.994,25.773,10.676
		c9.522-3.053,15.724-11.465,16.072-21.309c0.313-8.834-5.375-17.506-13.434-20.854c-7.805-3.242-16.788-1.965-24.557,0.748
		c-20.476,7.141-32.875,28.223-47.603,42.783c-9.725,9.613-21.882,16.15-34.614,20.912c-8.755,3.275-18.994,5.951-28.228,3.186
		c-7.447-2.232-10.606,9.377-3.196,11.596c14.775,4.428,30.68-1.176,44.17-7.094c18.55-8.137,31.715-20.848,44.804-35.9
		C136.123,764.093,147.395,750.813,163.219,749.294z"/>
	<path d="M251.407,749.294c6.607-0.635,12.785,2.031,13.697,9.291c0.451,3.588-0.892,6.375-3.416,8.828
		c-3.147,3.064-12.591,5.607-14.743-0.016c-2.744-7.164-14.375-4.057-11.597,3.197c4.078,10.65,15.44,13.994,25.773,10.676
		c9.522-3.053,15.727-11.465,16.073-21.309c0.314-8.834-5.375-17.506-13.433-20.854c-7.804-3.242-16.789-1.965-24.557,0.748
		c-20.477,7.141-32.875,28.223-47.605,42.783c-9.725,9.613-21.882,16.15-34.614,20.912c-8.754,3.275-18.993,5.951-28.227,3.186
		c-7.447-2.232-10.606,9.377-3.197,11.596c14.775,4.428,30.68-1.176,44.17-7.094c18.551-8.137,31.716-20.848,44.804-35.9
		C224.311,764.093,235.585,750.813,251.407,749.294z"/>
	<path d="M351.951,739.108c-7.804-3.242-16.789-1.965-24.557,0.748c-20.477,7.141-32.877,28.223-47.605,42.783
		c-9.725,9.613-21.882,16.15-34.614,20.912c-8.755,3.275-18.996,5.951-28.229,3.186c-7.447-2.232-10.606,9.377-3.197,11.596
		c14.775,4.428,30.681-1.174,44.17-7.094c18.55-8.137,31.715-20.848,44.805-35.9c9.774-11.246,21.047-24.525,36.87-26.043
		c6.608-0.635,12.786,2.031,13.697,9.289c0.452,3.588-0.891,6.375-3.414,8.828c-3.148,3.064-12.592,5.609-14.745-0.014
		c-2.743-7.164-14.374-4.057-11.596,3.197c4.077,10.65,15.441,13.992,25.771,10.676c9.524-3.053,15.728-11.465,16.075-21.311
		C365.698,751.128,360.009,742.456,351.951,739.108z"/>
	<path d="M400.519,312.228c7.046,3.024,13.179-7.333,6.07-10.382c-9.109-3.913-20.462-11.449-20.796-22.457
		c-0.366-12.004,17.464-21.457,26.406-25.915c6.811-3.395,13.932-5.979,21.234-7.956c2.178,8.648,4.784,17.203,7.599,25.543
		c0.375,1.115,0.775,2.225,1.167,3.337c-4.054,7.861-7.969,15.794-11.931,23.673c-11.923,23.693-23.965,58.854-6.561,82.91
		c14.716,20.34,44.133,10.247,54.976-8.492c3.891-6.727-6.504-12.778-10.384-6.07c-5.324,9.205-17.696,17.278-28.564,12.643
		c-14.841-6.33-13.233-30.067-10.737-42.776c2.557-13.013,8.064-24.964,13.955-36.735c1.691-3.374,3.378-6.75,5.075-10.12
		c9.718,22.961,22.731,44.88,37.958,64.327c12.407,15.848,28.149,32.117,46.399,41.062c8.719,4.272,19.486,6.444,27.986,0.487
		c10.902-7.641,13.051-23.281,13.371-35.543c0.432-16.556-3.439-33.383-8.299-49.098c-4.594-14.857-10.691-29.7-18.965-42.909
		c-4.104-6.553-14.512-0.522-10.383,6.07c15.25,24.351,25.311,55.444,25.635,84.228c0.09,8.144-0.572,24.934-10.096,28.408
		c-8.027,2.928-17.949-4.281-24.055-8.58c-17.844-12.56-31.832-30.031-43.741-48.001c-11.596-17.499-20.982-35.8-28.317-55.007
		c2.422-4.59,4.882-9.16,7.467-13.666c4.246-7.399,8.852-14.509,13.851-21.263c6.406-0.13,12.79-0.044,19.077,0.183
		c28.35,1.027,60.182,4.069,85.822,17.121c10.107,5.145,23.213,12.36,27.244,23.662c4.797,13.46-9.895,24.593-20.506,29.199
		c-7.098,3.082-0.967,13.44,6.07,10.384c12.787-5.552,26.328-17.433,27.189-32.345c0.906-15.793-10.586-26.702-22.781-34.738
		c-29.211-19.248-66.451-23.532-100.635-25.209c-3.877-0.188-7.79-0.316-11.718-0.368c11.021-12.492,23.8-23.29,38.835-31.621
		c7.357-4.078,15.203-7.676,23.271-10.085c5.455-1.628,11.145-1.484,15.201,2.816c7.262,7.698,3.686,22.726,0.242,31.188
		c-2.924,7.187,8.715,10.282,11.598,3.197c8.035-19.747,4.318-52.541-23.682-50.003c-15.463,1.403-31.791,11.22-44.453,19.647
		c-12.629,8.405-23.746,18.894-33.405,30.55c-1.243,1.501-2.454,3.022-3.646,4.558c-9.354,0.433-18.707,1.405-27.883,3.119
		c-2.769-13.228-4.246-26.868,0.472-39.882c6.108-16.851,23.548-5.4,32.7,2.144c5.935,4.891,14.494-3.567,8.505-8.503
		c-9.996-8.239-21.714-16.391-35.292-14.233c-9.737,1.546-15.477,11.105-18.28,19.626c-3.427,10.412-3.298,22.221-1.789,32.954
		c0.496,3.527,1.117,7.054,1.814,10.573c-11.597,3.096-22.769,7.568-33.126,13.851c-12.006,7.285-25.553,19.503-23.67,34.919
		C375.705,296.503,388.427,307.037,400.519,312.228z M450.152,259.517c-1.74-5.483-3.332-11.036-4.763-16.667
		c5.326-0.957,10.713-1.646,16.125-2.113C457.476,246.84,453.725,253.123,450.152,259.517z"/>
	<path d="M482.905,282.715c0,8.435,6.843,15.28,15.278,15.28c8.436,0,15.281-6.845,15.281-15.28s-6.846-15.279-15.281-15.279
		C489.748,267.436,482.905,274.281,482.905,282.715z"/>
	<path d="M759.448,769.436c0.023,0,0.039,0.006,0.061,0.006c0.08,0,0.156-0.004,0.236-0.006c11.242-0.012,22.486-0.014,33.729,0.002
		c21.174,0.027,42.416,0.797,63.582,0.422c12.102-0.215,24.848-2.902,33.879-11.445c9.293-8.787,10.379-24.131,6.455-35.65
		c-10.826-31.795-65.844-27.334-66.73,7.986c-0.193,7.762,11.832,7.742,12.025,0c0.521-20.76,31.709-22.721,41.563-7.758
		c6.744,10.24,3.459,24.871-7.105,30.67c-9.488,5.211-21.371,4.207-31.801,4.051c-18.111-0.273-36.227-0.387-54.344-0.42
		c3.523-5.326,3.963-12.283,1.58-18.26c-3.84-9.617-11.975-14.879-22.287-13.379c-9.055,1.318-16.021,9.9-14.596,18.889
		c1.211,7.643,12.799,4.387,11.596-3.197c-0.369-2.328,5.277-4.008,6.707-4.105c4.701-0.313,7.199,4.568,8.072,8.494
		c2.018,9.029-12.014,11.125-19.602,11.572c-23.801,0.057-47.6,0.203-71.395,0.305c-15.938,0.068-31.873,0.146-47.813,0.254
		c-7.75,0.053-7.756,12.078,0,12.025C681.991,769.634,720.722,769.468,759.448,769.436z"/>
	<path d="M827.019,780.919c-27.781,0.195-55.566,0.137-83.35,0.057c-27.938-0.078-55.875-0.213-83.814-0.402
		c-7.758-0.051-7.752,11.977,0,12.027c52.346,0.355,104.697,0.625,157.045,0.4c10.563-0.045,21.125-0.113,31.686-0.299
		c10.914-0.191,24.008-0.559,32.885,6.943c8.809,7.447,7.691,23.395,0.014,31.188c-6.594,6.695-17.547,7.611-26.125,5.094
		c-7.568-2.223-12.477-8.346-12.674-16.213c-0.193-7.738-12.219-7.76-12.025,0c0.58,23.08,24.279,33.42,44.531,27.996
		c23.617-6.318,32.607-37.756,15.744-55.656C875.72,775.893,846.947,780.776,827.019,780.919z"/>
	<path d="M812.064,806.768c-4.967-3.432-12.373-2.463-18.125-2.48c-7.217-0.02-14.646-0.023-21.863-0.027
		c-29.982-0.014-59.43,0.045-90.162,0.047c-6.682,0.002-6.682,12.025,0,12.025c24.051-0.004,48.379-0.043,72.459-0.049
		c13.117,0,26.34-0.002,39.455,0.029c3.828,0.012,10.133-1.049,13.141,1.682c2.357,2.141,2.102,6.535,0.18,8.781
		c-2.461,2.873-8.604,2.24-11.938,2.248c-7.754,0.014-7.75,12.041,0.008,12.023c9.285-0.02,19.717-1.314,23.852-10.936
		C822.798,821.438,819.673,812.028,812.064,806.768z"/>
	<path d="M893.997,769.516c-7.748,0.109-7.758,12.135,0,12.027c9.83-0.139,19.658-0.467,29.49-0.453
		c6.238,0.008,17.52-1.029,20.461,6.494c4.221,10.803-14.537,21.195-17.035,8.174c-1.459-7.611-13.049-4.377-11.594,3.199
		c1.816,9.482,10.15,15.406,19.646,14.936c10.416-0.518,18.293-8.605,20.6-18.4C963.497,761.811,912.029,769.264,893.997,769.516z"
		/>
	<path d="M935.702,634.145c-26.754-26.764-61.09-45.986-99.492-54.227c-10.91-100.573-65.563-188-144.543-242.862
		c4.838-17.254,7.43-35.445,7.43-54.237c0.004-55.334-22.436-105.484-58.693-141.733c-36.246-36.257-86.396-58.7-141.738-58.697
		c-55.333-0.003-105.484,22.438-141.731,58.697c-36.257,36.247-58.701,86.398-58.698,141.733
		c-0.001,18.307,2.468,36.039,7.067,52.896c-81.049,55.478-136.899,145.078-146.88,248.11
		c-36.228,8.826-68.616,27.482-94.118,52.992c-36.259,36.25-58.703,86.398-58.699,141.73
		C5.605,833.891,28.046,884.04,64.306,920.286c36.249,36.256,86.396,58.695,141.73,58.691
		c54.35,0.004,103.684-21.648,139.767-56.768c45.689,22.77,97.229,35.58,151.713,35.576c56.494,0.004,109.828-13.787,156.766-38.17
		c36.078,35.072,85.379,56.693,139.682,56.691c55.342,0.004,105.492-22.436,141.738-58.693
		c36.256-36.246,58.695-86.395,58.691-141.736C994.398,720.544,971.958,670.393,935.702,634.145z M366.382,150.535
		c33.872-33.86,80.595-54.781,132.282-54.784c51.697,0.003,98.42,20.924,132.289,54.784c33.859,33.871,54.777,80.595,54.781,132.284
		c-0.004,51.693-20.922,98.419-54.779,132.287c-33.869,33.858-80.594,54.776-132.291,54.779
		c-51.687-0.003-98.41-20.921-132.282-54.779c-33.86-33.869-54.781-80.594-54.784-132.287
		C311.601,231.132,332.522,184.406,366.382,150.535z M206.036,965.616c-51.688-0.004-98.41-20.92-132.284-54.779
		c-33.86-33.869-54.781-80.592-54.784-132.289c0.003-51.686,20.924-98.41,54.784-132.281
		c33.872-33.861,80.595-54.781,132.283-54.785c51.695,0.004,98.419,20.924,132.288,54.785
		c33.859,33.871,54.777,80.594,54.782,132.281c-0.004,51.697-20.923,98.42-54.782,132.289
		C304.457,944.696,257.734,965.612,206.036,965.616z M355.513,912.087c31.679-35.436,50.957-82.254,50.954-133.539
		c0.003-55.33-22.437-105.48-58.692-141.73c-36.246-36.258-86.398-58.701-141.738-58.699c-11.559,0-22.888,0.992-33.916,2.871
		c10.499-95.802,62.358-179.163,137.345-231.893c10.049,28.699,26.426,54.424,47.468,75.46
		c36.247,36.256,86.396,58.694,141.729,58.691c55.342,0.003,105.492-22.436,141.738-58.691
		c20.73-20.726,36.932-46.002,47.016-74.188c73.084,52.141,123.816,133.558,135.09,227.107c-9.326-1.328-18.852-2.031-28.541-2.031
		c-55.334-0.004-105.482,22.439-141.732,58.699c-36.258,36.248-58.701,86.398-58.697,141.73
		c-0.004,51.354,19.33,98.229,51.086,133.68c-44.238,22.309-94.189,34.871-147.105,34.871
		C446.616,944.425,398.468,932.809,355.513,912.087z M926.253,908.165c-33.869,33.859-80.592,54.775-132.289,54.779
		c-51.688-0.004-98.41-20.92-132.283-54.779c-33.861-33.869-54.781-80.592-54.785-132.289
		c0.004-51.688,20.924-98.412,54.785-132.283c33.873-33.861,80.596-54.781,132.283-54.785c51.695,0.004,98.42,20.924,132.289,54.785
		c33.859,33.871,54.775,80.596,54.779,132.283C981.029,827.573,960.113,874.296,926.253,908.165z"/>
</g>
</svg>
