<?xml version="1.0" encoding="utf-8"?>
<!-- Generator: Adobe Illustrator 16.0.0, SVG Export Plug-In . SVG Version: 6.00 Build 0)  -->
<!DOCTYPE svg PUBLIC "-//W3C//DTD SVG 1.1//EN" "http://www.w3.org/Graphics/SVG/1.1/DTD/svg11.dtd">
<svg version="1.1" id="Layer_1" xmlns="http://www.w3.org/2000/svg" xmlns:xlink="http://www.w3.org/1999/xlink" x="0px" y="0px"
	 width="1000px" height="1000px" viewBox="0 0 1000 1000" style="enable-background:new 0 0 1000 1000;" xml:space="preserve">
<path d="M927.264,444.581c-17.036-11.517-36.62-19.612-57.678-23.343c37.152-16.731,68.734-43.527,91.312-76.941
	c23.495-34.763,37.232-76.771,37.227-121.853c0.002-30.047-6.098-58.75-17.132-84.829c-16.553-39.127-44.165-72.371-78.938-95.865
	C867.291,18.255,825.281,4.518,780.199,4.524c-30.047-0.002-58.748,6.098-84.828,17.131c-39.127,16.553-72.37,44.165-95.865,78.938
	c-23.495,34.762-37.232,76.771-37.227,121.852c-0.002,30.047,6.098,58.75,17.132,84.83c1.896,4.482,3.944,8.884,6.126,13.206
	c-8.025-6.513-16.338-12.686-24.924-18.486c-56.354-38.082-124.39-60.337-197.489-60.331c-48.726-0.002-95.222,9.883-137.487,27.763
	c-63.404,26.821-117.304,71.587-155.385,127.951C32.17,453.73,9.915,521.768,9.921,594.866
	c-0.002,48.726,9.883,95.222,27.763,137.485c26.821,63.404,71.587,117.304,127.951,155.385
	c56.354,38.082,124.391,60.336,197.49,60.33c48.726,0.002,95.222-9.884,137.486-27.763c63.404-26.821,117.303-71.587,155.384-127.95
	c29.392-43.492,49.342-93.949,56.92-148.316c11.458,19.911,27.313,36.94,46.279,49.756c23.967,16.203,52.962,25.682,84.034,25.676
	c20.708,0.002,40.514-4.205,58.502-11.816c26.988-11.419,49.904-30.454,66.105-54.432c16.202-23.967,25.681-52.962,25.675-84.034
	c0.002-20.708-4.205-40.513-11.816-58.5C970.276,483.698,951.24,460.782,927.264,444.581z M607.041,149.302
	c14.253-33.705,38.102-62.428,68.102-82.693c30.011-20.264,66.086-32.079,105.057-32.085c25.989,0.002,50.67,5.258,73.146,14.762
	c33.705,14.252,62.429,38.101,82.694,68.102c20.265,30.01,32.079,66.086,32.085,105.058c-0.002,25.988-5.259,50.668-14.762,73.143
	c-14.253,33.704-38.102,62.428-68.103,82.693c-30.011,20.265-66.088,32.079-105.061,32.085
	c-25.987-0.002-50.667-5.258-73.142-14.762c-33.704-14.252-62.428-38.101-82.693-68.102
	c-20.264-30.011-32.079-66.086-32.085-105.058C592.281,196.457,597.538,171.777,607.041,149.302z M660.933,720.665
	c-24.521,57.981-65.522,107.36-117.114,142.213c-51.601,34.851-113.705,55.183-180.694,55.188
	c-44.667-0.002-87.141-9.044-125.801-25.393C179.342,868.153,129.962,827.15,95.11,775.56
	c-34.851-51.602-55.183-113.705-55.189-180.693c0.002-44.666,9.044-87.141,25.393-125.8
	c24.521-57.982,65.523-107.361,117.115-142.213c51.602-34.851,113.706-55.183,180.695-55.189
	c44.666,0.002,87.141,9.044,125.8,25.393c57.982,24.521,107.361,65.523,142.212,117.115
	c34.851,51.602,55.183,113.706,55.188,180.695C686.323,639.532,677.281,682.006,660.933,720.665z M705.693,508.558
	c-4.426-17.621-10.169-34.722-17.131-51.178c-7.772-18.375-17.063-35.945-27.694-52.57c30.694,20.131,66.852,32.727,105.683,35.129
	c-19.126,11.368-35.506,26.831-47.928,45.215C713.65,492.508,709.319,500.341,705.693,508.558z M954.064,616.001
	c-9.118,21.565-24.391,39.962-43.596,52.934c-19.215,12.972-42.277,20.528-67.24,20.534c-16.648-0.002-32.432-3.366-46.813-9.446
	c-21.566-9.118-39.962-24.391-52.933-43.596c-12.972-19.216-20.527-42.277-20.533-67.24c0.002-16.648,3.365-32.432,9.445-46.813
	c9.118-21.566,24.39-39.961,43.595-52.933c19.215-12.971,42.276-20.527,67.239-20.533c16.649,0.002,32.433,3.366,46.814,9.446
	c21.566,9.119,39.963,24.39,52.935,43.595c12.971,19.215,20.527,42.276,20.533,67.239
	C963.509,585.835,960.145,601.618,954.064,616.001z"/>
</svg>
