<?xml version="1.0" encoding="utf-8"?>
<!-- Generator: Adobe Illustrator 16.0.0, SVG Export Plug-In . SVG Version: 6.00 Build 0)  -->
<!DOCTYPE svg PUBLIC "-//W3C//DTD SVG 1.1//EN" "http://www.w3.org/Graphics/SVG/1.1/DTD/svg11.dtd">
<svg version="1.1" id="Layer_2" xmlns="http://www.w3.org/2000/svg" xmlns:xlink="http://www.w3.org/1999/xlink" x="0px" y="0px"
	 width="1000px" height="1000px" viewBox="0 0 1000 1000" style="enable-background:new 0 0 1000 1000;" xml:space="preserve">
<g>
	<path d="M739.378,454.283c-18.188-17.565-42.217-30.895-65.431-40.505c-25.273-10.463-52.138-16.405-79.027-20.965
		c-35.286-5.983-71.416-9.876-107.491-10.49c11.817-12.986,24.675-25.007,38.499-35.847c0.188-0.143,0.457-0.349,0.812-0.619
		c1.134-0.859,2.279-1.701,3.425-2.544c2.311-1.699,4.658-3.348,7.018-4.979c4.811-3.326,9.744-6.473,14.742-9.508
		c10.018-6.085,20.433-11.5,31.073-16.408c5.897-2.721,8.133-3.633,14.212-6.02c5.527-2.169,11.084-4.181,16.865-5.56
		c0.729-0.174,4.766-0.819,4.639-0.865c1.782-0.16,3.571-0.214,5.359-0.208c1.041,0.004,2.08,0.079,3.119,0.154
		c1.836,0.319,3.63,0.839,5.392,1.437c0.012,0.004,0.018,0.007,0.029,0.011c0.423,0.212,0.842,0.432,1.259,0.654
		c0.696,0.37,2.7,1.826,3.269,2.19c0.829,0.769,1.617,1.581,2.378,2.414c0.126,0.137,0.295,0.339,0.467,0.55
		c0.283,0.416,0.562,0.835,0.836,1.256c0.808,1.239,1.506,2.546,2.179,3.862c0.132,0.258,0.345,0.722,0.524,1.118
		c0.146,0.398,0.289,0.797,0.432,1.197c1.08,3.03,1.816,6.173,2.38,9.339c0.001,0.261,0.38,3.128,0.436,3.862
		c0.155,2.054,0.194,4.115,0.199,6.173c0.005,2.102-0.101,4.201-0.239,6.297c-0.055,0.822-0.5,4.494-0.521,4.922
		c-1.279,8.019-3.589,15.872-6.719,23.356c-3.162,7.559,3.35,16.492,10.477,18.452c8.646,2.378,15.299-2.939,18.451-10.477
		c13.155-31.452,14.789-83.436-20.968-101.219c-22.158-11.021-45.939-3.135-67.256,5.829c-23.932,10.064-46.602,22.46-67.462,37.958
		c-24.827,18.445-45.895,40.151-64.423,63.903c-8.792,0.469-17.561,1.158-26.293,2.09c-9.445,1.008-18.949,2.333-28.424,4.033
		c-0.721-3.419-1.423-6.843-2.11-10.27c-0.371-1.848-0.698-3.704-1.005-5.564c-0.146-0.887-0.277-1.775-0.408-2.665
		c-0.028-0.246-0.066-0.578-0.119-1.024c-0.781-6.61-1.13-13.269-1.154-19.923c-0.012-3.343,0.104-6.685,0.296-10.022
		c0.095-1.652,0.233-3.302,0.382-4.95c0.071-0.791,0.478-3.981,0.533-4.541c0.917-5.862,2.29-11.655,4.191-17.276
		c0.236-0.698,0.488-1.391,0.749-2.08c0.028,0.001,1.028-2.35,1.367-3.036c1.019-2.062,2.19-4.042,3.475-5.946
		c0.419-0.534,1.28-1.65,1.681-2.091c0.835-0.92,1.742-1.773,2.666-2.603c0.052-0.046,0.082-0.075,0.128-0.117
		c0.102-0.067,0.193-0.127,0.322-0.215c1.057-0.72,2.181-1.331,3.322-1.904c0.343-0.115,0.688-0.225,1.033-0.334
		c0.984-0.312,1.993-0.533,3.005-0.732c0.487-0.032,0.974-0.057,1.461-0.076c1.499-0.061,2.999,0.02,4.492,0.146
		c0.698,0.126,1.393,0.269,2.085,0.417c1.633,0.351,3.237,0.823,4.83,1.317c1.198,0.371,2.374,0.806,3.543,1.256
		c0.146,0.08,1.833,0.789,2.221,0.971c1.117,0.522,2.211,1.089,3.307,1.655c9.221,4.766,17.259,10.761,24.232,16.587
		c6.268,5.238,15.048,6.165,21.213,0c5.393-5.393,6.281-15.965,0-21.213c-17.982-15.026-38.46-29.374-62.561-31.082
		c-17.742-1.257-32.859,8.508-42.684,22.56c-9.708,13.886-13.006,31.837-14.613,48.338c-1.689,17.339-0.271,35.064,3.079,52.124
		c0.58,2.954,1.182,5.902,1.796,8.848c-30.589,8.323-59.858,21.301-84.631,40.945c-21.966,17.417-39.904,43.912-29.841,72.805
		c8.936,25.658,32.834,43.372,57.043,53.442c7.564,3.146,16.488-3.338,18.452-10.477c2.375-8.634-2.934-15.313-10.477-18.451
		c3.581,1.489-0.113-0.101-0.695-0.371c-1.108-0.513-2.195-1.069-3.282-1.625c-2.269-1.158-4.47-2.445-6.646-3.77
		c-2.261-1.376-4.442-2.879-6.592-4.422c-0.25-0.179-0.445-0.317-0.61-0.435c-0.165-0.134-0.359-0.292-0.623-0.504
		c-1.408-1.129-2.76-2.327-4.1-3.535c-2.006-1.808-3.885-3.75-5.708-5.741c-0.739-0.809-1.44-1.649-2.137-2.494
		c1.081,1.288-1.077-1.493-1.271-1.772c-1.484-2.133-2.757-4.402-3.932-6.717c-0.116-0.229-0.214-0.418-0.296-0.574
		c-0.055-0.151-0.119-0.323-0.198-0.529c-0.599-1.575-1.038-3.204-1.446-4.836c-0.081-0.322-0.279-1.614-0.384-2.213
		c-0.052-0.857-0.08-1.716-0.091-2.575c-0.013-1.016,0.064-2.029,0.153-3.04c-0.14,1.915,0.387-1.597,0.502-2.076
		c0.285-1.185,0.683-2.337,1.089-3.484c-0.56,1.67,1.021-2.126,1.102-2.284c0.724-1.404,1.582-2.735,2.434-4.063
		c1.133-1.546,1.266-1.794,0.398-0.746c0.554-0.703,1.117-1.399,1.69-2.088c3.458-4.214,7.333-8.072,11.373-11.724
		c1.817-1.643,3.712-3.199,5.625-4.729c-0.188,0.179,2.119-1.583,2.244-1.673c1.532-1.119,3.101-2.186,4.673-3.246
		c9.853-6.646,20.498-12.076,31.389-16.801c-0.091,0.057,2.686-1.096,2.739-1.117c1.381-0.555,2.771-1.085,4.161-1.617
		c2.778-1.061,5.583-2.052,8.395-3.022c5.366-1.851,10.801-3.499,16.266-5.034c4.731,18.715,10.248,37.202,16.651,55.386
		c-9.23,17.749-18.028,35.717-26.729,53.567c-20.517,42.084-35.97,91.37-24.268,138.199c5.919,23.688,20.217,44.454,44.219,52.018
		c19.814,6.244,42.486,0.642,59.506-10.384c11.333-7.341,20.965-17.407,27.546-29.211c3.982-7.144,1.774-16.332-5.381-20.523
		c-6.944-4.067-16.547-1.75-20.523,5.381c-1.114,1.999-2.311,3.933-3.601,5.822c-0.17,0.25-0.76,1.025-1.12,1.503
		c-0.481,0.573-0.97,1.142-1.463,1.705c-1.494,1.704-3.114,3.294-4.769,4.841c-0.825,0.771-1.688,1.502-2.549,2.232
		c-0.201,0.162-0.355,0.287-0.488,0.396c-0.313,0.229-0.623,0.462-0.94,0.687c-3.277,2.354-6.806,4.334-10.446,6.067
		c0.391-0.252-3.827,1.479-4.714,1.768c-2.393,0.776-4.845,1.348-7.313,1.825c-0.216,0.042-0.615,0.101-1.019,0.156
		c-0.782,0.073-1.566,0.13-2.35,0.177c-2.084,0.126-4.175,0.067-6.257-0.06c-0.27-0.017-0.783-0.075-1.249-0.132
		c-0.638-0.12-1.275-0.25-1.91-0.388c-1.007-0.218-1.997-0.504-2.986-0.79c-0.522-0.151-2.376-0.855-2.813-0.987
		c-1.365-0.669-2.687-1.427-3.982-2.22c-0.42-0.257-0.83-0.531-1.235-0.811c0.31,0.192-1.313-1.041-1.726-1.407
		c-1.317-1.168-2.525-2.451-3.681-3.778c0.16,0.151-1.206-1.562-1.463-1.937c-0.941-1.371-1.767-2.817-2.578-4.268
		c-2.639-4.719-3.6-7.823-5.395-14.183c-0.828-2.932-1.455-5.917-2.021-8.908c-0.016-0.087-0.436-2.782-0.494-2.979
		c-0.201-1.688-0.357-3.38-0.495-5.073c-0.488-6.036-0.425-12.109-0.1-18.151c0.162-3.011,0.457-6.012,0.79-9.007
		c0.04-0.358,0.071-0.642,0.095-0.874c0.04-0.257,0.093-0.607,0.162-1.081c0.288-1.965,0.632-3.921,0.983-5.876
		c2.091-11.649,5.355-23.077,9.221-34.253c1.655-4.784,3.475-9.51,5.379-14.199c0.107-0.265,0.477-1.148,0.719-1.729
		c0.296-0.688,0.592-1.378,0.892-2.064c0.966-2.216,1.968-4.415,2.982-6.607c5.767-12.466,11.994-24.747,18.25-36.996
		c2.599,5.979,5.308,11.918,8.132,17.813c11.287,23.556,24.44,46.174,38.604,68.104c10.509,16.273,21.339,32.452,33.633,47.445
		c20.573,25.091,44.089,48.401,70.552,67.25c25.104,17.88,61.283,33.653,87.784,9.563c14.479-13.161,19.579-34.465,21.948-53.064
		c2.88-22.61,0.57-45.544-3.201-67.908c-7.546-44.76-23.248-89.623-45.184-129.368c-2.185-3.957-4.492-7.845-6.909-11.665
		c-4.363-6.896-13.281-9.623-20.522-5.381c-6.864,4.021-9.758,13.607-5.382,20.523c4.889,7.726,9.261,15.755,13.338,23.935
		c2.22,4.454,4.319,8.968,6.357,13.508c0.921,2.051,1.809,4.116,2.692,6.184c0.224,0.541,0.869,2.079,0.956,2.291
		c0.684,1.661,1.35,3.329,2.013,4.998c8.712,21.928,15.695,44.583,20.738,67.633c1.212,5.54,2.266,11.112,3.208,16.704
		c0.394,2.337,0.745,4.682,1.082,7.027c0.004,0.09,0.322,2.469,0.355,2.739c0.22,1.808,0.409,3.619,0.594,5.431
		c1.099,10.789,1.458,21.66,0.877,32.491c-0.131,2.438-0.345,4.87-0.591,7.299c-0.031,0.307-0.154,1.304-0.23,1.934
		c-0.115,0.762-0.229,1.523-0.354,2.284c-0.792,4.813-1.941,9.563-3.387,14.221c-0.491,1.584-1.059,3.142-1.65,4.69
		c0.186-0.606-1.479,3.241-1.898,4.045c-0.824,1.582-1.764,3.101-2.748,4.586c-0.117,0.177-0.296,0.428-0.478,0.677
		c-0.398,0.462-0.806,0.917-1.219,1.365c-0.517,0.56-1.06,1.092-1.619,1.606c-0.392,0.258-2.04,1.508-2.745,1.92
		c-0.422,0.246-0.856,0.469-1.294,0.687c-1.335,0.468-2.709,0.814-4.093,1.1c-0.224,0.008-0.496,0.021-0.837,0.041
		c-1.427,0.083-2.859,0.042-4.285-0.033c-0.419-0.021-0.836-0.057-1.253-0.097c-1.762-0.298-3.501-0.72-5.225-1.182
		c-1.569-0.42-3.114-0.929-4.648-1.458c-0.674-0.233-2.895-1.13-3.58-1.391c-3.003-1.359-5.932-2.88-8.81-4.483
		c-7.117-3.968-13.846-8.621-20.345-13.524c-0.085-0.064-0.14-0.105-0.21-0.158c-0.804-0.627-1.6-1.263-2.396-1.9
		c-1.61-1.288-3.199-2.604-4.781-3.929c-3.44-2.879-6.803-5.852-10.12-8.87c-6.217-5.654-12.214-11.548-18.064-17.579
		c-9.428-9.721-18.47-19.862-26.876-30.481c-0.093-0.118-0.158-0.199-0.234-0.295c-0.53-0.697-1.054-1.398-1.573-2.103
		c-3.503-4.761-6.833-9.658-10.184-14.527c-7.941-11.537-15.597-23.27-22.934-35.2c-13.384-21.765-25.453-44.33-35.829-67.683
		c-0.602-1.354-1.191-2.713-1.781-4.072c-0.021-0.049-0.756-1.777-1.046-2.454c-1.06-2.534-2.095-5.079-3.115-7.629
		c-1.133-2.832-2.23-5.679-3.307-8.533c6.658-12.606,13.558-25.083,20.889-37.314c5.642-9.412,11.58-18.645,17.819-27.672
		c1.274-1.844,2.575-3.67,3.883-5.491c24.217-0.486,48.48,0.641,72.607,2.558c13.896,1.104,22.813,2.188,37.148,4.335
		c13.41,2.008,26.773,4.335,40.033,7.183c13.428,2.884,26.717,6.434,39.709,10.897c6.362,2.186,10.917,4,15.702,6.16
		c5.898,2.662,11.561,5.755,17.171,8.971c4.896,2.806,9.732,5.711,14.482,8.758c2.411,1.546,4.777,3.162,7.12,4.81
		c0.981,0.69,1.944,1.406,2.908,2.122c-0.529-0.364,2.742,2.178,3.083,2.459c4.267,3.527,8.214,7.421,11.809,11.629
		c0.195,0.229,0.351,0.409,0.482,0.56c0.122,0.171,0.268,0.374,0.467,0.647c0.784,1.072,1.5,2.191,2.214,3.311
		c0.709,1.111,1.342,2.269,1.973,3.425c0.408,0.771,0.798,1.552,1.168,2.344c0.007,0.017,0.012,0.029,0.019,0.047
		c0.64,1.638,1.123,3.331,1.578,5.027c0.137,0.506,0.717,4.031,0.744,3.727c0.122,1.494,0.146,2.995,0.14,4.494
		c-0.02,0.925-0.07,1.849-0.151,2.769c-0.01,0.059-0.017,0.102-0.027,0.164c-0.308,1.828-0.812,3.616-1.336,5.391
		c-0.127,0.43-1.381,3.534-1.391,3.694c-1.515,3.191-3.399,6.2-5.416,9.091c-0.221,0.3-0.39,0.529-0.526,0.716
		c-0.542,0.665-1.091,1.324-1.655,1.971c-1.279,1.496-2.653,2.908-4.035,4.308c-1.391,1.408-2.863,2.732-4.344,4.045
		c-0.322,0.286-3.336,2.703-3.217,2.657c-2.974,2.213-6.104,4.209-9.299,6.084c-1.64,0.961-3.325,1.839-5.018,2.703
		c-0.493,0.252-5.633,2.574-2.695,1.346c-7.537,3.152-12.855,9.806-10.477,18.451c1.96,7.127,10.893,13.639,18.451,10.477
		c25.411-10.629,47.469-28.755,57.646-54.927C770.023,499.326,758.016,472.282,739.378,454.283z M380.848,691.255
		c-0.009-0.006-0.018-0.012-0.027-0.019C380.83,691.242,380.84,691.25,380.848,691.255z M605.523,710.534
		c-0.012-0.002-0.022-0.005-0.034-0.007C609.078,710.908,606.578,710.71,605.523,710.534z M405.4,437.424
		c-1.803-6.347-3.493-12.726-5.095-19.127c8.453-1.538,16.83-2.686,25.387-3.55c-6.354,9.701-12.416,19.621-18.244,29.703
		C406.757,442.11,406.067,439.77,405.4,437.424z"/>
	<path d="M506,466.764c-17.389,0-31.5,14.111-31.5,31.5s14.111,31.5,31.5,31.5s31.5-14.111,31.5-31.5S523.389,466.764,506,466.764z"
		/>
</g>
</svg>
