<?xml version="1.0" encoding="utf-8"?>
<!-- Generator: Adobe Illustrator 16.0.0, SVG Export Plug-In . SVG Version: 6.00 Build 0)  -->
<!DOCTYPE svg PUBLIC "-//W3C//DTD SVG 1.1//EN" "http://www.w3.org/Graphics/SVG/1.1/DTD/svg11.dtd">
<svg version="1.1" id="Layer_1" xmlns="http://www.w3.org/2000/svg" xmlns:xlink="http://www.w3.org/1999/xlink" x="0px" y="0px"
	 width="1000px" height="1000px" viewBox="0 0 1000 1000" style="enable-background:new 0 0 1000 1000;" xml:space="preserve">
<g>
	<path d="M997.824,569.462c-0.317-1.068-0.789-2.074-1.374-2.958c-1.025-1.559-2.362-2.697-3.658-3.508
		c-1.961-1.216-3.856-1.826-5.481-2.363c-1.624-0.52-2.998-0.962-3.821-1.38c-1.142-0.565-2.182-1.117-3.055-1.646
		c-1.316-0.785-2.229-1.544-2.614-2.02c-0.198-0.236-0.272-0.386-0.299-0.45l-0.023-0.111c0.002-0.075,0.013-0.402,0.396-1.135
		c0.378-0.721,1.133-1.784,2.382-3.083c1.975-2.059,3.425-4.364,4.455-6.706c1.548-3.523,2.194-7.098,2.583-10.455
		c0.381-3.361,0.506-6.543,0.803-9.321c0.205-1.959,0.456-3.521,0.839-4.928c0.387-1.408,0.896-2.69,1.733-4.192
		c2-3.568,3.366-7.249,4.307-10.921c1.41-5.512,1.896-11,2.175-16.303c0.273-5.304,0.829-10.436,0.829-15.244v-0.002
		c0-0.406,0.048-0.812,0.048-1.217c0.002-1.397-0.252-2.765-0.697-3.998c-0.387-1.081-0.918-2.055-1.513-2.916
		c-1.046-1.51-2.277-2.684-3.512-3.694c-1.855-1.508-3.759-2.679-5.418-3.779c-1.66-1.086-3.061-2.105-3.88-2.959
		c-2.661-2.727-5.195-4.905-7.847-6.507c-1.327-0.798-2.689-1.449-4.115-1.908c-1.423-0.459-2.915-0.72-4.423-0.719
		c-1.866-0.005-3.733,0.41-5.425,1.164c-1.271,0.563-2.45,1.305-3.547,2.173c-1.645,1.307-3.114,2.894-4.519,4.732
		c-1.402,1.84-2.74,3.939-4.076,6.315c-0.62,1.112-1.016,2.12-1.373,2.991c-0.264,0.651-0.497,1.222-0.705,1.66
		c-0.084,0.179-0.162,0.329-0.233,0.458c-0.894-0.109-1.766-0.18-2.607-0.18c-1.251,0-2.457,0.127-3.615,0.41
		c-1.012,0.247-1.984,0.618-2.875,1.107c-1.566,0.852-2.829,2.069-3.728,3.334c-0.68,0.951-1.18,1.925-1.577,2.87
		c-0.594,1.421-0.972,2.789-1.305,4.079c-0.33,1.291-0.61,2.508-0.92,3.607c-0.321,1.143-0.883,2.218-1.68,3.228
		c-1.189,1.511-2.932,2.848-4.939,3.771c-2.002,0.929-4.25,1.433-6.318,1.428c-1.309,0-2.542-0.195-3.628-0.564
		c-1.089-0.371-2.03-0.903-2.844-1.619c-5.077-4.477-10.453-8.393-16.295-11.546c-5.839-3.154-12.145-5.537-19.002-6.953
		c-1.604-0.331-2.998-0.742-4.123-1.207c-0.845-0.348-1.536-0.724-2.072-1.099c-0.809-0.571-1.261-1.098-1.575-1.678
		c-0.305-0.586-0.521-1.296-0.528-2.471c-0.002-1.087,0.219-2.562,0.824-4.428c0.649-2.021,0.967-4.16,0.971-6.336
		c0-1.243-0.107-2.497-0.353-3.748c-0.373-1.869-1.035-3.761-2.304-5.509c-0.635-0.868-1.434-1.692-2.408-2.37
		c-0.972-0.678-2.117-1.197-3.332-1.474c-1.7-0.391-3.382-1.056-5.149-1.92c-2.654-1.288-5.462-3.043-8.73-4.648
		c-1.635-0.798-3.394-1.552-5.313-2.142c-1.917-0.59-3.997-0.808-6.225-0.934c-14.678-0.825-29.498-3.541-44.571-4.541h-0.003
		c-0.22,0-0.409-0.241-0.605-0.259c-0.106-2.377-0.441-4.77-0.896-6.962c-0.827-3.964-1.991-7.699-2.891-11.13
		c-0.909-3.431-1.54-6.609-1.534-9.442c0.003-1.895,0.262-3.66,0.885-5.418c3.771-10.611,7.678-21.054,12.795-30.545
		c5.121-9.499,11.408-18.037,19.998-25.083c0.879-0.731,1.992-1.609,3.097-2.927c0.548-0.664,1.099-1.458,1.535-2.446
		c0.436-0.981,0.735-2.176,0.731-3.431c0.001-0.836-0.129-1.685-0.37-2.485c-0.24-0.802-0.587-1.556-1.004-2.258
		c-0.383-0.644-0.716-1.444-0.995-2.417c-0.495-1.699-0.79-3.897-1.098-6.336c-0.237-1.831-0.491-3.799-0.96-5.839
		c-0.354-1.529-0.831-3.106-1.562-4.675c-0.547-1.175-1.239-2.343-2.116-3.441c-1.31-1.65-3.047-3.114-5.125-4.2
		c-1.536-0.807-3.244-1.414-5.121-1.84c-1.961-5.03-4.62-9.367-7.729-13.092c-4.978-5.964-11.018-10.391-17.179-14.199
		c-6.17-3.805-12.497-7.018-18.239-10.421c-2.991-1.769-6.019-3.91-9.14-6.166c-4.688-3.378-9.577-7.023-15.084-9.916
		c-2.755-1.443-5.672-2.693-8.791-3.585c-3.117-0.892-6.439-1.419-9.938-1.418c-3.504-0.001-7.176,0.536-10.979,1.684
		c-0.006-0.002-0.01-0.004-0.016-0.006c-0.293-0.12-0.67-0.288-1.157-0.477c-9.391-3.615-19.013-6.265-29.021-6.271
		c-8.008-0.009-16.229,1.749-24.376,5.941c-0.672,0.342-1.239,0.45-1.723,0.452c-0.708,0.001-1.241-0.255-1.524-0.512
		c-0.144-0.129-0.227-0.25-0.276-0.356c-0.048-0.109-0.14-0.203-0.142-0.364c0.001-0.11,0.01-0.255,0.01-0.462v-0.001
		c1-2.237,1.086-4.239,1.09-6.185c0-1.172-0.106-2.328-0.431-3.44c-0.281-0.971-0.691-1.902-1.233-2.723
		c-0.951-1.45-2.207-2.5-3.411-3.219c-0.91-0.545-1.797-0.932-2.646-1.25c-1.273-0.474-2.461-0.799-3.548-1.118
		c-1.087-0.316-2.067-0.621-2.896-0.964c-2.411-0.998-4.83-1.505-7.158-1.501c-2.258-0.003-4.381,0.473-6.27,1.206
		c-1.478,0.575-2.818,1.288-4.081,2.064c-0.058-1.254-0.228-2.504-0.538-3.732c-0.58-2.321-1.649-4.524-3.098-6.539
		c-1.45-2.022-3.261-3.884-5.429-5.748c-2.44-2.1-5.067-3.467-7.549-4.401c-1.864-0.704-3.653-1.181-5.303-1.589
		c-2.478-0.605-4.642-1.078-6.36-1.717c-0.862-0.317-1.614-0.667-2.283-1.074c-0.67-0.409-1.263-0.754-1.833-1.347L585.549,188
		h-2.129c-3.271,0-6.542,0-9.813,0h-3.81l-1.012,3.557c-0.246,0.877-0.561,1.393-0.973,1.927c-0.312,0.397-0.693,0.742-1.183,1.122
		c-0.73,0.568-1.711,1.12-2.892,1.697c-1.179,0.581-2.546,1.162-4.007,1.869c-5.461,2.642-9.997,6.241-13.711,10.421
		c-3.719,4.183-6.632,8.927-9.006,13.934c-0.729,1.538-1.402,3.129-1.918,4.806c-0.512,1.677-0.878,3.448-0.881,5.353
		c-0.001,1.357,0.197,2.79,0.696,4.196c0.371,1.053,0.913,2.083,1.607,3.019c1.041,1.41,2.408,2.59,3.975,3.526
		c1.572,0.94,3.349,1.658,5.358,2.222c0.525,0.145,1.248,0.442,1.962,0.847c1.077,0.597,2.142,1.453,2.738,2.145
		c0.074,0.084,0.142,0.166,0.201,0.242c-1.153,1.76-1.876,3.54-2.477,5.155c-0.532,1.453-0.965,2.798-1.405,3.949
		c-0.327,0.864-0.656,1.615-0.992,2.223c-0.51,0.921-0.987,1.486-1.547,1.906c-0.286,0.211-0.607,0.397-1.039,0.568
		c-0.431,0.169-0.976,0.321-1.69,0.421c-0.754,0.105-1.439,0.152-2.068,0.152c-1.064-0.001-1.961-0.131-2.783-0.358
		c-1.229-0.346-2.327-0.912-3.505-1.814c-1.171-0.9-2.395-2.152-3.682-3.753c-3.607-4.475-7.282-8-11.327-10.478
		c-2.021-1.235-4.134-2.197-6.329-2.842c-2.193-0.646-4.463-0.97-6.754-0.969c-3.359,0-6.74,0.687-10.133,1.925
		c-3.397,1.241-6.824,3.028-10.393,5.306c-6.246,3.997-12.115,8.05-18.092,11.01c-2.988,1.483-5.996,2.699-9.1,3.544
		c-3.105,0.845-6.305,1.256-9.738,1.257c-0.353,0-0.707-0.083-1.065-0.083h0.002c-0.447,0-0.866,0.052-1.253,0.052
		c-0.515,0-0.977,0.039-1.378,0.039c-0.667,0.002-1.167-0.001-1.487-0.042c-0.242-0.03-0.382-0.057-0.467-0.085
		c-0.126-0.049-0.153-0.048-0.341-0.202c-0.18-0.154-0.511-0.5-0.951-1.214c-1.936-3.147-4.687-5.521-7.743-7.065
		c-3.062-1.548-6.435-2.304-9.816-2.306c-3.035,0.001-6.09,0.612-8.942,1.888c-2.848,1.272-5.493,3.229-7.583,5.86
		c-1.452,1.822-2.914,3.1-4.447,4.082c-2.295,1.461-4.825,2.289-7.812,2.813c-1.047,0.185-2.163,0.318-3.307,0.435
		c0.144-0.292,0.287-0.603,0.425-0.948c0.314-0.788,0.593-1.742,0.689-2.825c0.055-0.617,0.082-1.229,0.082-1.835
		c-0.006-4.033-1.188-7.78-3.465-10.709c-1.14-1.459-2.568-2.71-4.253-3.599c-1.68-0.891-3.621-1.399-5.618-1.395
		c-2.178-0.003-4.382,0.596-6.405,1.695c-3.074,1.665-6.52,3.217-10.059,4.91c-2.654,1.271-5.362,2.625-8.006,4.208
		c-3.958,2.373-7.808,5.284-10.926,9.257c-2.967,3.765-5.161,8.495-6.144,14.147c-0.469-0.028-0.943-0.066-1.399-0.066
		c-2.436-0.001-4.753,0.419-6.826,1.465c-1.548,0.775-2.898,1.91-3.904,3.214c-0.759,0.977-1.336,2.034-1.773,3.107
		c-0.655,1.614-1.015,3.263-1.233,4.939c-0.216,1.678-0.287,3.393-0.288,5.161c0,0.102,0.001,0.205,0.001,0.307
		c-0.173,0.163-0.581,0.226-1.174,0.453c-0.659,0.261-1.509,0.258-2.352,0.258h0.001c-4.591,1-8.86,1.362-12.806,2.171
		c-3.19,0.659-5.835,1.315-7.984,1.681c-2.146,0.369-3.796,0.603-4.926,0.599c-0.607,0-1.061-0.019-1.385-0.083
		c-0.573-0.126-0.742-0.207-1.065-0.446c-0.235-0.188-0.559-0.505-0.972-1.098c-0.621-0.882-1.4-2.35-2.297-4.405
		c-0.903-2.054-1.937-4.677-3.197-7.876c-0.701-1.782-1.655-3.371-2.823-4.7c-1.75-2.004-3.957-3.35-6.157-4.108
		c-2.209-0.768-4.41-1.01-6.484-1.012c-1.522,0-2.986,0.135-4.367,0.332c-0.742,0.106-1.559,0.157-2.442,0.156
		c-2.085,0.004-4.528-0.292-7.151-0.631c-2.627-0.333-5.435-0.708-8.383-0.712c-1.48,0-3,0.098-4.547,0.375
		c-2.313,0.41-4.708,1.25-6.897,2.732c-2.193,1.474-4.115,3.559-5.625,6.149c-1.704,2.91-3.309,5.359-5.068,7.603
		c-1.76,2.245-3.679,4.298-6.081,6.434c-3.395,3.022-6.785,6.754-9.447,10.986c-1.329,2.118-2.474,4.366-3.307,6.743
		c-0.831,2.375-1.353,4.891-1.354,7.5c-0.001,1.758,0.242,3.555,0.783,5.318c0.371,1.209,0.876,2.35,1.565,3.388
		c0.515,0.777,1.136,1.492,1.842,2.098c1.057,0.914,2.294,1.556,3.504,1.923c1.213,0.372,2.391,0.495,3.487,0.496
		c1.624-0.004,3.099-0.26,4.496-0.574c2.087-0.477,4.021-1.105,5.735-1.568c1.704-0.473,3.183-0.748,4.051-0.735
		c0.131,0,0.249,0.005,0.353,0.013c0.42,0.034,0.816,0.045,1.187,0.045c1.551-0.013,2.666,0.009,3.315,0.022
		c0.156,0,0.284,0.186,0.385,0.186h-0.002c0.313,0,0.609-0.137,0.892-0.136c1.207-0.006,2.147-0.25,2.885-0.353
		c0.15-0.023,0.286-0.085,0.418-0.103c-0.013,0.064-0.021,0.104-0.038,0.17c-0.043,0.177-0.107,0.342-0.173,0.5
		c-1.952,0.548-3.761,1.25-5.404,2.114c-3.513,1.839-6.27,4.344-8.419,7.05c-1.617,2.032-2.916,4.172-4.049,6.303
		c-1.696,3.198-3.037,6.379-4.416,9.258c-1.374,2.884-2.779,5.444-4.429,7.479c-11.106,13.747-22.476,27.04-36.309,37.4
		c-2.375,1.786-5.011,3.702-7.497,6.134c-2.477,2.424-4.815,5.435-6.291,9.255c-2.449,6.347-5.332,11.738-9.082,15.607
		c-1.878,1.943-3.967,3.534-6.427,4.78c-2.461,1.243-5.31,2.147-8.756,2.61c-5.1,0.681-9.655,2.488-13.749,4.745
		c-4.1,2.261-7.778,4.971-11.261,7.621c-1.728,1.324-3.369,2.799-4.71,4.693c-0.667,0.947-1.252,2.007-1.672,3.189
		c-0.421,1.179-0.666,2.482-0.665,3.818c-0.001,1.3,0.229,2.616,0.659,3.874c0.429,1.26,1.048,2.465,1.822,3.625
		c1.201,1.803,2.015,3.509,2.538,5.154c0.521,1.647,0.758,3.24,0.76,4.868c0,1.732-0.274,3.514-0.829,5.397
		c-0.554,1.881-1.395,3.86-2.509,5.927l0-0.001c-0.621,1.156-1.215,2.486-1.7,3.941c-0.241,0.729-0.453,1.486-0.614,2.284
		c-0.159,0.799-0.271,1.636-0.273,2.561c0.001,0.618,0.051,1.278,0.21,1.999c0.16,0.717,0.435,1.505,0.92,2.293
		c0.465,0.75,0.73,1.337,0.866,1.738c0.137,0.405,0.148,0.614,0.149,0.696c-0.01,0.112,0.01,0.04-0.044,0.16
		c-0.043,0.083-0.158,0.256-0.396,0.503c-0.35,0.37-0.973,0.88-1.784,1.45c-0.81,0.575-1.798,1.216-2.862,1.965l0-0.001
		c-20.952,14.762-40.318,31.383-58.337,49.51h0c-0.406,0.41-1.014,0.949-1.714,1.571c-1.051,0.944-2.32,2.055-3.507,3.594
		c-0.59,0.773-1.162,1.67-1.607,2.745c-0.444,1.069-0.747,2.335-0.744,3.677c-0.002,1.021,0.173,2.067,0.506,3.056
		c0.332,0.991,0.812,1.925,1.399,2.796c0.901,1.339,1.462,2.507,1.803,3.534c0.339,1.029,0.468,1.921,0.47,2.795
		c-0.001,0.9-0.144,1.797-0.436,2.771c-0.434,1.456-1.23,3.077-2.299,4.848c-1.063,1.772-2.386,3.681-3.753,5.757
		c-2.288,3.481-4.114,6.62-5.427,9.701c-1.307,3.071-2.105,6.146-2.105,9.293c-0.002,1.907,0.3,3.811,0.887,5.635
		c0.881,2.746,2.359,5.284,4.272,7.763c1.919,2.482,4.289,4.938,7.137,7.584c1.794,1.66,2.95,3.101,3.598,4.275
		c0.328,0.59,0.537,1.113,0.672,1.608c0.134,0.497,0.198,0.971,0.199,1.496c-0.001,0.735-0.131,1.591-0.481,2.661
		c-0.349,1.066-0.922,2.334-1.757,3.794c-5.463,9.557-13.249,18.075-23.915,24.349h-0.001c-2.179,1.289-3.8,2.884-5.186,4.35
		c-1.38,1.475-2.421,2.852-3.481,3.886L7,696.087v2.099c0,7.36,0,14.721,0,22.081v2.768l2.225,1.47
		c2.43,1.521,4.966,2.961,7.827,4.047c2.855,1.084,5.967,1.805,9.336,1.803c1.084,0,2.174-0.074,3.292-0.229h-0.007
		c11.215-1.559,21.153-5.567,30.221-10.722c9.075-5.157,17.315-11.452,25.303-17.742c2.191-1.729,3.958-3.653,5.221-5.803
		c1.26-2.141,2-4.543,1.998-6.995c0.002-1.494-0.277-2.987-0.811-4.378c-0.8-2.092-2.155-3.924-3.845-5.411
		c-1.694-1.491-3.722-2.665-6.017-3.562c-0.952-0.372-1.663-0.792-2.207-1.217c-0.813-0.642-1.278-1.283-1.606-1.996
		c-0.321-0.711-0.487-1.521-0.488-2.414c-0.005-1.163,0.305-2.449,0.822-3.521l0-0.001c1.703-3.578,3.673-7.184,6.001-10.111
		c1.163-1.466,2.408-2.761,3.737-3.83c1.331-1.071,2.739-1.919,4.282-2.529c11.036-4.368,21.492-9.711,31.951-13.868
		c5.228-2.082,10.45-3.873,15.733-5.138c5.284-1.265,10.624-2.006,16.134-2.007c3.612,0,7.3,0.319,11.108,1.028
		c3.178,0.592,6.044,1.24,8.727,2.112c2.685,0.873,5.193,1.963,7.735,3.484c1.349,0.807,2.127,1.601,2.516,2.174
		c0.39,0.586,0.43,0.904,0.437,1.131c-0.003,0.173-0.03,0.337-0.158,0.599c-0.128,0.257-0.374,0.606-0.822,0.998
		c-2.163,1.892-3.835,3.772-5.033,5.821c-0.597,1.022-1.068,2.09-1.386,3.19c-0.319,1.099-0.48,2.23-0.479,3.335
		c-0.002,1.792,0.422,3.475,1.05,4.928c0.95,2.19,2.291,3.929,3.67,5.508c1.387,1.573,2.848,2.992,4.206,4.371
		c1.015,1.026,2.049,1.907,3.006,2.737c1.437,1.231,2.697,2.371,3.4,3.269c0.355,0.445,0.568,0.811,0.67,1.055
		c0.104,0.251,0.116,0.362,0.119,0.49c-0.004,0.132-0.014,0.332-0.215,0.784c-2.686,5.925-3.861,11.883-5.101,17.341
		c-0.615,2.733-1.236,5.347-2.006,7.793c-0.77,2.447-1.683,4.723-2.867,6.827c-0.857,1.525-1.544,3.018-2.036,4.523
		c-0.489,1.504-0.79,3.03-0.792,4.61c-0.003,1.513,0.297,3.094,0.993,4.542c0.517,1.085,1.249,2.074,2.11,2.885
		c1.295,1.223,2.833,2.044,4.438,2.586c1.612,0.543,3.317,0.827,5.146,0.943c2.355,0.146,4.227,0.51,5.622,0.995
		c1.05,0.364,1.83,0.787,2.426,1.233c0.449,0.337,0.801,0.688,1.107,1.087c0.455,0.598,0.825,1.318,1.106,2.322
		c0.279,1,0.451,2.28,0.45,3.854c0,0.951-0.062,2.008-0.192,3.162c-0.096,0.858-0.173,1.854-0.174,2.938
		c0.001,0.917,0.054,1.897,0.225,2.937c0.13,0.78,0.326,1.596,0.653,2.445c0.246,0.636,0.569,1.294,1.012,1.945
		c0.657,0.974,1.627,1.94,2.861,2.599c1.229,0.668,2.654,0.98,3.997,0.975c0.672,0,1.331-0.071,1.977-0.194l0.447-0.085
		l-0.446,0.085c0.735-0.141,1.346-0.194,1.847-0.193c1.012,0.008,1.563,0.186,2.06,0.431c0.37,0.189,0.725,0.449,1.122,0.847
		c0.593,0.589,1.246,1.504,1.925,2.666c0.684,1.158,1.389,2.541,2.236,4.007c5.65,9.744,10.625,20.063,15.778,30.427
		c3.523,7.068,7.438,12.593,12.195,16.497c2.375,1.944,4.969,3.462,7.74,4.471c2.77,1.012,5.703,1.506,8.695,1.504
		c3.597-0.001,7.271-0.697,11.031-1.959c3.764-1.265,7.629-3.096,11.676-5.442c2.036-1.185,4.098-2.353,6.102-3.181
		c2.007-0.834,3.906-1.309,5.657-1.305c1.422,0.007,2.775,0.276,4.321,1.039c3.102,1.549,6.292,2.396,9.452,2.393
		c2.897,0.006,5.698-0.72,8.209-1.963c2.521-1.244,4.776-2.971,6.872-5.016c1.299-1.271,2.872-2.489,4.618-3.744
		c1.744-1.257,3.657-2.548,5.595-4.031c4.777-3.667,8.782-6.32,12.175-7.975c1.697-0.829,3.236-1.413,4.654-1.788
		c1.42-0.374,2.717-0.544,3.992-0.545c1.314,0.001,2.615,0.181,4.022,0.572c2.104,0.587,4.459,1.677,7.182,3.396
		c2.721,1.716,5.79,4.051,9.285,7.008c0.908,0.764,1.947,1.616,3.296,2.376c0.675,0.378,1.435,0.729,2.296,0.992
		c0.858,0.263,1.823,0.431,2.836,0.43c0.837,0.001,1.701-0.115,2.537-0.347c0.836-0.23,1.642-0.573,2.397-1
		c0.652-0.367,1.215-0.583,1.758-0.722c0.543-0.138,1.074-0.199,1.667-0.2c0.926-0.002,2.019,0.166,3.325,0.491
		c1.305,0.32,2.806,0.794,4.505,1.285c3.458,0.989,7.029,1.764,10.688,1.772c1.94-0.001,3.917-0.229,5.866-0.831
		c1.459-0.451,2.899-1.119,4.23-2.033c2.003-1.367,3.719-3.281,5.001-5.586c1.289-2.309,2.18-4.991,2.739-8.076
		c0.112-0.613,0.275-1.063,0.456-1.407c0.279-0.513,0.568-0.84,1.123-1.207c0.552-0.356,1.423-0.721,2.735-0.947
		c3.74-0.646,7.206-1.716,10.341-3.244c4.703-2.284,8.649-5.646,11.487-9.904c2.849-4.256,4.579-9.335,5.237-14.986
		c0.158-1.35,0.388-2.489,0.683-3.455c0.449-1.453,1.007-2.511,1.815-3.516c0.813-0.999,1.929-1.976,3.618-3.004
		c7.136-4.349,12.655-8.494,16.616-13.179c1.973-2.342,3.544-4.84,4.609-7.522c1.069-2.679,1.609-5.531,1.605-8.431
		c-0.002-4.143-1.059-8.323-2.899-12.649c-1.847-4.334-4.487-8.861-7.872-13.829c-1.043-1.538-1.308-2.775-1.312-3.65
		c-0.003-0.607,0.142-1.044,0.26-1.28c4.428-0.072,8.351-1.214,11.642-2.938c2.571-1.338,4.78-2.987,6.762-4.692
		c2.97-2.563,5.471-5.254,7.897-7.502c2.425-2.261,4.729-4.044,7.172-5.111c1.612-0.709,3.112-1.566,4.462-2.626
		c2.025-1.578,3.683-3.659,4.713-6.045c1.04-2.386,1.473-4.995,1.472-7.718c0-0.736-0.031-1.483-0.091-2.244
		c-0.024-0.314-0.035-0.601-0.035-0.861c0-0.814,0.105-1.359,0.22-1.72c0.104-0.317,0.208-0.502,0.327-0.666
		c0.104-0.142,0.227-0.27,0.409-0.415c0.313-0.25,0.837-0.542,1.594-0.808c1.13-0.406,2.732-0.718,4.505-1.001
		c1.782-0.298,3.718-0.558,5.75-1.16c0.626-0.188,1.053-0.232,1.296-0.231c0.196,0,0.277,0.023,0.311,0.033
		c0.05,0.024,0.021-0.014,0.16,0.123c0.095,0.102,0.252,0.314,0.422,0.66c0.257,0.516,0.524,1.321,0.716,2.287
		c0.195,0.967,0.322,2.087,0.386,3.235c0.079,1.426,0.12,2.843,0.12,4.25c-0.002,6.961-0.975,13.714-3.038,20.58
		c-1.21,4.032-2.024,8.271-2.028,12.555c-0.001,4.014,0.735,8.113,2.678,11.896c0.968,1.886,2.234,3.675,3.801,5.286
		s3.427,3.042,5.559,4.252c5,2.847,8.85,6.265,12.086,10.276c3.23,4.011,5.833,8.643,8.139,13.842
		c1.529,3.424,3.386,6.902,6.239,9.842c1.426,1.462,3.117,2.772,5.091,3.756c1.969,0.985,4.206,1.624,6.602,1.829
		c5.121,0.433,10.376,2.142,16.064,3.916c2.843,0.88,5.795,1.765,8.903,2.44c3.107,0.674,6.379,1.137,9.825,1.138
		c0.406,0,0.817-0.012,1.229-0.025c-0.058,0.174-0.12,0.354-0.201,0.548c-1.217,3.022-2.893,6.096-4.663,9.303
		c-1.313,2.389-2.383,4.466-3.188,6.462c-0.4,1-0.735,1.983-0.98,2.995c-0.243,1.01-0.398,2.055-0.398,3.146
		c-0.013,1.631,0.394,3.384,1.213,4.87c0.606,1.119,1.398,2.073,2.262,2.882c1.302,1.215,2.758,2.146,4.395,3.034
		c1.639,0.886,3.476,1.722,5.585,2.62c5.093,2.167,9.185,5.683,12.021,9.961c2.833,4.279,4.392,9.307,4.392,14.481
		c0,2.195-0.28,4.421-0.865,6.64c-0.119,0.464-0.407,1.307-0.701,2.3c-0.146,0.502-0.295,1.051-0.419,1.666
		c-0.121,0.617-0.224,1.3-0.226,2.117c0.002,0.66,0.068,1.423,0.336,2.285c0.2,0.643,0.527,1.341,1.013,1.988
		c0.722,0.981,1.805,1.759,2.854,2.159c1.059,0.413,2.057,0.529,2.981,0.532c0.817-0.001,1.598-0.096,2.398-0.247
		c0.535-0.103,0.992-0.142,1.405-0.142c0.763,0.003,1.382,0.125,2.065,0.363c1.016,0.354,2.177,1.042,3.594,2.001
		c1.419,0.944,3.073,2.265,5.204,3.296l1.026,0.611h1.14c1.636,0,3.271,0,4.907,0h2.038l1.458-1.543
		c3.132-3.064,5.657-6.449,7.957-9.714c2.298-3.268,4.378-6.51,6.555-9.431c1.209-1.626,2.173-3.257,2.859-4.942
		c0.685-1.681,1.08-3.462,1.079-5.243c0.002-1.422-0.256-2.832-0.718-4.118c-0.694-1.939-1.803-3.587-3.077-5.024
		c-1.28-1.441-2.743-2.707-4.344-3.931c-2.356-1.797-4.23-4.317-5.525-7.323c-1.294-2.998-1.98-6.462-1.978-9.932
		c-0.002-3.018,0.515-6.03,1.519-8.739c1.003-2.714,2.48-5.113,4.384-7.021c1.99-2.004,4.001-4.178,5.598-6.906
		c0.794-1.361,1.473-2.864,1.943-4.504c0.472-1.638,0.9-3.406,0.898-5.255c0-0.256,0.154-0.514,0.154-0.774v-0.05v0.045
		c0-0.1-0.176-0.197-0.174-0.296c0.002-0.801,0.034-1.388,0.217-1.905c0.278-0.765,0.684-1.447,1.497-2.232
		c0.807-0.776,1.959-1.597,3.417-2.414c1.599-0.905,3.661-1.929,5.749-3.275c1.045-0.679,2.096-1.445,3.105-2.384
		c1.005-0.937,1.971-2.057,2.734-3.441c5.623-10.232,12.874-20.443,18.868-31.385c2.993-5.476,5.669-11.148,7.609-17.141
		c1.94-5.987,3.138-12.307,3.137-18.969c0.007-8.422-1.931-17.346-6.416-26.703c-0.327-0.696-0.431-1.245-0.437-1.842
		c0.001-0.531,0.101-1.116,0.336-1.782c0.347-0.996,1.017-2.155,1.921-3.301c0.899-1.146,2.017-2.273,3.146-3.262
		c0.476-0.414,0.851-0.62,1.156-0.741c0.309-0.118,0.561-0.162,0.871-0.164c0.516-0.003,1.268,0.164,2.231,0.674
		c0.955,0.502,2.067,1.331,3.16,2.384c0.329,0.315,0.77,0.763,1.263,1.256c0.75,0.743,1.598,1.586,2.637,2.396
		c0.528,0.405,1.104,0.811,1.858,1.19c0.379,0.188,0.807,0.369,1.318,0.518c0.511,0.146,1.113,0.345,1.817,0.346
		c0.483,0.001,1.017-0.119,1.563-0.119h0.004c0.83,0,1.474-0.416,1.939-0.465c0.009,0.166,0.014,0.308,0.011,0.51
		c0.001,0.571-0.216,1.243-0.259,2.005c-0.041,0.763-0.281,1.573-0.281,2.468v-0.012c0,0.113,0,0.221,0,0.32
		c0,4.721,0.969,9.121,2.28,13.187c1.97,6.105,5.173,11.447,8.543,16.352c3.376,4.905,7.07,9.398,10.277,13.771
		c1.655,2.259,3.665,4.074,5.813,5.443c3.23,2.062,6.762,3.123,10.214,3.69c3.461,0.565,6.906,0.654,10.201,0.656
		c2.132,0,4.206,0.015,6.168,0.015c0.436,0,0.87,0.061,1.295,0.061h0.007c0.134,0,0.269-0.053,0.406-0.053
		c2.143,0,4.205-0.207,6.201-0.672c1.495-0.35,2.953-0.878,4.328-1.604c2.064-1.082,3.912-2.672,5.331-4.625
		c1.144-1.565,2.011-3.348,2.673-5.291c0.02,0,0.039,0.002,0.059,0.002c3.761,0.002,7.183-0.847,10.239-2.015
		c2.298-0.877,4.411-1.931,6.411-2.988c2.997-1.591,5.752-3.184,8.406-4.362c2.66-1.185,5.168-1.957,7.797-2.123
		c1.558-0.099,2.938-0.155,4.131-0.155c1.871-0.005,3.266,0.152,4.118,0.384c0.648,0.174,0.975,0.355,1.184,0.51
		c0.158,0.122,0.276,0.237,0.434,0.467c0.229,0.337,0.54,0.982,0.794,2.116c0.256,1.126,0.441,2.707,0.504,4.729
		c0.058,1.872,0.377,3.646,0.872,5.281c0.87,2.871,2.25,5.305,3.687,7.446c1.08,1.608,2.203,3.065,3.245,4.437
		c1.567,2.053,2.937,3.92,3.832,5.66c0.45,0.871,0.789,1.704,1.017,2.53c0.227,0.828,0.348,1.714,0.349,2.615
		c0,0.516-0.041,0.71-0.134,1.71h0.003c-0.051,0-0.068,0.532-0.068,0.757c0.001,0.729,0.146,1.291,0.311,1.753
		c0.319,0.864,0.678,1.316,0.971,1.689c0.521,0.627,0.936,0.948,1.337,1.263c0.596,0.452,1.161,0.792,1.743,1.109
		c0.585,0.313,1.154,0.582,1.822,0.822c2.479,0.886,4.96,1.285,7.327,1.283c4.031-0.002,7.653-1.128,10.814-2.571
		c3.168-1.451,5.943-3.235,8.419-4.807c2.335-1.482,4.263-3.474,5.576-5.821c1.318-2.344,2.005-5.025,2.001-7.76
		c0-3.168-0.898-6.384-2.584-9.416c-1.056-1.899-2.024-4.02-3.059-6.265c-1.036-2.244-2.14-4.615-3.532-6.987
		c-0.54-0.919-0.891-1.722-1.104-2.419c-0.214-0.7-0.298-1.293-0.3-1.873c0.003-0.678,0.116-1.357,0.409-2.181
		c0.293-0.819,0.779-1.774,1.519-2.868c1.745-2.588,3.137-4.954,4.151-7.257c0.506-1.153,0.918-2.293,1.212-3.452
		c0.293-1.158,0.47-2.34,0.47-3.554c0.001-1.009-0.126-2.04-0.408-3.046c-0.487-1.767-1.486-3.399-2.745-4.65
		c-0.944-0.947-2.015-1.707-3.157-2.339c-1.719-0.946-3.608-1.624-5.716-2.183c-2.108-0.555-4.443-0.98-7.054-1.332
		c-1.142-0.15-2.109-0.3-2.802-0.469c-0.52-0.123-0.876-0.256-1.052-0.344l-0.117-0.065c-0.014-0.037-0.033-0.096-0.057-0.206
		c-0.041-0.189-0.082-0.508-0.082-0.969c0-0.154,0.005-0.325,0.015-0.511c0.37-6.731,1.424-13.048,3.419-18.916
		c1.999-5.872,4.924-11.308,9.151-16.382c0.356-0.434,1.009-1.008,1.892-1.559c1.32-0.833,3.135-1.606,5.026-2.127
		c1.89-0.526,3.867-0.804,5.468-0.8c1.198-0.006,2.182,0.164,2.682,0.343c0.166,0.056,0.258,0.1,0.315,0.131
		c2.303,3.5,5.168,6.682,8.409,9.507c4.968,4.321,10.8,7.829,16.923,10.3c6.125,2.464,12.542,3.895,18.756,3.9
		c2.447,0,4.864,0.27,7.212-0.73h0.003c0.985,0,2.136-0.506,3.386-1.055c0.627-0.277,1.283-0.617,1.966-1.108
		c0.677-0.492,1.4-1.14,2.024-2.091c2.704-4.154,4.398-8.598,5.621-13.124c1.224-4.529,1.803-9.144,1.803-13.714v-0.005
		c0-0.196,0.185-0.395,0.185-0.593C998.185,571.979,998.189,570.685,997.824,569.462z M899.076,581.363
		c-2.698,3.423-4.99,7.092-6.69,10.908c-1.695,3.817-2.809,7.793-3.037,11.828c-0.238,4.275-0.706,8.551-1.428,12.739
		c-0.451,2.623-0.723,4.993-0.725,7.238c0.002,2.266,0.278,4.444,1.087,6.524c0.602,1.553,1.529,3.021,2.72,4.223
		c0.889,0.903,1.907,1.655,2.99,2.266c1.629,0.915,3.392,1.526,5.29,1.98c1.901,0.451,3.953,0.744,6.224,0.95
		c1.104,0.1,2.12,0.185,3.004,0.278c-0.383,0.491-0.834,1.038-1.374,1.651c-1.736,1.973-3.16,4.217-4.155,6.673
		c-0.995,2.454-1.558,5.125-1.557,7.886c-0.001,2.229,0.368,4.511,1.133,6.75c0.765,2.24,1.922,4.435,3.464,6.518
		c2.217,2.99,4.017,6.784,5.502,10.716c0.393,1.028,0.525,1.854,0.523,2.388c-0.001,0.366-0.054,0.594-0.106,0.74
		c-0.04,0.11-0.079,0.181-0.136,0.257c-0.085,0.11-0.217,0.255-0.561,0.449c-0.34,0.19-0.898,0.412-1.726,0.569
		c-0.832,0.158-1.61,0.311-2.295,0.415c-0.683,0.106-1.271,0.16-1.675,0.158c-0.04,0-0.07-0.002-0.107-0.003
		c-0.041-0.252-0.264-0.617-0.262-1.106c0-0.112-0.18-0.232-0.18-0.361v-0.034c0-0.111,0.191-0.228,0.191-0.352
		c0.002-1.281-0.114-2.545-0.509-3.699c-0.591-1.74-1.527-3.185-2.584-4.322c-1.063-1.144-2.179-2.021-3.288-2.777
		c-1.107-0.756-1.926-1.532-2.602-2.361c-1.007-1.242-1.696-2.633-2.224-4.396c-0.522-1.754-0.838-3.868-1.018-6.307
		c-0.241-3.182-0.78-5.997-1.802-8.532c-0.762-1.896-1.817-3.631-3.173-5.085c-1.014-1.09-2.185-2.012-3.446-2.742
		c-1.896-1.101-3.961-1.775-6.107-2.183c-2.15-0.406-4.402-0.555-6.804-0.556c-0.746,0-1.506,0.015-2.282,0.042
		c-4.205,0.149-8.115,0.994-11.768,2.106c-5.481,1.678-10.428,3.931-15.155,5.657c-2.361,0.868-4.662,1.61-6.932,2.129
		c-2.271,0.52-4.508,0.622-6.783,0.622c-0.284,0-0.57-0.209-0.855-0.209h0.021c-0.111,0-0.212,0.19-0.299,0.19
		c-1.33-0.01-2.68,0.456-3.735,1.03c-0.798,0.426-1.441,0.988-1.96,1.489c-0.778,0.756-1.302,1.509-1.729,2.138
		c-0.424,0.629-0.749,1.182-1.012,1.586c-1.889,2.905-4.063,4.897-6.35,6.188c-2.292,1.286-4.721,1.899-7.246,1.903
		c-2.833-0.001-5.802-0.787-8.678-2.428c-2.871-1.639-5.638-4.13-7.977-7.5c-4.33-6.239-7.768-12.431-10.117-18.789
		c-2.35-6.364-3.787-12.89-3.79-19.956c0-1.455,0.011-2.934,0.011-4.439v-0.002c0-0.312,0.189-0.615,0.19-0.918
		c-0.002-0.896-0.005-1.789-0.161-2.709c-0.119-0.688-0.242-1.388-0.468-2.099c-0.351-1.066-0.771-2.165-1.688-3.35
		c-0.466-0.586-1.068-1.206-1.946-1.729c-0.864-0.523-2.034-0.902-3.23-0.894c-0.835-0.002-1.644,0.172-2.339,0.441
		c-0.699,0.271-1.289,0.628-1.8,1.013c-0.912,0.688-1.66,1.064-2.299,1.287c-0.642,0.221-1.186,0.301-1.787,0.304
		c-0.663,0-1.407-0.114-2.286-0.356c-1.316-0.357-2.896-1.023-4.732-1.758c-1.839-0.723-3.954-1.523-6.467-1.881
		c-1.035-0.144-2.247-0.348-3.571-0.525c-1.327-0.176-2.77-0.326-4.313-0.327c-1.162,0-2.386,0.087-3.652,0.342
		c-1.893,0.377-3.916,1.176-5.692,2.585c-1.781,1.4-3.229,3.354-4.225,5.653c-0.494,1.135-1.176,2.363-1.964,3.686
		c-1.178,1.987-2.601,4.168-3.817,6.727c-0.605,1.28-1.154,2.662-1.557,4.165c-0.402,1.502-0.653,3.129-0.652,4.841
		c-0.001,1.53,0.2,3.122,0.63,4.728c0.428,1.606,1.08,3.224,1.956,4.844c1.784,3.303,3.23,6.558,4.218,9.733
		c0.988,3.178,1.52,6.266,1.52,9.301c-0.002,2.573-0.377,5.116-1.221,7.718c-0.845,2.601-2.165,5.269-4.118,8.046
		c-2.389,3.398-4.254,6.959-5.914,10.483c-2.483,5.29-4.529,10.506-6.977,15.13c-1.221,2.314-2.534,4.48-4.025,6.461
		c-1.493,1.981-3.16,3.78-5.122,5.393l-1.385,1.137l-0.347,1.758c-0.097,0.469-0.218,0.727-0.37,0.968
		c-0.116,0.179-0.26,0.352-0.472,0.546c-0.314,0.289-0.793,0.62-1.441,0.96c-0.646,0.342-1.449,0.688-2.353,1.055
		c-1.866,0.759-3.608,1.664-5.195,2.774c-2.376,1.656-4.407,3.822-5.761,6.45c-1.362,2.623-2.133,5.623-2.129,8.768
		c0.002,0.688-0.037,1.384-0.037,2.088v-0.004c0,0.169,0.15,0.414,0.15,0.683c0.002,0.288,0.048,0.608,0.024,0.912
		c-1.354,0.666-2.571,1.416-3.693,2.257c-2.922,2.178-4.974,4.931-6.33,7.755c-1.025,2.121-1.678,4.277-2.161,6.376
		c-0.72,3.15-1.057,6.193-1.466,8.953c-0.399,2.76-0.872,5.221-1.624,7.179c-0.849,2.217-1.256,4.471-1.253,6.637
		c-0.002,2.359,0.476,4.592,1.228,6.616c1.135,3.045,2.849,5.649,4.674,7.992c1.83,2.339,3.797,4.429,5.563,6.342
		c0.416,0.446,0.833,1.145,1.136,2.094c0.304,0.942,0.481,2.114,0.479,3.35c0.011,2.105-0.53,4.378-1.379,5.99
		c-0.418,0.81-0.898,1.45-1.351,1.883c-0.456,0.437-0.858,0.667-1.234,0.792c-0.383,0.125-0.638,0.152-0.812,0.152
		c-0.194-0.002-0.299-0.028-0.432-0.08c-0.189-0.077-0.479-0.256-0.844-0.69c-0.359-0.428-0.757-1.1-1.069-1.938
		c-2.452-6.509-4.903-12.819-6.395-19.065c-0.648-2.705-1.482-5.3-2.582-7.751c-1.645-3.672-3.914-7.038-6.976-9.775
		c-3.055-2.742-6.868-4.799-11.312-6.021c-1.013-0.279-1.781-0.576-2.308-0.84c-0.396-0.196-0.653-0.372-0.803-0.493
		c-0.113-0.091-0.166-0.151-0.188-0.179l-0.012-0.016c-0.004-0.014-0.017-0.065-0.017-0.202c-0.004-0.26,0.069-0.828,0.343-1.643
		c0.268-0.813,0.721-1.854,1.344-3.056c0.857-1.681,2.284-3.775,3.627-6.231c0.669-1.235,1.317-2.578,1.821-4.077
		c0.501-1.496,0.856-3.167,0.856-4.975c0.007-1.947-0.439-4.031-1.392-5.978c-0.949-1.954-2.356-3.759-4.167-5.438
		c-1.532-1.406-3.096-2.949-5.258-4.29c-1.078-0.663-2.311-1.252-3.678-1.654c-1.366-0.405-2.853-0.618-4.399-0.616
		c-1.47,0-2.994,0.185-4.599,0.535c-1.339,0.293-2.787,0.442-4.319,0.442c-2.95,0.002-6.21-0.559-9.497-1.618
		c-4.933-1.582-9.911-4.288-14.047-7.604c-4.146-3.307-7.418-7.229-9.162-10.996c-2.201-4.724-4.996-8.854-8.316-12.428
		c-3.319-3.576-7.151-6.593-11.397-9.183c-2.682-1.635-4.506-3.38-5.624-5.072c-0.562-0.851-0.957-1.69-1.221-2.552
		s-0.398-1.749-0.399-2.716c0-1.93,0.557-4.238,1.981-6.958c1.498-2.854,2.512-5.746,3.139-8.604
		c0.627-2.858,0.871-5.679,0.871-8.419c-0.002-3.944-0.498-7.729-1.104-11.351c-0.608-3.622-1.33-7.09-1.854-10.388
		c-0.269-1.675-0.726-3.356-1.414-4.99c-1.033-2.44-2.599-4.818-4.929-6.663c-1.161-0.917-2.512-1.683-4.007-2.204
		c-1.493-0.523-3.123-0.798-4.806-0.797c-1.697,0-3.446,0.272-5.223,0.8c-0.049,0.015-0.086,0.022-0.132,0.035
		c-0.069-0.4-0.132-0.888-0.186-1.457l-1.198-12.519l-7.725,9.924c-1.287,1.656-2.298,3.309-3.227,4.81
		c-1.383,2.261-2.602,4.149-3.867,5.387c-0.634,0.626-1.265,1.106-1.984,1.49c-0.722,0.383-1.544,0.681-2.642,0.864
		c-1.157,0.19-2.285,0.554-3.328,1.104c-1.564,0.819-2.927,2.087-3.831,3.633c-0.912,1.544-1.354,3.326-1.349,5.079
		c0,1.557,0.33,3.095,0.918,4.564c0.534,1.337,0.679,2.275,0.678,2.891c-0.006,0.55-0.092,0.872-0.249,1.227
		c-0.121,0.263-0.3,0.549-0.586,0.882c-0.425,0.498-1.104,1.09-2.022,1.71c-0.916,0.623-2.061,1.272-3.344,1.943
		c-2.745,1.438-5.097,3.157-7.24,4.868c-3.213,2.576-5.996,5.119-8.878,7.058c-1.441,0.974-2.899,1.805-4.46,2.468
		c-1.562,0.662-3.228,1.161-5.133,1.451c-2.126,0.319-4.113,1.07-5.809,2.17c-2.558,1.647-4.404,4.021-5.553,6.588
		c-1.156,2.578-1.671,5.372-1.674,8.191c0.002,2.739,0.491,5.515,1.467,8.182c0.977,2.665,2.446,5.227,4.448,7.468
		c2.762,3.085,4.74,5.807,5.949,8.095c0.606,1.145,1.023,2.175,1.284,3.09c0.261,0.917,0.369,1.715,0.37,2.447
		c-0.003,0.868-0.146,1.655-0.468,2.514c-0.482,1.277-1.425,2.749-3.077,4.423c-1.645,1.67-3.978,3.503-7.007,5.443
		c-2.194,1.408-4.368,2.813-6.46,4.388c-1.567,1.181-3.089,2.459-4.51,3.911c-2.131,2.172-4.028,4.761-5.412,7.849
		c-1.39,3.086-2.254,6.628-2.542,10.664c-0.106,1.497-0.454,3.152-1.048,4.725c-0.891,2.371-2.319,4.513-4.153,5.98
		c-0.921,0.74-1.946,1.329-3.132,1.75c-1.187,0.418-2.544,0.671-4.166,0.673c-0.506,0-1.038-0.025-1.596-0.08
		c-0.597-0.059-1.184-0.088-1.762-0.088c-1.203,0-2.371,0.13-3.484,0.403c-1.949,0.469-3.705,1.408-5.067,2.582
		c-1.028,0.878-1.847,1.864-2.508,2.854c-0.993,1.491-1.655,2.993-2.198,4.395c-0.539,1.402-0.955,2.717-1.345,3.838
		c-0.417,1.204-0.858,2.187-1.285,2.938c-0.645,1.139-1.23,1.713-1.635,1.983c-0.208,0.139-0.381,0.218-0.58,0.278
		c-0.2,0.059-0.434,0.1-0.767,0.101c-0.418,0-0.999-0.072-1.754-0.296c-0.753-0.222-1.675-0.594-2.736-1.147
		c-1.406-0.731-2.956-1.475-4.684-2.062c-1.726-0.583-3.65-1.015-5.751-1.017c-1.793-0.004-3.708,0.334-5.551,1.11
		c-0.804,0.336-1.273,0.388-1.498,0.388c-0.167-0.003-0.228-0.02-0.318-0.05c-0.124-0.047-0.365-0.166-0.763-0.556
		c-0.392-0.382-0.898-1.019-1.441-1.858c-0.98-1.513-2.144-2.794-3.389-3.827c-1.873-1.558-3.87-2.542-5.724-3.293
		c-1.864-0.751-3.615-1.294-5.249-1.896l-0.146-0.054l0.148,0.055c-4.646-1.706-9.083-2.49-13.272-2.488
		c-4.416-0.003-8.524,0.87-12.282,2.271c-5.646,2.109-10.523,5.347-15.062,8.704c-4.534,3.365-8.754,6.876-12.934,9.736
		c-1.979,1.363-3.703,2.626-5.15,3.423c-0.721,0.401-1.362,0.688-1.91,0.862c-0.551,0.175-0.998,0.244-1.423,0.245
		c-0.546-0.007-1.099-0.098-1.937-0.489c-3.751-1.798-7.551-2.567-11.125-2.561c-4.252,0.002-8.141,1.035-11.644,2.363
		c-3.507,1.335-6.675,2.977-9.544,4.39c-2.401,1.186-4.625,2.048-6.643,2.605c-2.02,0.558-3.83,0.811-5.435,0.81
		c-1.521-0.001-2.859-0.221-4.097-0.637c-1.849-0.631-3.526-1.697-5.199-3.469c-1.664-1.768-3.283-4.267-4.733-7.596
		c-5.756-13.181-11.873-26.599-20.596-38.867c-0.483-0.675-1.02-1.569-1.661-2.596c-0.483-0.769-1.028-1.613-1.703-2.484
		c-1.007-1.299-2.347-2.698-4.2-3.753c-0.921-0.524-1.957-0.951-3.063-1.231c-1.032-0.263-2.125-0.39-3.248-0.407
		c0.008-0.09,0.013-0.171,0.023-0.266c0.049-0.458,0.118-0.956,0.183-1.495c0.134-1.114,0.204-2.202,0.204-3.266
		c0-2.36-0.345-4.613-1.124-6.696c-0.582-1.56-1.413-3.013-2.463-4.274c-1.575-1.9-3.617-3.329-5.846-4.281
		c-2.236-0.959-4.662-1.481-7.24-1.703c-1.055-0.087-1.816-0.224-2.274-0.348c0.001-0.731,0.176-2.106,0.497-3.914
		c1.445-8.332,3.493-16.087,7.018-22.874c2.031-3.919,3.176-7.802,3.179-11.646c0.001-1.745-0.242-3.468-0.729-5.111
		c-0.727-2.469-2.001-4.731-3.654-6.702c-1.655-1.976-3.678-3.676-5.984-5.173c-2.144-1.384-3.417-2.592-4.008-3.388
		c-0.301-0.397-0.439-0.683-0.504-0.858c-0.064-0.18-0.068-0.253-0.07-0.333c0.002-0.102,0.014-0.261,0.167-0.61
		c0.22-0.514,0.821-1.392,1.82-2.4c0.991-1.014,2.345-2.158,3.904-3.362l2.5-1.933l-0.673-3.087
		c-0.818-3.754-2.101-7.264-3.841-10.438c-2.605-4.762-6.266-8.77-10.804-11.618c-4.534-2.854-9.912-4.523-15.792-4.82
		c-6.583-0.339-13.164-0.471-19.73-0.471c-7.854,0-15.688,0.189-23.479,0.448c-3.001,0.097-5.759,0.785-8.227,1.757
		c-3.71,1.465-6.812,3.512-9.665,5.384c-2.848,1.886-5.454,3.601-7.961,4.687h0c-2.281,0.995-4.767,1.835-7.388,2.668
		c-3.931,1.254-8.171,2.479-12.429,4.379c-4.095,1.827-8.222,4.353-11.833,8.127c-0.282,0.047-0.818,0.105-1.494,0.096
		c-0.842,0.001-1.893-0.06-3.034-0.13c-1.145-0.068-2.38-0.147-3.673-0.148c-0.593,0-1.199,0.018-1.821,0.065l-0.001,0.001
		c-0.487,0.039-1.144,0.068-1.934,0.148c-0.593,0.062-1.266,0.153-2.015,0.337c-0.561,0.139-1.166,0.332-1.795,0.618
		c-0.714,0.321-1.462,0.78-2.148,1.378c-0.091-0.131-0.172-0.267-0.265-0.396c-1.578-2.183-3.456-4.184-5.538-6.114
		c-2.975-2.746-5.019-4.926-6.13-6.554c-0.561-0.813-0.893-1.473-1.084-2.009c-0.189-0.54-0.258-0.958-0.261-1.45
		c0-0.436,0.063-0.944,0.247-1.607c0.271-0.991,0.836-2.318,1.765-3.979c0.925-1.661,2.201-3.646,3.802-5.983
		c1.82-2.673,3.963-5.469,5.781-8.668c0.906-1.603,1.729-3.317,2.337-5.191c0.608-1.87,0.993-3.909,0.992-6.061
		c0.001-1.921-0.309-3.917-0.962-5.906c-0.584-1.784-1.45-3.561-2.565-5.332c0.14-0.166,0.316-0.36,0.532-0.576
		c0.466-0.473,1.085-1.032,1.77-1.661l0-0.001c19.489-18.009,38.111-36.297,60.164-49.961h0c2.145-1.34,4.401-2.932,6.326-5.161
		c0.957-1.117,1.826-2.41,2.462-3.912c0.637-1.496,1.019-3.205,1.016-4.982c0.001-1.519-0.271-3.069-0.79-4.588
		c-0.519-1.521-1.276-3.016-2.253-4.502c-0.239-0.362-0.396-0.661-0.5-0.889c0.06-0.026,0.116-0.052,0.189-0.078
		c0.444-0.166,1.109-0.331,1.923-0.428c1.161-0.14,2.371-0.314,3.625-0.606c1.871-0.437,3.895-1.147,5.783-2.513
		c0.938-0.679,1.824-1.519,2.586-2.497c0.764-0.978,1.401-2.088,1.901-3.291l1.896-4.556l-4.531-1.956
		c-1.307-0.56-2.538-0.696-3.584-0.698c-1.047,0.002-1.955,0.138-2.777,0.295c-0.675,0.132-1.291,0.281-1.852,0.423
		c-0.164-1.364-0.461-2.646-0.821-3.837c-0.807-2.635-1.86-4.925-2.612-6.927c-0.379-0.997-0.686-1.913-0.885-2.72
		c-0.201-0.808-0.292-1.499-0.292-2.075c0.009-0.783,0.129-1.345,0.49-2.056c0.369-0.703,1.053-1.603,2.44-2.693
		c2.005-1.572,4.259-2.763,6.749-3.736c2.486-0.973,5.197-1.716,8.021-2.393c4.764-1.142,8.996-2.865,12.751-5.058
		c5.643-3.289,10.174-7.605,14.083-12.414c3.915-4.816,7.247-10.133,10.595-15.658c3.333-5.506,7.63-10.978,12.76-15.581
		c5.133-4.608,11.076-8.344,17.766-10.538l1.88-0.617l0.949-1.736c0.368-0.672,0.706-1.096,0.989-1.38
		c0.433-0.419,0.735-0.583,1.217-0.747c0.477-0.154,1.167-0.253,2.1-0.251c0.875-0.001,1.94,0.086,3.143,0.194
		c1.205,0.105,2.547,0.231,4.024,0.233c1.089-0.001,2.257-0.071,3.488-0.307c0.344-0.068,0.901-0.113,1.613-0.111
		c0.943-0.003,2.139,0.075,3.521,0.078c1.007-0.001,2.123-0.043,3.35-0.264c0.917-0.167,1.902-0.441,2.896-0.904
		c1.492-0.683,2.967-1.849,4.037-3.354c1.083-1.504,1.785-3.26,2.22-5.2l1.945-8.688l-8.431,2.861
		c-4.427,1.501-8.953,2.001-13.999,2.002c-1.347,0-2.742-0.044-4.16-0.106c1.302-1.358,2.654-2.728,4.012-4.172
		c2.375-2.533,4.759-5.284,6.615-8.641c0.925-1.676,1.708-3.505,2.251-5.49c0.545-1.984,0.846-4.119,0.845-6.37
		c0-0.214-0.012-0.434-0.017-0.65c0.023-0.004,0.042-0.009,0.065-0.013c0.806-0.156,1.793-0.297,2.959-0.607l0.001,0
		c4.49-1.213,8.21-3.581,11.165-6.389c2.965-2.813,5.225-6.054,7.078-9.251c1.161-1.996,1.675-4.221,1.669-6.323
		c-0.003-2.368-0.605-4.595-1.548-6.61c-1.428-3.021-3.622-5.63-6.343-7.617c-1.364-0.989-2.869-1.818-4.504-2.413
		c-1.634-0.593-3.406-0.95-5.255-0.95c-0.39,0-0.783,0.016-1.178,0.049c-2.088,0.175-4.036,0.511-5.86,0.835
		c-1.824,0.327-3.526,0.643-5.115,0.834l-0.024,0.003c-0.962,0.117-1.961,0.207-3.021,0.287c0.571-1.249,1.207-2.375,1.918-3.368
		c0.904-1.263,1.925-2.342,3.149-3.291c1.226-0.947,2.664-1.77,4.438-2.459l0.001,0c0.609-0.238,1.403-0.508,2.307-0.857
		c0.678-0.263,1.421-0.573,2.206-0.984c1.168-0.616,2.476-1.479,3.608-2.843c0.561-0.677,1.062-1.476,1.436-2.355
		c0.376-0.879,0.625-1.832,0.739-2.801c0.059-0.495,0.08-0.96,0.08-1.399c-0.006-1.448-0.207-2.636-0.35-3.628
		c-0.077-0.492-0.138-0.934-0.18-1.3c4.749-0.4,9.301-0.959,13.539-0.954c3.741,0.001,7.186,0.424,10.458,1.618
		c-0.038,0.528-0.22,1.453-0.517,2.632c-0.164,0.678-0.35,1.438-0.505,2.287c-0.154,0.85-0.283,1.793-0.284,2.851
		c0,0.817,0.08,1.708,0.311,2.638c0.336,1.393,1.06,2.859,2.127,4.059c1.064,1.21,2.4,2.146,3.888,2.862
		c2.315,1.111,4.983,2.564,7.931,3.805c1.477,0.619,3.031,1.185,4.68,1.608c1.648,0.421,3.397,0.888,5.234,0.889
		c1.868,0.002,3.83-0.82,5.748-0.82h0.001c2.662-1,4.854-1.568,6.671-1.567c1.151,0.001,2.162,0.058,3.117,0.339
		c1.428,0.425,2.768,1.101,4.171,2.249c1.397,1.145,2.832,2.702,4.281,4.727l13.708,19.118l-4.746-23.057
		c-0.289-1.387-0.411-2.438-0.408-3.133c0.001-0.572,0.067-0.898,0.146-1.143c0.063-0.186,0.136-0.344,0.283-0.563
		c0.217-0.324,0.633-0.797,1.411-1.413c0.772-0.614,1.891-1.353,3.371-2.196c4.708-2.699,10.388-5.849,15.344-10.498
		c2.474-2.328,4.765-5.054,6.569-8.288c1.807-3.229,3.105-6.962,3.635-11.148v-0.001c0.112-0.881,0.271-1.783,0.473-2.584
		c0.149-0.597,0.322-1.136,0.494-1.559c0.552,0.423,1.311,1.129,2.209,2.162c0.409,0.466,0.793,0.818,1.194,1.156
		c0.602,0.5,1.218,0.939,1.936,1.348c0.364,0.204,0.749,0.401,1.246,0.591c0.25,0.094,0.531,0.188,0.879,0.269
		c0.35,0.079,0.767,0.153,1.332,0.156c0.355-0.001,0.773-0.099,1.262-0.215c0.486-0.115,1.051-0.75,1.613-0.75h0.001
		c1.352-1,2.589-1.335,3.778-1.679c1.19-0.342,2.341-0.454,3.541-0.455c1.709-0.001,3.53,0.329,5.501,0.877
		c2.956,0.814,6.197,2.18,9.744,3.429c1.776,0.621,3.636,1.215,5.603,1.658c1.966,0.442,4.045,0.74,6.227,0.74
		c0.479,0,0.963-0.013,1.452-0.043l3.866-0.238l0.735-3.803c0.088-0.455,0.12-0.882,0.12-1.27c-0.008-0.682-0.091-1.246-0.204-1.736
		c0.359-0.109,0.71-0.23,1.048-0.366c1.251-0.501,2.351-1.16,3.321-1.874c1.697-1.256,3.022-2.673,4.198-4.014
		c0.878-1.007,1.669-1.981,2.403-2.84c1.094-1.293,2.083-2.307,2.82-2.832c0.367-0.267,0.658-0.417,0.874-0.497
		c0.22-0.079,0.363-0.104,0.568-0.107c0.232,0.002,0.581,0.04,1.182,0.283c0.596,0.242,1.427,0.702,2.461,1.496
		c0.298,0.219,0.815,0.773,1.418,1.624c0.456,0.633,0.964,1.414,1.556,2.272c0.896,1.281,1.958,2.777,3.637,4.145
		c0.839,0.677,1.849,1.307,3.019,1.753c1.167,0.449,2.481,0.696,3.812,0.693c1.239,0,2.485-0.203,3.718-0.567
		c2.693-0.797,5.637-1.262,8.779-1.618c4.711-0.545,9.85-0.82,15.162-1.974c2.654-0.581,5.354-1.395,8.019-2.611
		c2.665-1.214,5.289-2.837,7.749-4.973c4.907-4.274,11.151-7.753,17.522-11.5c1.685-0.997,3.552-1.456,5.283-1.455
		c1.406-0.002,2.703,0.309,3.672,0.785c0.979,0.479,1.599,1.079,1.943,1.668c1.901,3.236,4.083,6.001,6.496,8.326
		c3.618,3.494,7.736,5.965,12.044,7.724c4.313,1.763,8.817,2.845,13.411,3.664l1.947,0.346l1.657-1.079
		c1.173-0.771,2.803-1.493,4.699-2.269c1.42-0.588,2.984-1.214,4.603-2.032c1.212-0.615,2.459-1.343,3.669-2.278
		c1.813-1.39,3.539-3.306,4.697-5.75c1.032-2.157,1.578-4.658,1.694-7.418c0.156,0.044,0.318,0.097,0.488,0.167
		c0.576,0.231,1.197,0.605,1.739,1.093c1.968,1.756,3.819,3.205,5.747,4.319c0.966,0.555,1.957,1.027,3.021,1.378
		c1.062,0.349,2.208,0.578,3.427,0.578c1.651,0.015,3.428-0.476,4.862-1.399c1.083-0.684,1.973-1.559,2.698-2.505
		c1.088-1.428,1.848-3.018,2.482-4.792c0.63-1.777,1.125-3.755,1.547-6.005c0.107-0.584,0.337-1.301,0.682-2.136
		c0.511-1.256,1.283-2.739,2.021-4.504c0.366-0.885,0.723-1.849,0.997-2.918c0.156-0.606,0.279-1.252,0.362-1.927
		c0.229,0.524,0.475,1.067,0.757,1.631c0.705,1.385,1.597,2.926,3.129,4.331l8.895,8.058l-0.542-11.989
		c-0.022-0.488-0.033-0.952-0.033-1.39c-0.001-1.39,0.112-2.528,0.288-3.354c0.129-0.621,0.292-1.062,0.425-1.329
		c0.102-0.202,0.182-0.307,0.228-0.36l0.137-0.1c0.081-0.033,0.306-0.107,0.797-0.108c0.908-0.014,2.698,0.33,5.138,1.365
		c4.752,1.985,9.428,3.1,13.626,4.429c2.102,0.66,4.084,1.363,5.919,2.202c1.837,0.839,3.523,1.808,5.086,3.011
		c1.424,1.101,2.984,1.916,4.571,2.422c1.587,0.51,3.184,0.714,4.692,0.713c1.782-0.001,3.448-0.272,5.005-0.646
		c1.558-0.376,3.014-0.858,4.39-1.343c3.954-1.394,7.817-2.606,11.597-3.46c3.78-0.855,7.472-1.354,11.115-1.354
		c5.25,0.008,10.401,1.003,15.849,3.592c4.304,2.048,9.309,3.617,14.751,3.624c3.501,0.004,7.176-0.679,10.745-2.291v0
		c0.013-0.011,0.223-0.054,0.404-0.068c7.592,5.351,15.641,9.437,23.027,13.852c3.792,2.26,7.411,4.6,10.734,7.198
		c3.325,2.599,6.354,5.451,9.012,8.76l1.557,1.938l2.483-0.07c0.204-0.006,0.406-0.009,0.606-0.009
		c1.877,0.001,3.471,0.248,4.865,0.68c2.087,0.655,3.771,1.7,5.343,3.262c1.562,1.561,2.982,3.681,4.222,6.382
		c1.684,3.669,3.727,7.045,6.289,10.11c2.561,3.066,5.629,5.802,9.268,8.254c1.392,0.943,2.075,1.774,2.469,2.481
		c0.385,0.715,0.544,1.378,0.552,2.286c0.001,0.66-0.106,1.438-0.339,2.312c-0.344,1.308-0.974,2.812-1.771,4.355
		c-0.796,1.546-1.751,3.13-2.701,4.675c-10.473,17.033-20.991,34.263-28.518,53.515c-1.589,4.055-2.577,8.149-2.574,12.456
		c-0.001,2.736,0.397,5.524,1.193,8.372c0.868,3.11,1.728,6.125,2.354,9.043c0.629,2.919,1.023,5.734,1.022,8.46
		c-0.003,2.777-0.396,5.459-1.386,8.215c-0.52,1.438-0.796,2.933-0.795,4.402c-0.001,1.339,0.229,2.646,0.638,3.841
		c0.612,1.799,1.599,3.331,2.723,4.616c1.129,1.289,2.403,2.353,3.733,3.277l5.319,3.691l2.227-6.08
		c0.182-0.49,0.345-0.722,0.457-0.855c0.087-0.1,0.152-0.154,0.247-0.216c0.14-0.088,0.375-0.199,0.804-0.292
		c0.424-0.092,1.026-0.151,1.76-0.149c0.247,0,0.509,0.006,0.784,0.018c11.236,0.482,22.234,1.275,32.751,3.373
		c10.502,2.094,20.509,5.466,29.959,11.1c-0.014,0.084-0.018,0.176-0.038,0.28c-0.086,0.454-0.365,1.082-0.365,1.854v-0.003
		c0,2.192-0.645,4.302-0.645,6.345c-0.001,2.669,0.376,5.236,1.224,7.628c0.633,1.792,1.525,3.477,2.659,4.989
		c1.7,2.275,3.912,4.139,6.461,5.602c2.553,1.467,5.444,2.559,8.663,3.38c5.407,1.38,10.476,3.21,15.24,5.667
		c4.766,2.459,9.233,5.541,13.461,9.484c2.527,2.361,5.47,4.06,8.562,5.146c3.096,1.089,6.341,1.581,9.574,1.581
		c6.039-0.009,12.061-1.688,17.278-4.719c2.606-1.52,5.013-3.387,7.087-5.596c2.071-2.208,3.812-4.764,5.033-7.63
		c0.415-0.983,0.661-1.826,0.884-2.519c0.157-0.499,0.295-0.908,0.413-1.204c2.67-0.313,5.081-1.136,7.086-2.375
		c1.661-1.017,3.022-2.279,4.126-3.594c1.659-1.98,2.78-4.059,3.752-5.971c0.964-1.917,1.781-3.689,2.625-5.131
		c1.056-1.833,2.038-3.293,2.7-3.979c0.104-0.112,0.191-0.195,0.271-0.266c0.249,0.149,0.634,0.427,1.125,0.889
		c0.536,0.502,1.188,1.21,1.928,2.137c1.417,1.773,2.893,3.271,4.242,4.63c2.035,2.032,3.756,3.773,4.819,5.404
		c0.539,0.816,0.929,1.593,1.198,2.416c0.267,0.824,0.424,1.703,0.426,2.799c0,0.958-0.127,2.085-0.458,3.439
		c-1.217,5.022-1.521,9.774-2.226,13.99c-0.347,2.109-0.777,4.082-1.396,5.912c-0.621,1.833-1.419,3.524-2.535,5.149
		c-1.761,2.561-2.783,5.28-3.422,7.866c-0.95,3.891-1.143,7.531-1.586,10.687c-0.216,1.578-0.479,3.03-0.854,4.336
		c-0.375,1.309-0.853,2.465-1.501,3.53c-0.474,0.776-0.725,1.555-0.857,2.211c-0.132,0.662-0.158,1.218-0.159,1.686
		c0.002,0.688,0.059,1.202,0.093,1.584c0.021,0.213,0.033,0.379,0.041,0.497c-1.213,3.405-2.225,6.232-2.978,8.762
		c-0.772,2.627-1.313,4.961-1.324,7.427c0,0.96,0.092,1.937,0.306,2.902c0.366,1.696,1.137,3.321,2.149,4.684
		c0.758,1.029,1.635,1.931,2.592,2.768c1.44,1.256,3.071,2.386,4.972,3.592c1.9,1.203,4.075,2.478,6.603,3.947
		c0.65,0.378,1.117,0.722,1.436,1.003c0.48,0.43,0.621,0.685,0.693,0.834c0.065,0.154,0.098,0.256,0.104,0.564
		c0.002,0.285-0.056,0.746-0.224,1.367c-0.165,0.618-0.437,1.385-0.784,2.255c-0.561,1.418-0.854,2.669-1.123,3.666
		c-0.196,0.747-0.375,1.349-0.532,1.742c-0.116,0.298-0.216,0.473-0.263,0.541l-0.013,0.018l-0.006,0.002
		c-0.085,0.031-0.391,0.122-1.041,0.122c-0.364,0-0.831-0.028-1.399-0.106c-3.938-0.535-7.736-0.93-11.168-1.514
		c-2.573-0.436-4.934-0.978-6.979-1.705c-1.537-0.545-2.896-1.189-4.08-1.957c-1.775-1.16-3.185-2.554-4.376-4.581
		c-1.181-2.027-2.137-4.759-2.626-8.563c-0.172-1.371-0.674-2.671-1.38-3.748c-1.064-1.627-2.516-2.752-4.025-3.495
		c-1.52-0.742-3.133-1.131-4.781-1.226c-0.469-0.026-0.939-0.039-1.407-0.039c-5.324,0.011-10.618,1.591-15.646,4.089
		C911.494,568.644,904.483,574.526,899.076,581.363z M60.916,661.331c-0.211,0.164-0.49,0.357-0.847,0.57
		c0.12-0.411,0.228-0.823,0.324-1.233C60.616,660.926,60.795,661.152,60.916,661.331z M45.829,692.554
		c2.933-3.28,4.917-7.066,6.432-10.975c1.118-2.894,1.989-5.874,2.776-8.868l0.676,0.312c0.64,0.295,1.198,0.655,1.747,1.108
		c0.956,0.787,1.882,1.895,2.85,3.304c0.726,1.053,1.469,2.262,2.291,3.557c1.237,1.937,2.648,4.086,4.623,6.103
		c0.987,1.006,2.12,1.971,3.424,2.815c0.244,0.158,0.499,0.307,0.754,0.456c-6.706,5.621-13.594,10.512-20.887,14.472
		C43.056,708.886,35.192,712,26.554,713h0.002c-0.372,0-0.775,0.246-1.137,0.245c-0.189,0.001-0.368,0.068-0.523,0.053
		c-0.025-1.438-0.137-2.806-0.247-4.163c-0.124-1.5-0.232-2.92-0.231-4.132c-0.001-0.833,0.052-1.545,0.144-2.067
		c0.067-0.393,0.155-0.664,0.218-0.811c0.018-0.043,0.031-0.064,0.043-0.086l0.05-0.017c0.083-0.022,0.221-0.052,0.427-0.07l0,0.001
		c5.212-0.474,9.665-1.748,13.404-3.773C41.506,696.666,43.879,694.735,45.829,692.554z M74.955,641.261L74.955,641.261
		L74.955,641.261L74.955,641.261z M74.333,641.723c0,0.001-0.001,0.001-0.001,0.002L74.333,641.723L74.333,641.723z
		 M268.789,300.568l0.036,0.015l-0.038-0.016l0,0C268.788,300.567,268.788,300.568,268.789,300.568z M602.057,218.277l-0.043-0.143
		v0L602.057,218.277z M602.107,217.599L602.107,217.599L602.107,217.599L602.107,217.599z M596.579,211.516
		c1.281,0.905,2.556,2.093,3.533,3.305c0.892,1.09,1.503,2.194,1.793,3.012c-0.099,0.103-0.228,0.228-0.409,0.376
		c-0.639,0.543-1.759,1.261-3.049,2.103c-1.239,0.827-2.654,1.771-4.022,3.194l-0.024,0.011c-0.198,0.093-0.817,0.264-1.698,0.451
		c-0.661,0.148-1.469,0.316-2.401,0.61c-0.699,0.223-1.477,0.52-2.296,0.985c-0.612,0.349-1.247,0.798-1.84,1.372
		c-0.894,0.854-1.656,2.003-2.112,3.248c-0.057,0.152-0.097,0.309-0.146,0.463c-2.521,0.56-5.265,0.985-8.229,1.593
		c-2.054,0.427-4.207,0.957-6.416,1.743c-2.119,0.753-4.288,1.757-6.428,3.105c-0.27-0.153-0.714-0.458-1.241-0.912
		c-1.05-0.883-2.377-2.263-3.948-3.695c-0.791-0.717-1.653-1.45-2.635-2.141c-0.533-0.374-1.107-0.735-1.724-1.068
		c0.011-0.023,0.019-0.043,0.03-0.067c0.318-0.682,0.748-1.475,1.18-2.36c2.717-5.611,7.146-10.326,12.41-13.611
		c5.26-3.29,11.319-5.116,17.139-5.11c3.501,0.001,6.912,0.647,10.101,2C594.873,210.432,595.728,210.911,596.579,211.516z
		 M722.734,250.187c0.001,0,0.003-0.001,0.004-0.001L722.734,250.187L722.734,250.187z M803.247,291.477L803.247,291.477
		c-0.001,0-0.002,0-0.003,0L803.247,291.477z M833.201,668.288L833.201,668.288c0-0.002,0.001-0.005,0.002-0.007L833.201,668.288z"
		/>
</g>
</svg>
