<?xml version="1.0" encoding="utf-8"?>
<!-- Generator: Adobe Illustrator 16.0.0, SVG Export Plug-In . SVG Version: 6.00 Build 0)  -->
<!DOCTYPE svg PUBLIC "-//W3C//DTD SVG 1.1//EN" "http://www.w3.org/Graphics/SVG/1.1/DTD/svg11.dtd">
<svg version="1.1" id="Layer_1" xmlns="http://www.w3.org/2000/svg" xmlns:xlink="http://www.w3.org/1999/xlink" x="0px" y="0px"
	 width="1000px" height="1000px" viewBox="0 0 1000 1000" style="enable-background:new 0 0 1000 1000;" xml:space="preserve">
<g>
	<path d="M381.307,499.767c-1.054,0.795-0.868,0.652,0.559-0.427c1.217-0.922,2.458-1.813,3.698-2.704
		c2.097-1.505,4.249-2.934,6.412-4.342c2.565-1.668,5.281-3.057,8.057-4.338c0.191-0.088,0.349-0.162,0.49-0.228
		c0.208-0.078,0.482-0.184,0.843-0.326c1.789-0.702,3.607-1.325,5.433-1.922c3.578-1.17,7.235-2.084,10.923-2.828
		c0.598-0.121,2.943-0.462,3.743-0.594c1.278-0.123,2.559-0.219,3.841-0.285c1.76-0.091,3.523-0.069,5.284-0.014
		c0.996,0.032,1.989,0.115,2.98,0.202c0.086,0.016,0.18,0.032,0.284,0.05c1.688,0.29,3.346,0.73,4.986,1.215
		c0.359,0.106,0.711,0.23,1.065,0.353c0.246,0.122,1.47,0.637,1.921,0.872c0.652,0.339,3.167,2.094,3.283,2.075
		c0.982,0.884,1.892,1.847,2.766,2.838c-1.275-1.389,1.599,2.481,2.064,3.303c0.185,0.339,0.348,0.688,0.523,1.032
		c0.159,0.365,0.682,1.501,0.801,1.834c0.592,1.649,1.022,3.351,1.409,5.057c0.066,0.293,0.163,0.908,0.241,1.418
		c0.046,0.65,0.081,1.301,0.106,1.952c0.062,1.536-0.028,3.072-0.169,4.602c0.225-2.794-0.834,2.955-1.22,4.122
		c-0.017,0.045-0.028,0.073-0.043,0.115c-0.396,0.809-0.829,1.598-1.275,2.379c-0.408,0.714-0.871,1.393-1.344,2.065
		c0.915-1.344-1.021,1.094-1.389,1.482c-0.589,0.604-1.198,1.187-1.826,1.749c-0.235,0.218-0.406,0.381-0.549,0.521
		c-0.163,0.111-0.355,0.246-0.595,0.416c-1.969,1.402-4.107,2.551-6.258,3.643c-0.69,0.314-1.115,0.511-1.307,0.604
		c-1.469,0.561-2.976,0.999-4.492,1.417c0.008-0.002-3.55,0.53-3.228,0.566c-1.275,0.07-2.554,0.032-3.828-0.015
		c-0.223-0.02-0.417-0.036-0.59-0.051c-1.287-0.237-2.544-0.613-3.794-0.993c-0.211-0.064-0.387-0.116-0.545-0.161
		c-0.182-0.101-0.423-0.227-0.746-0.388c-0.966-0.483-1.874-1.07-2.773-1.667c1.416,0.894-0.565-0.765-1.818-1.895
		c-0.275-0.365-0.63-0.838-0.82-1.142c-0.011-0.037-0.017-0.059-0.029-0.099c-2.432-7.799-10.369-12.7-18.452-10.477
		c-7.679,2.112-12.91,10.646-10.477,18.451c4.126,13.232,14.967,21.837,27.685,26.304c14.677,5.156,31.28,0.887,44.25-6.673
		c21.383-12.461,30.546-37.957,22.803-61.281c-7.663-23.079-28.002-35.514-51.71-35.846c-17.428-0.244-36.926,5.301-51.647,14.68
		c-42.633,27.162-67.855,72.347-106.904,103.476c0.042-0.063-2.525,1.897-2.464,1.853c-1.255,0.927-2.535,1.82-3.814,2.713
		c-2.606,1.82-5.285,3.532-7.987,5.206c-6.681,4.137-13.711,7.732-20.736,11.243c-12.444,6.217-22.735,10.521-36.27,14.759
		c-5.257,1.646-10.596,3.02-15.982,4.169c-2.457,0.524-4.932,0.957-7.413,1.352c-0.14,0.022-0.263,0.042-0.376,0.061
		c-0.109,0.013-0.228,0.026-0.362,0.043c-1.514,0.183-3.033,0.313-4.553,0.436c-4.196,0.338-8.412,0.363-12.613,0.134
		c-0.726-0.04-3.253-0.344-4.195-0.438c-1.521-0.271-3.034-0.588-4.533-0.963c-1.09-0.272-2.164-0.603-3.234-0.941
		c-7.795-2.471-16.347,2.824-18.452,10.477c-2.231,8.11,2.689,15.983,10.477,18.451c18.829,5.967,39.533,3.666,58.387-0.85
		c27.113-6.491,54.211-18.864,77.716-33.728c21.889-13.842,39.986-32.374,56.951-51.726
		C346.542,533.789,362.173,515.035,381.307,499.767z"/>
	<path d="M581.308,499.767c-1.055,0.795-0.868,0.652,0.559-0.427c1.217-0.922,2.457-1.813,3.697-2.704
		c2.098-1.505,4.249-2.934,6.413-4.342c2.564-1.668,5.281-3.057,8.057-4.338c0.191-0.088,0.351-0.163,0.492-0.229
		c0.207-0.078,0.48-0.184,0.84-0.325c1.789-0.702,3.607-1.325,5.434-1.922c3.577-1.17,7.234-2.084,10.923-2.828
		c0.598-0.121,2.942-0.462,3.743-0.594c1.277-0.123,2.559-0.219,3.841-0.285c1.76-0.091,3.523-0.069,5.284-0.014
		c0.995,0.032,1.988,0.115,2.98,0.203c0.086,0.015,0.179,0.031,0.283,0.049c1.688,0.29,3.346,0.73,4.986,1.215
		c0.358,0.106,0.711,0.23,1.064,0.352c0.245,0.122,1.471,0.637,1.922,0.872c0.651,0.339,3.165,2.094,3.282,2.075
		c0.98,0.883,1.889,1.844,2.763,2.833c-1.267-1.377,1.604,2.487,2.067,3.308c0.185,0.339,0.349,0.688,0.523,1.032
		c0.159,0.365,0.683,1.501,0.802,1.834c0.592,1.649,1.022,3.351,1.408,5.057c0.066,0.292,0.163,0.906,0.241,1.417
		c0.046,0.65,0.08,1.303,0.106,1.954c0.062,1.537-0.028,3.075-0.17,4.605c0.227-2.804-0.834,2.951-1.22,4.118
		c-0.018,0.046-0.028,0.076-0.045,0.119c-0.396,0.807-0.828,1.595-1.273,2.375c-0.408,0.715-0.873,1.395-1.347,2.068
		c0.922-1.353-1.018,1.09-1.386,1.479c-0.589,0.604-1.198,1.187-1.826,1.749c-0.235,0.218-0.407,0.382-0.55,0.521
		c-0.163,0.111-0.355,0.246-0.594,0.416c-1.969,1.402-4.107,2.551-6.258,3.643c-0.692,0.315-1.118,0.513-1.309,0.605
		c-1.469,0.561-2.975,0.998-4.49,1.416c0.007-0.002-3.55,0.53-3.229,0.566c-1.273,0.07-2.553,0.032-3.827-0.015
		c-0.223-0.02-0.417-0.036-0.59-0.051c-1.287-0.237-2.545-0.613-3.794-0.993c-0.211-0.064-0.387-0.116-0.544-0.161
		c-0.182-0.101-0.423-0.227-0.746-0.388c-0.967-0.482-1.874-1.069-2.773-1.666c1.414,0.891-0.566-0.767-1.819-1.896
		c-0.275-0.366-0.631-0.839-0.82-1.144c-0.011-0.036-0.016-0.058-0.028-0.097c-2.432-7.799-10.368-12.7-18.451-10.477
		c-7.68,2.112-12.911,10.646-10.477,18.451c4.126,13.232,14.967,21.837,27.684,26.304c14.677,5.156,31.28,0.887,44.251-6.673
		c21.383-12.461,30.547-37.957,22.803-61.281c-7.662-23.079-28.002-35.514-51.71-35.846c-17.428-0.244-36.926,5.301-51.646,14.68
		c-42.634,27.162-67.856,72.347-106.904,103.476c0.043-0.063-2.525,1.897-2.465,1.853c-1.255,0.927-2.534,1.82-3.813,2.713
		c-2.606,1.82-5.285,3.532-7.987,5.206c-6.681,4.137-13.711,7.732-20.736,11.243c-12.444,6.217-22.735,10.521-36.27,14.759
		c-5.257,1.646-10.596,3.02-15.982,4.169c-2.457,0.524-4.932,0.957-7.413,1.352c-0.14,0.022-0.263,0.042-0.376,0.061
		c-0.109,0.013-0.228,0.026-0.362,0.043c-1.514,0.183-3.033,0.313-4.553,0.436c-4.196,0.338-8.412,0.363-12.613,0.134
		c-0.726-0.04-3.253-0.344-4.196-0.438c-1.521-0.271-3.034-0.588-4.533-0.963c-1.09-0.272-2.164-0.603-3.234-0.941
		c-7.794-2.471-16.347,2.824-18.452,10.477c-2.231,8.11,2.689,15.983,10.477,18.451c18.829,5.967,39.533,3.666,58.387-0.85
		c27.113-6.491,54.211-18.864,77.716-33.728c21.889-13.843,39.986-32.374,56.952-51.726
		C546.542,533.789,562.173,515.035,581.308,499.767z"/>
	<path d="M880.191,487.556c-7.662-23.079-28.002-35.514-51.71-35.846c-17.428-0.244-36.926,5.301-51.646,14.68
		c-42.634,27.162-67.855,72.347-106.904,103.476c0.046-0.064-2.526,1.897-2.465,1.853c-1.255,0.927-2.534,1.82-3.813,2.713
		c-2.606,1.82-5.285,3.532-7.987,5.206c-6.681,4.137-13.711,7.732-20.735,11.243c-12.444,6.217-22.735,10.521-36.271,14.759
		c-5.257,1.646-10.596,3.02-15.982,4.169c-2.456,0.524-4.932,0.957-7.412,1.352c-0.14,0.022-0.263,0.042-0.376,0.061
		c-0.109,0.013-0.229,0.026-0.362,0.043c-1.515,0.183-3.033,0.313-4.554,0.436c-4.195,0.338-8.411,0.363-12.612,0.134
		c-0.727-0.04-3.255-0.344-4.196-0.438c-1.521-0.271-3.034-0.588-4.533-0.963c-1.09-0.272-2.164-0.603-3.234-0.941
		c-7.794-2.471-16.347,2.824-18.451,10.477c-2.231,8.11,2.688,15.983,10.477,18.451c18.828,5.967,39.532,3.666,58.387-0.85
		c27.113-6.491,54.212-18.864,77.717-33.728c21.889-13.843,39.985-32.374,56.951-51.726c16.065-18.326,31.696-37.08,50.831-52.349
		c-1.055,0.795-0.868,0.652,0.559-0.427c1.217-0.922,2.457-1.813,3.697-2.704c2.098-1.505,4.249-2.934,6.413-4.342
		c2.564-1.668,5.281-3.057,8.057-4.338c0.191-0.088,0.351-0.163,0.492-0.229c0.207-0.078,0.48-0.184,0.84-0.325
		c1.789-0.702,3.607-1.325,5.434-1.922c3.577-1.17,7.234-2.084,10.923-2.828c0.598-0.121,2.942-0.462,3.743-0.594
		c1.277-0.123,2.559-0.219,3.841-0.285c1.76-0.091,3.523-0.069,5.284-0.014c0.995,0.032,1.988,0.115,2.98,0.203
		c0.086,0.015,0.179,0.031,0.283,0.049c1.688,0.29,3.346,0.73,4.986,1.215c0.358,0.106,0.711,0.23,1.064,0.352
		c0.245,0.122,1.471,0.637,1.922,0.872c0.651,0.339,3.165,2.094,3.282,2.075c0.98,0.883,1.889,1.844,2.763,2.833
		c-1.267-1.377,1.604,2.487,2.067,3.308c0.185,0.339,0.349,0.688,0.523,1.032c0.159,0.365,0.683,1.501,0.802,1.834
		c0.592,1.649,1.022,3.351,1.408,5.057c0.066,0.292,0.163,0.906,0.241,1.417c0.046,0.65,0.08,1.303,0.106,1.954
		c0.062,1.537-0.028,3.075-0.17,4.605c0.227-2.804-0.834,2.951-1.22,4.118c-0.018,0.046-0.028,0.076-0.045,0.119
		c-0.396,0.807-0.828,1.595-1.273,2.375c-0.408,0.715-0.873,1.395-1.347,2.068c0.922-1.353-1.018,1.09-1.386,1.479
		c-0.589,0.604-1.198,1.187-1.826,1.749c-0.235,0.218-0.407,0.382-0.55,0.521c-0.163,0.111-0.355,0.246-0.594,0.416
		c-1.969,1.402-4.107,2.551-6.258,3.643c-0.692,0.315-1.118,0.513-1.309,0.605c-1.469,0.561-2.975,0.998-4.49,1.416
		c0.007-0.002-3.55,0.53-3.229,0.566c-1.273,0.07-2.553,0.032-3.827-0.015c-0.223-0.02-0.417-0.036-0.59-0.051
		c-1.287-0.237-2.545-0.613-3.794-0.993c-0.211-0.064-0.387-0.116-0.544-0.161c-0.182-0.101-0.423-0.227-0.746-0.388
		c-0.967-0.482-1.874-1.069-2.773-1.666c1.414,0.891-0.566-0.767-1.819-1.896c-0.275-0.366-0.631-0.839-0.82-1.144
		c-0.011-0.036-0.016-0.058-0.028-0.097c-2.432-7.799-10.368-12.7-18.451-10.477c-7.68,2.112-12.911,10.646-10.477,18.451
		c4.126,13.232,14.967,21.837,27.684,26.304c14.677,5.156,31.28,0.887,44.251-6.673C878.771,536.376,887.936,510.88,880.191,487.556
		z"/>
</g>
</svg>
